  0
SECTION
  2
HEADER
  9
$ACADVER
  1
AC1009
  9
$INSBASE
 10
0.0
 20
0.0
 30
0.0
  9
$EXTMIN
 10
0.0
 20
0.0
 30
0.0
  9
$EXTMAX
 10
338.6990478937793227
 20
250.802171859774603
 30
0.0
  9
$LIMMIN
 10
0.0
 20
0.0
  9
$LIMMAX
 10
338.6990478937793227
 20
250.802171859774603
  9
$ORTHOMODE
 70
     0
  9
$REGENMODE
 70
     1
  9
$FILLMODE
 70
     1
  9
$QTEXTMODE
 70
     0
  9
$MIRRTEXT
 70
     0
  9
$DRAGMODE
 70
     2
  9
$LTSCALE
 40
1.0
  9
$OSMODE
 70
     0
  9
$ATTMODE
 70
     1
  9
$TEXTSIZE
 40
0.2
  9
$TRACEWID
 40
0.05
  9
$TEXTSTYLE
  7
STANDARD
  9
$CLAYER
  8
0
  9
$CELTYPE
  6
BYLAYER
  9
$CECOLOR
 62
   256
  9
$DIMSCALE
 40
1.0
  9
$DIMASZ
 40
0.18
  9
$DIMEXO
 40
0.0625
  9
$DIMDLI
 40
0.38
  9
$DIMRND
 40
0.0
  9
$DIMDLE
 40
0.0
  9
$DIMEXE
 40
0.18
  9
$DIMTP
 40
0.0
  9
$DIMTM
 40
0.0
  9
$DIMTXT
 40
0.18
  9
$DIMCEN
 40
0.09
  9
$DIMTSZ
 40
0.0
  9
$DIMTOL
 70
     0
  9
$DIMLIM
 70
     0
  9
$DIMTIH
 70
     1
  9
$DIMTOH
 70
     1
  9
$DIMSE1
 70
     0
  9
$DIMSE2
 70
     0
  9
$DIMTAD
 70
     0
  9
$DIMZIN
 70
     0
  9
$DIMBLK
  1

  9
$DIMASO
 70
     1
  9
$DIMSHO
 70
     1
  9
$DIMPOST
  1

  9
$DIMAPOST
  1

  9
$DIMALT
 70
     0
  9
$DIMALTD
 70
     2
  9
$DIMALTF
 40
25.3999999999999986
  9
$DIMLFAC
 40
1.0
  9
$DIMTOFL
 70
     0
  9
$DIMTVP
 40
0.0
  9
$DIMTIX
 70
     0
  9
$DIMSOXD
 70
     0
  9
$DIMSAH
 70
     0
  9
$DIMBLK1
  1

  9
$DIMBLK2
  1

  9
$DIMSTYLE
  2
STANDARD
  9
$DIMCLRD
 70
     0
  9
$DIMCLRE
 70
     0
  9
$DIMCLRT
 70
     0
  9
$DIMTFAC
 40
1.0
  9
$DIMGAP
 40
0.09
  9
$LUNITS
 70
     2
  9
$LUPREC
 70
     4
  9
$SKETCHINC
 40
0.1
  9
$FILLETRAD
 40
0.0
  9
$AUNITS
 70
     0
  9
$AUPREC
 70
     0
  9
$MENU
  1
.
  9
$ELEVATION
 40
0.0
  9
$PELEVATION
 40
0.0
  9
$THICKNESS
 40
0.0
  9
$LIMCHECK
 70
     0
  9
$BLIPMODE
 70
     0
  9
$CHAMFERA
 40
0.0
  9
$CHAMFERB
 40
0.0
  9
$SKPOLY
 70
     0
  9
$TDCREATE
 40
2459561.8272106479853392
  9
$TDUPDATE
 40
2459561.8272106479853392
  9
$TDINDWG
 40
0.0000115741
  9
$TDUSRTIMER
 40
0.0000115741
  9
$USRTIMER
 70
     1
  9
$ANGBASE
 50
0.0
  9
$ANGDIR
 70
     0
  9
$PDMODE
 70
     0
  9
$PDSIZE
 40
0.0
  9
$PLINEWID
 40
0.0
  9
$COORDS
 70
     0
  9
$SPLFRAME
 70
     0
  9
$SPLINETYPE
 70
     6
  9
$SPLINESEGS
 70
     8
  9
$ATTDIA
 70
     1
  9
$ATTREQ
 70
     1
  9
$HANDLING
 70
     1
  9
$HANDSEED
  5
2B3
  9
$SURFTAB1
 70
     6
  9
$SURFTAB2
 70
     6
  9
$SURFTYPE
 70
     6
  9
$SURFU
 70
     6
  9
$SURFV
 70
     6
  9
$UCSNAME
  2

  9
$UCSORG
 10
0.0
 20
0.0
 30
0.0
  9
$UCSXDIR
 10
1.0
 20
0.0
 30
0.0
  9
$UCSYDIR
 10
0.0
 20
1.0
 30
0.0
  9
$PUCSNAME
  2

  9
$PUCSORG
 10
0.0
 20
0.0
 30
0.0
  9
$PUCSXDIR
 10
1.0
 20
0.0
 30
0.0
  9
$PUCSYDIR
 10
0.0
 20
1.0
 30
0.0
  9
$USERI1
 70
     0
  9
$USERI2
 70
     0
  9
$USERI3
 70
     0
  9
$USERI4
 70
     0
  9
$USERI5
 70
     0
  9
$USERR1
 40
0.0
  9
$USERR2
 40
0.0
  9
$USERR3
 40
0.0
  9
$USERR4
 40
0.0
  9
$USERR5
 40
0.0
  9
$WORLDVIEW
 70
     1
  9
$SHADEDGE
 70
     3
  9
$SHADEDIF
 70
    70
  9
$TILEMODE
 70
     1
  9
$MAXACTVP
 70
    64
  9
$PLIMCHECK
 70
     0
  9
$PEXTMIN
 10
0.0
 20
0.0
 30
0.0
  9
$PEXTMAX
 10
338.6990478937793227
 20
250.802171859774603
 30
0.0
  9
$PLIMMIN
 10
0.0
 20
0.0
  9
$PLIMMAX
 10
338.6990478937793227
 20
250.802171859774603
  9
$UNITMODE
 70
     0
  9
$VISRETAIN
 70
     1
  9
$PLINEGEN
 70
     0
  9
$PSLTSCALE
 70
     1
  0
ENDSEC
  0
SECTION
  2
TABLES
  0
TABLE
  2
VPORT
 70
     1
  0
VPORT
  2
*ACTIVE
 70
     0
 10
0.0
 20
0.0
 11
1.0
 21
1.0
 12
50.1470176658581579
 22
121.7390309678767011
 13
0.0
 23
0.0
 14
1.0
 24
1.0
 15
0.0
 25
0.0
 16
0.0
 26
0.0
 36
1.0
 17
0.0
 27
0.0
 37
0.0
 40
250.802171859774603
 41
1.350462977980702
 42
50.0
 43
0.0
 44
0.0
 50
0.0
 51
0.0
 71
     0
 72
   100
 73
     1
 74
     1
 75
     0
 76
     0
 77
     0
 78
     0
  0
ENDTAB
  0
TABLE
  2
LTYPE
 70
    59
  0
LTYPE
  2
CONTINUOUS
 70
     0
  3
Solid line
 72
    65
 73
     0
 40
0.0
  0
LTYPE
  2
BY_STANDARD
 70
     0
  3
By Standard ____________    ____    ____   _
 72
    65
 73
     6
 40
1.2402999999999991
 49
0.6614
 49
-0.0827
 49
0.1654
 49
-0.0827
 49
0.1654
 49
-0.0827
  0
LTYPE
  2
CHAIN
 70
     0
  3
Chain ____ _ ____ _ ____ _ ____ _ ____ _ ____
 72
    65
 73
     4
 40
0.7087
 49
0.4724000000000001
 49
-0.0591
 49
0.1181
 49
-0.0591
  0
LTYPE
  2
DASH_DOT
 70
     0
  3
Dash dot __ . __ . __ . __ . __ . __ . __ . __
 72
    65
 73
     4
 40
0.37
 49
0.24
 49
-0.06
 49
0.01
 49
-0.06
  0
LTYPE
  2
DOUBLE_DASH_DOT
 70
     0
  3
Double-Dash Dot __ __ . __ __ . __ __ . __ _
 72
    65
 73
     6
 40
0.4398
 49
0.24
 49
-0.06
 49
0.0098
 49
-0.06
 49
0.01
 49
-0.06
  0
LTYPE
  2
DASH_TRIPLE_DOT
 70
     0
  3
Dash Triple-Dot _ . . . _ . . . _ . . . _
 72
    65
 73
     8
 40
0.51
 49
0.24
 49
-0.06
 49
0.01
 49
-0.06
 49
0.01
 49
-0.06
 49
0.01
 49
-0.06
  0
LTYPE
  2
DASHED
 70
     0
  3
Dashed __ __ __ __ __ __ __ __ __ __ __ __ __ _
 72
    65
 73
     2
 40
0.2067
 49
0.1654
 49
-0.0413
  0
LTYPE
  2
DASH_DOUBLE_DOT
 70
     0
  3
Dash Double-Dot __ . . __ . . __ . . __ . .
 72
    65
 73
     6
 40
0.4398
 49
0.24
 49
-0.06
 49
0.0098
 49
-0.06
 49
0.01
 49
-0.06
  0
LTYPE
  2
DASHED_SPACE
 70
     0
  3
Dashed Space __ __ __ __ __ __ __ __ __ __ __ _
 72
    65
 73
     2
 40
0.2067
 49
0.1654
 49
-0.0413
  0
LTYPE
  2
DOTTED
 70
     0
  3
Dotted . . . . . . . . . . . . . . . . . . . . 
 72
    65
 73
     2
 40
0.0482
 49
0.0069
 49
-0.0413
  0
LTYPE
  2
DOUBLE_DASH_CHAIN
 70
     0
  3
Double-Dash Chain ______  __  __  ______  __  _
 72
    65
 73
     6
 40
1.2402999999999991
 49
0.6614
 49
-0.0827
 49
0.1654
 49
-0.0827
 49
0.1654
 49
-0.0827
  0
LTYPE
  2
DOUBLE_DASH_DOUBLE_DOT
 70
     0
  3
Double-Dash Double-dot _ _ . . _ _ . . _
 72
    65
 73
     8
 40
0.7400000000000001
 49
0.24
 49
-0.06
 49
0.24
 49
-0.06
 49
0.01
 49
-0.06
 49
0.01
 49
-0.06
  0
LTYPE
  2
DOUBLE_DASH_TRIPLE_DOT
 70
     0
  3
Double Dash Triple Dot __ __ . . . __ __ . .
 72
    65
 73
    10
 40
0.8100000000000001
 49
0.24
 49
-0.06
 49
0.24
 49
-0.06
 49
0.01
 49
-0.06
 49
0.01
 49
-0.06
 49
0.01
 49
-0.06
  0
LTYPE
  2
LONG_DASH_DOTTED
 70
     0
  3
Long Dash Dotted ____ . ____ . ____ . ____ . _
 72
    65
 73
     4
 40
0.3543
 49
0.2362
 49
-0.0295
 49
0.0591
 49
-0.0295
  0
LTYPE
  2
LONG_DASH_DOUBLE_DOT
 70
     0
  3
Long Dash Double Dot ________  .  .  ________  
 72
    65
 73
     6
 40
0.6799999999999999
 49
0.48
 49
-0.06
 49
0.01
 49
-0.06
 49
0.01
 49
-0.06
  0
LTYPE
  2
LONG_DASH_TRIPLE_DOT
 70
     0
  3
Long Dash Triple Dot ____ ... ____ ... ____
 72
    65
 73
     8
 40
0.3689
 49
0.2362
 49
-0.0295
 49
0.0049
 49
-0.0295
 49
0.0049
 49
-0.0295
 49
0.0049
 49
-0.0295
  0
LTYPE
  2
BORDER
 70
     0
  3
Border __ __ . __ __ . __ __ . __ __ . __ __ .
 72
    65
 73
     6
 40
1.75
 49
0.5
 49
-0.25
 49
0.5
 49
-0.25
 49
0.0
 49
-0.25
  0
LTYPE
  2
BORDER2
 70
     0
  3
Border (.5x) __.__.__.__.__.__.__.__.__.__.__.
 72
    65
 73
     6
 40
0.875
 49
0.25
 49
-0.125
 49
0.25
 49
-0.125
 49
0.0
 49
-0.125
  0
LTYPE
  2
BORDERX2
 70
     0
  3
Border (2x) ____  ____  .  ____  ____  .  ___
 72
    65
 73
     6
 40
3.5
 49
1.0
 49
-0.5
 49
1.0
 49
-0.5
 49
0.0
 49
-0.5
  0
LTYPE
  2
CENTER
 70
     0
  3
Center ____ _ ____ _ ____ _ ____ _ ____ _ ____
 72
    65
 73
     4
 40
2.0
 49
1.25
 49
-0.25
 49
0.25
 49
-0.25
  0
LTYPE
  2
CENTER2
 70
     0
  3
Center (.5x) ___ _ ___ _ ___ _ ___ _ ___ _ ___
 72
    65
 73
     4
 40
1.125
 49
0.75
 49
-0.125
 49
0.125
 49
-0.125
  0
LTYPE
  2
CENTERX2
 70
     0
  3
Center (2x) ________  __  ________  __  _____
 72
    65
 73
     4
 40
4.0
 49
2.5
 49
-0.5
 49
0.5
 49
-0.5
  0
LTYPE
  2
DASHDOT2
 70
     0
  3
Dash dot (.5x) _._._._._._._._._._._._._._._.
 72
    65
 73
     4
 40
0.5
 49
0.25
 49
-0.125
 49
0.0
 49
-0.125
  0
LTYPE
  2
DASHDOTX2
 70
     0
  3
Dash dot (2x) ____  .  ____  .  ____  .  ___
 72
    65
 73
     4
 40
2.0
 49
1.0
 49
-0.5
 49
0.0
 49
-0.5
  0
LTYPE
  2
DASHED2
 70
     0
  3
Dashed (.5x) _ _ _ _ _ _ _ _ _ _ _ _ _ _ _ _ _
 72
    65
 73
     2
 40
0.375
 49
0.25
 49
-0.125
  0
LTYPE
  2
DASHEDX2
 70
     0
  3
Dashed (2x) ____  ____  ____  ____  ____  ___
 72
    65
 73
     2
 40
1.5
 49
1.0
 49
-0.5
  0
LTYPE
  2
DIVIDE
 70
     0
  3
Divide ____ . . ____ . . ____ . . ____ . . ____
 72
    65
 73
     6
 40
1.25
 49
0.5
 49
-0.25
 49
0.0
 49
-0.25
 49
0.0
 49
-0.25
  0
LTYPE
  2
DIVIDE2
 70
     0
  3
Divide (.5x) __..__..__..__..__..__..__..__.._
 72
    65
 73
     6
 40
0.625
 49
0.25
 49
-0.125
 49
0.0
 49
-0.125
 49
0.0
 49
-0.125
  0
LTYPE
  2
DIVIDEX2
 70
     0
  3
Divide (2x) ________  .  .  ________  .  .  _
 72
    65
 73
     6
 40
2.5
 49
1.0
 49
-0.5
 49
0.0
 49
-0.5
 49
0.0
 49
-0.5
  0
LTYPE
  2
DOT
 70
     0
  3
Dot . . . . . . . . . . . . . . . . . . . . . .
 72
    65
 73
     2
 40
0.25
 49
0.0
 49
-0.25
  0
LTYPE
  2
DOT2
 70
     0
  3
Dot (.5x) .....................................
 72
    65
 73
     2
 40
0.125
 49
0.0
 49
-0.125
  0
LTYPE
  2
DOTX2
 70
     0
  3
Dot (2x) .  .  .  .  .  .  .  .  .  .  .  .  . 
 72
    65
 73
     2
 40
0.5
 49
0.0
 49
-0.5
  0
LTYPE
  2
HIDDEN
 70
     0
  3
Hidden __ __ __ __ __ __ __ __ __ __ __ __ __ _
 72
    65
 73
     2
 40
0.375
 49
0.25
 49
-0.125
  0
LTYPE
  2
HIDDEN2
 70
     0
  3
Hidden (.5x) _ _ _ _ _ _ _ _ _ _ _ _ _ _ _ _ _
 72
    65
 73
     2
 40
0.1875
 49
0.125
 49
-0.0625
  0
LTYPE
  2
HIDDENX2
 70
     0
  3
Hidden (2x) ____ ____ ____ ____ ____ ____ ____
 72
    65
 73
     2
 40
0.75
 49
0.5
 49
-0.25
  0
LTYPE
  2
PHANTOM
 70
     0
  3
Phantom ______  __  __  ______  __  __  ______
 72
    65
 73
     6
 40
2.5
 49
1.25
 49
-0.25
 49
0.25
 49
-0.25
 49
0.25
 49
-0.25
  0
LTYPE
  2
PHANTOM2
 70
     0
  3
Phantom (.5x) ___ _ _ ___ _ _ ___ _ _ ___ _ _
 72
    65
 73
     6
 40
1.25
 49
0.625
 49
-0.125
 49
0.125
 49
-0.125
 49
0.125
 49
-0.125
  0
LTYPE
  2
PHANTOMX2
 70
     0
  3
Phantom (2x) ____________    ____    ____   _
 72
    65
 73
     6
 40
5.0
 49
2.5
 49
-0.5
 49
0.5
 49
-0.5
 49
0.5
 49
-0.5
  0
LTYPE
  2
ACAD_ISO02W100
 70
     0
  3
ISO dash __ __ __ __ __ __ __ __ __ __ __ __ __
 72
    65
 73
     2
 40
0.59
 49
0.47
 49
-0.12
  0
LTYPE
  2
ACAD_ISO03W100
 70
     0
  3
ISO dash space __    __    __    __    __    __
 72
    65
 73
     2
 40
1.179999999999999
 49
0.47
 49
-0.71
  0
LTYPE
  2
ACAD_ISO04W100
 70
     0
  3
ISO long-dash dot ____ . ____ . ____ . ____ . _
 72
    65
 73
     4
 40
1.179999999999999
 49
0.9399999999999998
 49
-0.12
 49
0.0
 49
-0.12
  0
LTYPE
  2
ACAD_ISO05W100
 70
     0
  3
ISO long-dash double-dot ____ .. ____ .. ____ .
 72
    65
 73
     6
 40
1.2999999999999989
 49
0.9399999999999998
 49
-0.12
 49
0.0
 49
-0.12
 49
0.0
 49
-0.12
  0
LTYPE
  2
ACAD_ISO06W100
 70
     0
  3
ISO long-dash triple-dot ____ ... ____ ... ____
 72
    65
 73
     8
 40
1.419999999999999
 49
0.9399999999999998
 49
-0.12
 49
0.0
 49
-0.12
 49
0.0
 49
-0.12
 49
0.0
 49
-0.12
  0
LTYPE
  2
ACAD_ISO07W100
 70
     0
  3
ISO dot . . . . . . . . . . . . . . . . . . . .
 72
    65
 73
     2
 40
0.12
 49
0.0
 49
-0.12
  0
LTYPE
  2
ACAD_ISO08W100
 70
     0
  3
ISO long-dash short-dash ____ __ ____ __ ____ _
 72
    65
 73
     4
 40
0.95
 49
0.47
 49
-0.12
 49
0.24
 49
-0.12
  0
LTYPE
  2
ACAD_ISO09W100
 70
     0
  3
ISO long-dash double-short-dash ____ __ __ ____
 72
    65
 73
     6
 40
1.3100000000000001
 49
0.47
 49
-0.12
 49
0.24
 49
-0.12
 49
0.24
 49
-0.12
  0
LTYPE
  2
ACAD_ISO10W100
 70
     0
  3
ISO dash dot __ . __ . __ . __ . __ . __ . __ .
 72
    65
 73
     4
 40
0.71
 49
0.47
 49
-0.12
 49
0.0
 49
-0.12
  0
LTYPE
  2
ACAD_ISO11W100
 70
     0
  3
ISO double-dash dot __ __ . __ __ . __ __ . __ 
 72
    65
 73
     6
 40
1.2999999999999989
 49
0.47
 49
-0.12
 49
0.47
 49
-0.12
 49
0.0
 49
-0.12
  0
LTYPE
  2
ACAD_ISO12W100
 70
     0
  3
ISO dash double-dot __ . . __ . . __ . . __ . .
 72
    65
 73
     6
 40
0.8299999999999998
 49
0.47
 49
-0.12
 49
0.0
 49
-0.12
 49
0.0
 49
-0.12
  0
LTYPE
  2
ACAD_ISO13W100
 70
     0
  3
ISO double-dash double-dot __ __ . . __ __ . . 
 72
    65
 73
     8
 40
1.419999999999999
 49
0.47
 49
-0.12
 49
0.47
 49
-0.12
 49
0.0
 49
-0.12
 49
0.0
 49
-0.12
  0
LTYPE
  2
ACAD_ISO14W100
 70
     0
  3
ISO dash triple-dot __ . . . __ . . . __ . . . 
 72
    65
 73
     8
 40
0.95
 49
0.47
 49
-0.12
 49
0.0
 49
-0.12
 49
0.0
 49
-0.12
 49
0.0
 49
-0.12
  0
LTYPE
  2
ACAD_ISO15W100
 70
     0
  3
ISO double-dash triple-dot __ __ . . . __ __ . 
 72
    65
 73
    10
 40
1.5399999999999989
 49
0.47
 49
-0.12
 49
0.47
 49
-0.12
 49
0.0
 49
-0.12
 49
0.0
 49
-0.12
 49
0.0
 49
-0.12
  0
LTYPE
  2
FENCELINE1
 70
     0
  3
Fenceline circle ----0-----0----0-----0----0---
 72
    65
 73
     4
 40
1.45
 49
0.25
 49
-0.1
 49
-0.1
 49
1.0
  0
LTYPE
  2
FENCELINE2
 70
     0
  3
Fenceline square ----[]-----[]----[]-----[]----
 72
    65
 73
     4
 40
1.45
 49
0.25
 49
-0.1
 49
-0.1
 49
1.0
  0
LTYPE
  2
TRACKS
 70
     0
  3
Tracks -|-|-|-|-|-|-|-|-|-|-|-|-|-|-|-|-|-|-|-|
 72
    65
 73
     2
 40
0.3
 49
0.15
 49
0.15
  0
LTYPE
  2
BATTING
 70
     0
  3
Batting SSSSSSSSSSSSSSSSSSSSSSSSSSSSSSSSSSSSSSS
 72
    65
 73
     4
 40
0.4001000000000001
 49
0.0001
 49
-0.1
 49
-0.2
 49
-0.1
  0
LTYPE
  2
HOT_WATER_SUPPLY
 70
     0
  3
Hot water supply ---- HW ---- HW ---- HW ----
 72
    65
 73
     3
 40
0.9
 49
0.5
 49
-0.2
 49
-0.2
  0
LTYPE
  2
GAS_LINE
 70
     0
  3
Gas line ----GAS----GAS----GAS----GAS----GAS---
 72
    65
 73
     3
 40
0.95
 49
0.5
 49
-0.2
 49
-0.25
  0
LTYPE
  2
ZIGZAG
 70
     0
  3
Zig zag /\/\/\/\/\/\/\/\/\/\/\/\/\/\/\/\/\/\/\/
 72
    65
 73
     4
 40
0.8001000000000001
 49
0.0001
 49
-0.2
 49
-0.4
 49
-0.2
  0
ENDTAB
  0
TABLE
  2
LAYER
 70
     1
  0
LAYER
  2
0
 70
     0
 62
     7
  6
CONTINUOUS
  0
ENDTAB
  0
TABLE
  2
STYLE
 70
     7
  0
STYLE
  2
STANDARD
 70
     0
 40
0.0
 41
1.0
 50
0.0
 71
     0
 42
0.2
  3
txt
  4

  0
STYLE
  2
ANNOTATIVE
 70
     0
 40
0.0
 41
1.0
 50
0.0
 71
     0
 42
0.2
  3
txt
  4

  0
STYLE
  2

 70
     1
 40
0.0
 41
1.0
 50
0.0
 71
     0
 42
0.2
  3
ltypeshp.shx
  4

  0
STYLE
  2
NOTE_TEXT__ANSI__-_3DA
 70
     0
 40
0.0
 41
1.0
 50
0.0
 71
     0
 42
0.2
  3
txt.shx
  4
bigfont.shx
  0
STYLE
  2
SKETCH_TEXT__ANSI__-_3DA
 70
     0
 40
0.0
 41
1.0
 50
0.0
 71
     0
 42
0.2
  3
txt.shx
  4
bigfont.shx
  0
STYLE
  2
STANDARDANNOTATIVE
 70
     0
 40
0.0
 41
1.0
 50
0.0
 71
     0
 42
0.2
  3
txt.shx
  4
bigfont.shx
  0
STYLE
  2
STANDARDSTANDARD
 70
     0
 40
0.0
 41
1.0
 50
0.0
 71
     0
 42
0.2
  3
txt.shx
  4
bigfont.shx
  0
ENDTAB
  0
TABLE
  2
VIEW
 70
     0
  0
ENDTAB
  0
TABLE
  2
UCS
 70
     0
  0
ENDTAB
  0
TABLE
  2
APPID
 70
     3
  0
APPID
  2
ACAD
 70
     0
  0
APPID
  2
ACADANNOTATIVE
 70
     0
  0
APPID
  2
ACAD_MLEADERVER
 70
     0
  0
ENDTAB
  0
TABLE
  2
DIMSTYLE
 70
     2
  0
DIMSTYLE
  2
STANDARD
 70
     0
  3

  4

  5

  6

  7

 40
1.0
 41
0.18
 42
0.0625
 43
0.38
 44
0.18
 45
0.0
 46
0.0
 47
0.0
 48
0.0
140
0.18
141
0.09
142
0.0
143
25.3999999999999986
144
1.0
145
0.0
146
1.0
147
0.09
 71
     0
 72
     0
 73
     1
 74
     1
 75
     0
 76
     0
 77
     0
 78
     0
170
     0
171
     2
172
     0
173
     0
174
     0
175
     0
176
     0
177
     0
178
     0
  0
DIMSTYLE
  2
ANNOTATIVE
 70
     0
  3

  4

  5

  6

  7

 40
1.0
 41
0.18
 42
0.0625
 43
0.38
 44
0.18
 45
0.0
 46
0.0
 47
0.0
 48
0.0
140
0.18
141
0.09
142
0.0
143
25.3999999999999986
144
1.0
145
0.0
146
1.0
147
0.09
 71
     0
 72
     0
 73
     1
 74
     1
 75
     0
 76
     0
 77
     0
 78
     0
170
     0
171
     2
172
     0
173
     0
174
     0
175
     0
176
     0
177
     0
178
     0
  0
ENDTAB
  0
ENDSEC
  0
SECTION
  2
BLOCKS
  0
BLOCK
  8
0
  2
$MODEL_SPACE
 70
     0
 10
0.0
 20
0.0
 30
0.0
  3
$MODEL_SPACE
  1

  0
ENDBLK
  5
72
  8
0
  0
BLOCK
 67
     1
  8
0
  2
$PAPER_SPACE
 70
     0
 10
0.0
 20
0.0
 30
0.0
  3
$PAPER_SPACE
  1

  0
ENDBLK
  5
6E
 67
     1
  8
0
  0
ENDSEC
  0
SECTION
  2
ENTITIES
  0
POLYLINE
  5
BA
  8
0
 66
     1
 10
0.0
 20
0.0
 30
0.0
 70
     1
  0
VERTEX
  5
BB
  8
0
 10
58.8775468774410697
 20
86.954087674695856
 30
0.0
  0
VERTEX
  5
BC
  8
0
 10
57.4508854962631332
 20
88.8713421328911437
 30
0.0
  0
VERTEX
  5
BE
  8
0
 10
56.9408007886513587
 20
89.7056709496152251
 30
0.0
  0
VERTEX
  5
BF
  8
0
 10
56.4908870934842327
 20
90.5582047141686672
 30
0.0
  0
VERTEX
  5
C0
  8
0
 10
56.1166917443363573
 20
91.399360935066511
 30
0.0
  0
VERTEX
  5
C1
  8
0
 10
55.8170326711346476
 20
92.2267271706221123
 30
0.0
  0
VERTEX
  5
C2
  8
0
 10
55.590462702389118
 20
93.0382097367605354
 30
0.0
  0
VERTEX
  5
C3
  8
0
 10
55.4353555689264184
 20
93.8322741622158532
 30
0.0
  0
VERTEX
  5
C4
  8
0
 10
55.3500250750998077
 20
94.6079932710719333
 30
0.0
  0
VERTEX
  5
C5
  8
0
 10
55.3329139349849797
 20
95.3652078521986084
 30
0.0
  0
VERTEX
  5
C6
  8
0
 10
55.3828469989495105
 20
96.1044173976114422
 30
0.0
  0
VERTEX
  5
C7
  8
0
 10
55.4993846420450012
 20
96.8273440262798744
 30
0.0
  0
VERTEX
  5
C8
  8
0
 10
55.6826371101566693
 20
97.535946320009856
 30
0.0
  0
VERTEX
  5
C9
  8
0
 10
55.9334650592533933
 20
98.2328433977338733
 30
0.0
  0
VERTEX
  5
CA
  8
0
 10
56.2529756436033708
 20
98.9194357932911146
 30
0.0
  0
VERTEX
  5
CB
  8
0
 10
56.6424580967053899
 20
99.5957357735052824
 30
0.0
  0
VERTEX
  5
CC
  8
0
 10
57.1032336012443267
 20
100.2609154871435067
 30
0.0
  0
VERTEX
  5
CD
  8
0
 10
57.6364370860250688
 20
100.9134006966565948
 30
0.0
  0
VERTEX
  5
CE
  8
0
 10
58.2429215709174883
 20
101.5510691058207016
 30
0.0
  0
VERTEX
  5
CF
  8
0
 10
58.9231462684447322
 20
102.1714679032217958
 30
0.0
  0
VERTEX
  5
D0
  8
0
 10
59.6771580502780523
 20
102.7718239275596943
 30
0.0
  0
VERTEX
  5
D1
  8
0
 10
60.4788053956627607
 20
103.3312509592938966
 30
0.0
  0
VERTEX
  5
D2
  8
0
 10
62.554618979623541
 20
104.5148670981243981
 30
0.0
  0
VERTEX
  5
D3
  8
0
 10
64.8689717588449071
 20
105.5159266875675002
 30
0.0
  0
VERTEX
  5
D4
  8
0
 10
67.4253581082206068
 20
106.339802405355897
 30
0.0
  0
VERTEX
  5
D5
  8
0
 10
70.194637999344593
 20
106.9766255633343945
 30
0.0
  0
VERTEX
  5
D6
  8
0
 10
73.1469397579330263
 20
107.4185539166441004
 30
0.0
  0
VERTEX
  5
D7
  8
0
 10
76.252300379631933
 20
107.6592478089914948
 30
0.0
  0
VERTEX
  5
D8
  8
0
 10
79.4809091163868828
 20
107.6935787961736963
 30
0.0
  0
VERTEX
  5
D9
  8
0
 10
82.8031914963428903
 20
107.5171775206138989
 30
0.0
  0
VERTEX
  5
DA
  8
0
 10
86.1898777693816953
 20
107.1263487003272985
 30
0.0
  0
VERTEX
  5
DB
  8
0
 10
89.6123204522571655
 20
106.517836437202007
 30
0.0
  0
VERTEX
  5
DC
  8
0
 10
92.9913853779069797
 20
105.7022398195483959
 30
0.0
  0
VERTEX
  5
DD
  8
0
 10
96.2503449994600402
 20
104.7015287873713021
 30
0.0
  0
VERTEX
  5
DE
  8
0
 10
99.3643143078537747
 20
103.5301729205358043
 30
0.0
  0
VERTEX
  5
DF
  8
0
 10
102.3079378104847024
 20
102.203344428869201
 30
0.0
  0
VERTEX
  5
E0
  8
0
 10
105.0558732746799961
 20
100.7368827097754007
 30
0.0
  0
VERTEX
  5
E1
  8
0
 10
107.5828911643152992
 20
99.1474909758948684
 30
0.0
  0
VERTEX
  5
E2
  8
0
 10
109.8640610389500978
 20
97.4529955082160626
 30
0.0
  0
VERTEX
  5
E3
  8
0
 10
111.8751685191093941
 20
95.6726040094437025
 30
0.0
  0
VERTEX
  5
E4
  8
0
 10
113.5934767617859933
 20
93.8270439422658455
 30
0.0
  0
VERTEX
  5
E5
  8
0
 10
115.0200129003772958
 20
91.9100221961686685
 30
0.0
  0
VERTEX
  5
E6
  8
0
 10
115.5299001768593996
 20
91.0759146540039666
 30
0.0
  0
VERTEX
  5
E7
  8
0
 10
115.9797361722241931
 20
90.2234469505426944
 30
0.0
  0
VERTEX
  5
E8
  8
0
 10
116.3539252416769045
 20
89.3822825193145292
 30
0.0
  0
VERTEX
  5
E9
  8
0
 10
116.6536184793468038
 20
88.5548649680712856
 30
0.0
  0
VERTEX
  5
EA
  8
0
 10
116.8802644257038992
 20
87.7432475127218368
 30
0.0
  0
VERTEX
  5
EB
  8
0
 10
117.0354767599093009
 20
86.9490587433436701
 30
0.0
  0
VERTEX
  5
EC
  8
0
 10
117.1209016651131947
 20
86.1732351629344464
 30
0.0
  0
VERTEX
  5
ED
  8
0
 10
117.1381119136226943
 20
85.4159302317279696
 30
0.0
  0
VERTEX
  5
EE
  8
0
 10
117.088274622825594
 20
84.6766560278080647
 30
0.0
  0
VERTEX
  5
EF
  8
0
 10
116.9718599813987936
 20
83.953848715318756
 30
0.0
  0
VERTEX
  5
F0
  8
0
 10
116.7886468163045066
 20
83.2453983988508952
 30
0.0
  0
VERTEX
  5
F1
  8
0
 10
116.5378166839773968
 20
82.5485319691941157
 30
0.0
  0
VERTEX
  5
F2
  8
0
 10
116.2182921106064981
 20
81.8619467933724536
 30
0.0
  0
VERTEX
  5
F3
  8
0
 10
115.8287985468637942
 20
81.1856793100809568
 30
0.0
  0
VERTEX
  5
F4
  8
0
 10
115.3679816239877027
 20
80.5205271521782464
 30
0.0
  0
VERTEX
  5
F5
  8
0
 10
114.8347149398906026
 20
79.8680625094535799
 30
0.0
  0
VERTEX
  5
F6
  8
0
 10
114.2281438928276032
 20
79.230407357538752
 30
0.0
  0
VERTEX
  5
F7
  8
0
 10
113.5477877114355039
 20
78.6100379964497762
 30
0.0
  0
VERTEX
  5
F8
  8
0
 10
112.7935718632735984
 20
78.0096851691514104
 30
0.0
  0
VERTEX
  5
F9
  8
0
 10
111.9914963467918056
 20
77.4501345870634452
 30
0.0
  0
VERTEX
  5
FA
  8
0
 10
109.9156069709392938
 20
76.2663412612653104
 30
0.0
  0
VERTEX
  5
FB
  8
0
 10
107.6013020994437994
 20
75.2652143470669586
 30
0.0
  0
VERTEX
  5
FC
  8
0
 10
105.0449263064416954
 20
74.4412853213476637
 30
0.0
  0
VERTEX
  5
FD
  8
0
 10
102.2756278324501977
 20
73.8044001617721221
 30
0.0
  0
VERTEX
  5
FE
  8
0
 10
99.3232893974979589
 20
73.3624253509396453
 30
0.0
  0
VERTEX
  5
FF
  8
0
 10
96.2179034544389964
 20
73.1216675046608344
 30
0.0
  0
VERTEX
  5
100
  8
0
 10
92.989308129908764
 20
73.0872899700560765
 30
0.0
  0
VERTEX
  5
101
  8
0
 10
89.6670697860581498
 20
73.2636271936376602
 30
0.0
  0
VERTEX
  5
102
  8
0
 10
86.2804842252102446
 20
73.6543791976147304
 30
0.0
  0
VERTEX
  5
103
  8
0
 10
82.8582739812138129
 20
74.2627973520884836
 30
0.0
  0
VERTEX
  5
104
  8
0
 10
79.4792874144843324
 20
75.0785342303701526
 30
0.0
  0
VERTEX
  5
105
  8
0
 10
76.220339524856854
 20
76.0793693312834733
 30
0.0
  0
VERTEX
  5
106
  8
0
 10
73.1064349141965266
 20
77.2507724433746148
 30
0.0
  0
VERTEX
  5
107
  8
0
 10
70.1628911947459386
 20
78.5776191668983017
 30
0.0
  0
VERTEX
  5
108
  8
0
 10
67.4150368915394296
 20
80.0440924973025574
 30
0.0
  0
VERTEX
  5
109
  8
0
 10
64.8880884014412231
 20
81.6334841199061856
 30
0.0
  0
VERTEX
  5
10A
  8
0
 10
62.6069706108098103
 20
83.3279863850673763
 30
0.0
  0
VERTEX
  5
10B
  8
0
 10
60.5958838447165178
 20
85.1084256470117992
 30
0.0
  0
SEQEND
  5
BD
  8
0
  0
POLYLINE
  5
10D
  8
0
 66
     1
 10
0.0
 20
0.0
 30
0.0
 70
     1
  0
VERTEX
  5
10E
  8
0
 10
-46.8337142507903224
 20
235.7400181768651919
 30
0.0
  0
VERTEX
  5
10F
  8
0
 10
-48.8538762241260685
 20
235.5764829092491937
 30
0.0
  0
VERTEX
  5
111
  8
0
 10
-50.8528696339638202
 20
235.0829689178229103
 30
0.0
  0
VERTEX
  5
112
  8
0
 10
-52.7172055156514716
 20
234.2936959354377962
 30
0.0
  0
VERTEX
  5
113
  8
0
 10
-54.4185644187462714
 20
233.2365698122638094
 30
0.0
  0
VERTEX
  5
114
  8
0
 10
-55.9307458234045995
 20
231.9388402068541097
 30
0.0
  0
VERTEX
  5
115
  8
0
 10
-57.2283263479534199
 20
230.4265512898934105
 30
0.0
  0
VERTEX
  5
116
  8
0
 10
-58.2853039937885313
 20
228.7251208409792866
 30
0.0
  0
VERTEX
  5
117
  8
0
 10
-59.0744949419199372
 20
226.860736712902991
 30
0.0
  0
VERTEX
  5
118
  8
0
 10
-59.5679143518932293
 20
224.8617312425828061
 30
0.0
  0
VERTEX
  5
119
  8
0
 10
-59.7379552783005181
 20
222.7608116490715133
 30
0.0
  0
VERTEX
  5
11A
  8
0
 10
-59.5679098075627707
 20
220.6600934232426141
 30
0.0
  0
VERTEX
  5
11B
  8
0
 10
-59.0744738208689313
 20
218.6612502735632972
 30
0.0
  0
VERTEX
  5
11C
  8
0
 10
-58.2852598428872497
 20
216.7970411562008906
 30
0.0
  0
VERTEX
  5
11D
  8
0
 10
-57.2282570228000509
 20
215.0957707007694921
 30
0.0
  0
VERTEX
  5
11E
  8
0
 10
-55.930645920462382
 20
213.5836464921630125
 30
0.0
  0
VERTEX
  5
11F
  8
0
 10
-54.4184529182778505
 20
212.2861072774792888
 30
0.0
  0
VERTEX
  5
120
  8
0
 10
-52.7171158483096818
 20
211.2291379448064959
 30
0.0
  0
VERTEX
  5
121
  8
0
 10
-50.8527938404041819
 20
210.4399568658488135
 30
0.0
  0
VERTEX
  5
122
  8
0
 10
-48.8538223225350805
 20
209.9465343312029972
 30
0.0
  0
VERTEX
  5
123
  8
0
 10
-46.8267513479189219
 20
209.7824673758969993
 30
0.0
  0
VERTEX
  5
124
  8
0
 10
15.2100745201485896
 20
210.214634264120491
 30
0.0
  0
VERTEX
  5
125
  8
0
 10
15.3597782770615705
 20
210.2024851457715044
 30
0.0
  0
VERTEX
  5
126
  8
0
 10
15.4278224979302703
 20
210.1856644252756894
 30
0.0
  0
VERTEX
  5
127
  8
0
 10
15.4927915919486701
 20
210.1581578772425871
 30
0.0
  0
VERTEX
  5
128
  8
0
 10
15.5546061870640493
 20
210.1197925713101995
 30
0.0
  0
VERTEX
  5
129
  8
0
 10
15.6110038891879004
 20
210.0715036725111133
 30
0.0
  0
VERTEX
  5
12A
  8
0
 10
15.6592127880708993
 20
210.0154969952943134
 30
0.0
  0
VERTEX
  5
12B
  8
0
 10
15.6972647357456605
 20
209.9544945263579905
 30
0.0
  0
VERTEX
  5
12C
  8
0
 10
15.7244579333261392
 20
209.8905716991397981
 30
0.0
  0
VERTEX
  5
12D
  8
0
 10
15.7411044336531507
 20
209.8235197018769895
 30
0.0
  0
VERTEX
  5
12E
  8
0
 10
15.7472775531763904
 20
209.7477345033587994
 30
0.0
  0
VERTEX
  5
12F
  8
0
 10
15.7410557956901194
 20
209.6708467589878921
 30
0.0
  0
VERTEX
  5
130
  8
0
 10
15.7241803916323608
 20
209.6024694626395046
 30
0.0
  0
VERTEX
  5
131
  8
0
 10
15.6969872472738796
 20
209.538226050881093
 30
0.0
  0
VERTEX
  5
132
  8
0
 10
15.6593908884126307
 20
209.4777035339980102
 30
0.0
  0
VERTEX
  5
133
  8
0
 10
15.6121258652652593
 20
209.4226224589588981
 30
0.0
  0
VERTEX
  5
134
  8
0
 10
15.5569789899507906
 20
209.375301263094201
 30
0.0
  0
VERTEX
  5
135
  8
0
 10
15.4965144282035805
 20
209.3377338664330978
 30
0.0
  0
VERTEX
  5
136
  8
0
 10
15.4324045061016495
 20
209.3105984369088048
 30
0.0
  0
VERTEX
  5
137
  8
0
 10
15.3641562567512899
 20
209.2937530469282024
 30
0.0
  0
VERTEX
  5
138
  8
0
 10
15.1992379888842706
 20
209.280411164558501
 30
0.0
  0
VERTEX
  5
139
  8
0
 10
-74.8950179437699433
 20
208.6521057817037104
 30
0.0
  0
VERTEX
  5
13A
  8
0
 10
-76.9071536162657594
 20
208.4891178702382035
 30
0.0
  0
VERTEX
  5
13B
  8
0
 10
-78.9056047545892056
 20
207.9956256909669889
 30
0.0
  0
VERTEX
  5
13C
  8
0
 10
-80.7697906456565136
 20
207.2064328990385036
 30
0.0
  0
VERTEX
  5
13D
  8
0
 10
-82.4713596090838053
 20
206.1495207653721025
 30
0.0
  0
VERTEX
  5
13E
  8
0
 10
-83.9841009145856532
 20
204.8520800478320893
 30
0.0
  0
VERTEX
  5
13F
  8
0
 10
-85.2825190438363023
 20
203.3400680870796862
 30
0.0
  0
VERTEX
  5
140
  8
0
 10
-86.3404537142324244
 20
201.6388198283515862
 30
0.0
  0
VERTEX
  5
141
  8
0
 10
-87.1306065412809687
 20
199.7745059529111131
 30
0.0
  0
VERTEX
  5
142
  8
0
 10
-87.6247555998916141
 20
197.7753463585013094
 30
0.0
  0
VERTEX
  5
143
  8
0
 10
-87.7950825291656258
 20
195.6743184714325992
 30
0.0
  0
VERTEX
  5
144
  8
0
 10
-87.6250317221502826
 20
193.5732911061082007
 30
0.0
  0
VERTEX
  5
145
  8
0
 10
-87.1316121771768053
 20
191.5742707469337063
 30
0.0
  0
VERTEX
  5
146
  8
0
 10
-86.3424162438157055
 20
189.7098917778749012
 30
0.0
  0
VERTEX
  5
147
  8
0
 10
-85.285448173162294
 20
188.0084508926404965
 30
0.0
  0
VERTEX
  5
148
  8
0
 10
-83.9878545241642627
 20
186.4961466795508898
 30
0.0
  0
VERTEX
  5
149
  8
0
 10
-82.4756644250765873
 20
185.1984443734102115
 30
0.0
  0
VERTEX
  5
14A
  8
0
 10
-80.7743229866659078
 20
184.1413291017815084
 30
0.0
  0
VERTEX
  5
14B
  8
0
 10
-78.9099851384794988
 20
183.352039430844286
 30
0.0
  0
VERTEX
  5
14C
  8
0
 10
-76.9109870946794416
 20
182.8585377523992861
 30
0.0
  0
VERTEX
  5
14D
  8
0
 10
-74.8912881292982462
 20
182.6950402443357007
 30
0.0
  0
VERTEX
  5
14E
  8
0
 10
5.2803455126161838
 20
182.6583418735449129
 30
0.0
  0
VERTEX
  5
14F
  8
0
 10
5.4392233565906158
 20
182.6454907529831928
 30
0.0
  0
VERTEX
  5
150
  8
0
 10
5.5076954637213671
 20
182.628597101836192
 30
0.0
  0
VERTEX
  5
151
  8
0
 10
5.5718858666795512
 20
182.6014267469064123
 30
0.0
  0
VERTEX
  5
152
  8
0
 10
5.6323333244237519
 20
182.5638706801802869
 30
0.0
  0
VERTEX
  5
153
  8
0
 10
5.6873064034281198
 20
182.5166863804433035
 30
0.0
  0
VERTEX
  5
154
  8
0
 10
5.7345410110084307
 20
182.4616090318907027
 30
0.0
  0
VERTEX
  5
155
  8
0
 10
5.7721578364241921
 20
182.4010198935914957
 30
0.0
  0
VERTEX
  5
156
  8
0
 10
5.7993922453117541
 20
182.3366275713044899
 30
0.0
  0
VERTEX
  5
157
  8
0
 10
5.816340484479551
 20
182.2678900135346112
 30
0.0
  0
VERTEX
  5
158
  8
0
 10
5.8226288442598308
 20
182.1900954589061996
 30
0.0
  0
VERTEX
  5
159
  8
0
 10
5.8163831998564666
 20
182.1129616481802884
 30
0.0
  0
VERTEX
  5
15A
  8
0
 10
5.7995555262967091
 20
182.0448131428009901
 30
0.0
  0
VERTEX
  5
15B
  8
0
 10
5.7723766509088392
 20
181.9806207036484125
 30
0.0
  0
VERTEX
  5
15C
  8
0
 10
5.7347306520643393
 20
181.9200296320283883
 30
0.0
  0
VERTEX
  5
15D
  8
0
 10
5.6873516418925441
 20
181.8648114065113077
 30
0.0
  0
VERTEX
  5
15E
  8
0
 10
5.6321591187426812
 20
181.8174439393964121
 30
0.0
  0
VERTEX
  5
15F
  8
0
 10
5.5716200026978413
 20
181.7798235018375976
 30
0.0
  0
VERTEX
  5
160
  8
0
 10
5.5074274455263508
 20
181.7526421045891993
 30
0.0
  0
VERTEX
  5
161
  8
0
 10
5.439249739498714
 20
181.7358032696172927
 30
0.0
  0
VERTEX
  5
162
  8
0
 10
5.2426580568832728
 20
181.719887056653107
 30
0.0
  0
VERTEX
  5
163
  8
0
 10
-90.889510503530957
 20
177.9794221496678972
 30
0.0
  0
VERTEX
  5
164
  8
0
 10
-90.8977026850849512
 20
177.9791780118071927
 30
0.0
  0
VERTEX
  5
165
  8
0
 10
-90.9176970711106378
 20
177.9784617949943026
 30
0.0
  0
VERTEX
  5
166
  8
0
 10
-90.9351267742610787
 20
177.9776638686697936
 30
0.0
  0
VERTEX
  5
167
  8
0
 10
-90.9459048904924714
 20
177.9771350722024863
 30
0.0
  0
VERTEX
  5
168
  8
0
 10
-90.9569787830737653
 20
177.976554929910094
 30
0.0
  0
VERTEX
  5
169
  8
0
 10
-90.9596668583254484
 20
177.9764037552033926
 30
0.0
  0
VERTEX
  5
16A
  8
0
 10
-91.8873974563438054
 20
177.9377620266575946
 30
0.0
  0
VERTEX
  5
16B
  8
0
 10
-92.5542623424229163
 20
177.8576930035920043
 30
0.0
  0
VERTEX
  5
16C
  8
0
 10
-97.3918267737676757
 20
176.2858573690620858
 30
0.0
  0
VERTEX
  5
16D
  8
0
 10
-100.1871002065303031
 20
173.9810366130064949
 30
0.0
  0
VERTEX
  5
16E
  8
0
 10
-100.702978998892803
 20
173.423668949950212
 30
0.0
  0
VERTEX
  5
16F
  8
0
 10
-101.3371178084783963
 20
172.6206200646824129
 30
0.0
  0
VERTEX
  5
170
  8
0
 10
-101.9030726183380011
 20
171.7750117706027879
 30
0.0
  0
VERTEX
  5
171
  8
0
 10
-102.3989217634508009
 20
170.8907454301102007
 30
0.0
  0
VERTEX
  5
172
  8
0
 10
-102.8227753817400014
 20
169.9718710180704022
 30
0.0
  0
VERTEX
  5
173
  8
0
 10
-103.1729244726263062
 20
169.0224389136955097
 30
0.0
  0
VERTEX
  5
174
  8
0
 10
-103.4477259398711055
 20
168.046547738353496
 30
0.0
  0
VERTEX
  5
175
  8
0
 10
-103.6456505564606942
 20
167.0483578545434113
 30
0.0
  0
VERTEX
  5
176
  8
0
 10
-103.7653113977327024
 20
166.0320988976698118
 30
0.0
  0
VERTEX
  5
177
  8
0
 10
-103.8070948830128941
 20
164.960062110203495
 30
0.0
  0
VERTEX
  5
178
  8
0
 10
-103.6406517583068023
 20
162.9036642460168025
 30
0.0
  0
VERTEX
  5
179
  8
0
 10
-103.1478899625663956
 20
160.9068705837478888
 30
0.0
  0
VERTEX
  5
17A
  8
0
 10
-102.3598171296417974
 20
159.0442442228462028
 30
0.0
  0
VERTEX
  5
17B
  8
0
 10
-101.3044139503936947
 20
157.3440645811618879
 30
0.0
  0
VERTEX
  5
17C
  8
0
 10
-100.0088205764817957
 20
155.8324078139530116
 30
0.0
  0
VERTEX
  5
17D
  8
0
 10
-98.4989596066949389
 20
154.5346886062783938
 30
0.0
  0
VERTEX
  5
17E
  8
0
 10
-96.8002184840712374
 20
153.4768752705253121
 30
0.0
  0
VERTEX
  5
17F
  8
0
 10
-94.938634059542423
 20
152.6861302401962917
 30
0.0
  0
VERTEX
  5
180
  8
0
 10
-92.9424179006388016
 20
152.1904934209871101
 30
0.0
  0
VERTEX
  5
181
  8
0
 10
-90.9235478753840454
 20
152.0241404032898913
 30
0.0
  0
VERTEX
  5
182
  8
0
 10
-90.7639983405386062
 20
152.0241404032898913
 30
0.0
  0
VERTEX
  5
183
  8
0
 10
5.7273317804519577
 20
155.7787945805658012
 30
0.0
  0
VERTEX
  5
184
  8
0
 10
5.7710965568774153
 20
155.7752489684662862
 30
0.0
  0
VERTEX
  5
185
  8
0
 10
5.7733907931580841
 20
155.7732804912834865
 30
0.0
  0
VERTEX
  5
186
  8
0
 10
5.7752328547232512
 20
155.7711342037094084
 30
0.0
  0
VERTEX
  5
187
  8
0
 10
5.7753516244433269
 20
155.7696683379220985
 30
0.0
  0
VERTEX
  5
188
  8
0
 10
5.7752052659316711
 20
155.7678605581633917
 30
0.0
  0
VERTEX
  5
189
  8
0
 10
5.7736231542047181
 20
155.7660177168613984
 30
0.0
  0
VERTEX
  5
18A
  8
0
 10
5.7715404946621174
 20
155.7642314199680129
 30
0.0
  0
VERTEX
  5
18B
  8
0
 10
5.400829098869222
 20
155.7342395113658995
 30
0.0
  0
VERTEX
  5
18C
  8
0
 10
3.6078765182959129
 20
155.60096470029589
 30
0.0
  0
VERTEX
  5
18D
  8
0
 10
-1.8273624161313231
 20
155.1969187672575003
 30
0.0
  0
VERTEX
  5
18E
  8
0
 10
-9.8297365685424687
 20
154.6020300550017907
 30
0.0
  0
VERTEX
  5
18F
  8
0
 10
-19.5444451045576706
 20
153.8798232770458014
 30
0.0
  0
VERTEX
  5
190
  8
0
 10
-30.116663893679199
 20
153.093897830052498
 30
0.0
  0
VERTEX
  5
191
  8
0
 10
-40.6916051595541788
 20
152.3077414453400138
 30
0.0
  0
VERTEX
  5
192
  8
0
 10
-50.414429693055169
 20
151.584954007432998
 30
0.0
  0
VERTEX
  5
193
  8
0
 10
-58.4303517977250095
 20
150.9890478790964892
 30
0.0
  0
VERTEX
  5
194
  8
0
 10
-63.8845369767766087
 20
150.5835982586552007
 30
0.0
  0
VERTEX
  5
195
  8
0
 10
-65.8481897639913143
 20
150.4376423382568078
 30
0.0
  0
VERTEX
  5
196
  8
0
 10
-65.8685296314407367
 20
150.4376423382568078
 30
0.0
  0
VERTEX
  5
197
  8
0
 10
-68.2874670665531909
 20
150.2418464668591866
 30
0.0
  0
VERTEX
  5
198
  8
0
 10
-70.6649733975681329
 20
149.6549644042717944
 30
0.0
  0
VERTEX
  5
199
  8
0
 10
-72.8824137552616094
 20
148.7162588055236085
 30
0.0
  0
VERTEX
  5
19A
  8
0
 10
-74.9063778418919384
 20
147.4588236840147886
 30
0.0
  0
VERTEX
  5
19B
  8
0
 10
-76.7055836903482486
 20
145.9149405808084907
 30
0.0
  0
VERTEX
  5
19C
  8
0
 10
-78.2494640902200302
 20
144.115730928966201
 30
0.0
  0
VERTEX
  5
19D
  8
0
 10
-79.5068997999827474
 20
142.0917728542530085
 30
0.0
  0
VERTEX
  5
19E
  8
0
 10
-80.4456061653582992
 20
139.8743167551143074
 30
0.0
  0
VERTEX
  5
19F
  8
0
 10
-81.0324809817059446
 20
137.4968185229830908
 30
0.0
  0
VERTEX
  5
1A0
  8
0
 10
-81.2336489002723567
 20
135.0115127527973016
 30
0.0
  0
VERTEX
  5
1A1
  8
0
 10
-81.0985383564680831
 20
132.9796825980849064
 30
0.0
  0
VERTEX
  5
1A2
  8
0
 10
-80.7064480284529537
 20
131.0254464293537069
 30
0.0
  0
VERTEX
  5
1A3
  8
0
 10
-80.072701499233915
 20
129.1575157686552018
 30
0.0
  0
VERTEX
  5
1A4
  8
0
 10
-79.2133984652796954
 20
127.3964231483834055
 30
0.0
  0
VERTEX
  5
1A5
  8
0
 10
-78.1440294511434104
 20
125.7618051124057956
 30
0.0
  0
VERTEX
  5
1A6
  8
0
 10
-76.879427570535583
 20
124.2731531098213935
 30
0.0
  0
VERTEX
  5
1A7
  8
0
 10
-75.4340677822756192
 20
122.9502496257985058
 30
0.0
  0
VERTEX
  5
1A8
  8
0
 10
-73.8223816502473227
 20
121.8135428142173993
 30
0.0
  0
VERTEX
  5
1A9
  8
0
 10
-73.6806881286251496
 20
121.7388551293092007
 30
0.0
  0
VERTEX
  5
1AA
  8
0
 10
-73.8222440605802745
 20
121.6642567569897011
 30
0.0
  0
VERTEX
  5
1AB
  8
0
 10
-75.4339736092192084
 20
120.5276863787598955
 30
0.0
  0
VERTEX
  5
1AC
  8
0
 10
-76.8793662921725911
 20
119.2048918265638946
 30
0.0
  0
VERTEX
  5
1AD
  8
0
 10
-78.143996565080883
 20
117.7163175502071937
 30
0.0
  0
VERTEX
  5
1AE
  8
0
 10
-79.2133864799784533
 20
116.0817370318701052
 30
0.0
  0
VERTEX
  5
1AF
  8
0
 10
-80.0726994929652562
 20
114.320651765797507
 30
0.0
  0
VERTEX
  5
1B0
  8
0
 10
-80.7064493589958118
 20
112.4527112700430962
 30
0.0
  0
VERTEX
  5
1B1
  8
0
 10
-81.0985392633893127
 20
110.4984354046465
 30
0.0
  0
VERTEX
  5
1B2
  8
0
 10
-81.2308691910433254
 20
108.5083247085243983
 30
0.0
  0
VERTEX
  5
1B3
  8
0
 10
-81.1819712611701334
 20
107.2558563973458945
 30
0.0
  0
VERTEX
  5
1B4
  8
0
 10
-81.0394189545214658
 20
106.0475585422978071
 30
0.0
  0
VERTEX
  5
1B5
  8
0
 10
-80.8037273860300047
 20
104.8609762851187952
 30
0.0
  0
VERTEX
  5
1B6
  8
0
 10
-80.4765936016268597
 20
103.7009381761033069
 30
0.0
  0
VERTEX
  5
1B7
  8
0
 10
-80.0598370170376654
 20
102.5722985088650034
 30
0.0
  0
VERTEX
  5
1B8
  8
0
 10
-79.5553993873843694
 20
101.4798265070204053
 30
0.0
  0
VERTEX
  5
1B9
  8
0
 10
-78.9653215115862821
 20
100.4282538084009957
 30
0.0
  0
VERTEX
  5
1BA
  8
0
 10
-78.2917658247824164
 20
99.422258952410715
 30
0.0
  0
VERTEX
  5
1BB
  8
0
 10
-77.5369767170101341
 20
98.4664396734984848
 30
0.0
  0
VERTEX
  5
1BC
  8
0
 10
-76.7032543948955521
 20
97.5652753589754127
 30
0.0
  0
VERTEX
  5
1BD
  8
0
 10
-75.8019494629462258
 20
96.7316159859315405
 30
0.0
  0
VERTEX
  5
1BE
  8
0
 10
-74.8460928499191454
 20
95.9768767795288085
 30
0.0
  0
VERTEX
  5
1BF
  8
0
 10
-73.8400964040573484
 20
95.3033572987179269
 30
0.0
  0
VERTEX
  5
1C0
  8
0
 10
-72.7885629451895539
 20
94.7132905686730595
 30
0.0
  0
VERTEX
  5
1C1
  8
0
 10
-71.6961452000583108
 20
94.2088624361570339
 30
0.0
  0
VERTEX
  5
1C2
  8
0
 10
-70.5675753201679754
 20
93.792105886014312
 30
0.0
  0
VERTEX
  5
1C3
  8
0
 10
-69.407612636731713
 20
93.4649678298181357
 30
0.0
  0
VERTEX
  5
1C4
  8
0
 10
-68.2210656818063086
 20
93.229263865762249
 30
0.0
  0
VERTEX
  5
1C5
  8
0
 10
-67.0128131953774471
 20
93.086716481874106
 30
0.0
  0
VERTEX
  5
1C6
  8
0
 10
-65.8719057248697197
 20
93.0421665522560914
 30
0.0
  0
VERTEX
  5
1C7
  8
0
 10
-63.8845376859666203
 20
92.8944301868559279
 30
0.0
  0
VERTEX
  5
1C8
  8
0
 10
-58.4303679240376468
 20
92.4889211542768663
 30
0.0
  0
VERTEX
  5
1C9
  8
0
 10
-50.4144497753697678
 20
91.8929426500625368
 30
0.0
  0
VERTEX
  5
1CA
  8
0
 10
-40.6916187220544785
 20
91.1700520034323461
 30
0.0
  0
VERTEX
  5
1CB
  8
0
 10
-30.1166874536017417
 20
90.3837992435389879
 30
0.0
  0
VERTEX
  5
1CC
  8
0
 10
-19.5444579855919685
 20
89.5977581669450558
 30
0.0
  0
VERTEX
  5
1CD
  8
0
 10
-9.8297589758173167
 20
88.8754670904436068
 30
0.0
  0
VERTEX
  5
1CE
  8
0
 10
-1.827383691781054
 20
88.280493610878807
 30
0.0
  0
VERTEX
  5
1CF
  8
0
 10
3.6078446853778252
 20
87.8763938053525351
 30
0.0
  0
VERTEX
  5
1D0
  8
0
 10
5.3996042228091312
 20
87.7431915577120947
 30
0.0
  0
VERTEX
  5
1D1
  8
0
 10
5.771609200162561
 20
87.7130949936276352
 30
0.0
  0
VERTEX
  5
1D2
  8
0
 10
5.77165166126722
 20
87.7130686313194445
 30
0.0
  0
VERTEX
  5
1D3
  8
0
 10
5.7737999842106191
 20
87.7112265142272918
 30
0.0
  0
VERTEX
  5
1D4
  8
0
 10
5.7752498914779418
 20
87.7095380635018671
 30
0.0
  0
VERTEX
  5
1D5
  8
0
 10
5.7753513823335911
 20
87.7082851753837787
 30
0.0
  0
VERTEX
  5
1D6
  8
0
 10
5.7752155531788141
 20
87.7066078877584658
 30
0.0
  0
VERTEX
  5
1D7
  8
0
 10
5.773545214771473
 20
87.7046620791002454
 30
0.0
  0
VERTEX
  5
1D8
  8
0
 10
5.7713847034509849
 20
87.7028087855769201
 30
0.0
  0
VERTEX
  5
1D9
  8
0
 10
5.7273992254279893
 20
87.6992485640527235
 30
0.0
  0
VERTEX
  5
1DA
  8
0
 10
-90.7618975133934924
 20
91.4531855130005198
 30
0.0
  0
VERTEX
  5
1DB
  8
0
 10
-90.923530921789407
 20
91.4531855130005198
 30
0.0
  0
VERTEX
  5
1DC
  8
0
 10
-92.9423742249109779
 20
91.2868691155417622
 30
0.0
  0
VERTEX
  5
1DD
  8
0
 10
-94.9385675981406365
 20
90.7912953251033343
 30
0.0
  0
VERTEX
  5
1DE
  8
0
 10
-96.8001344896005946
 20
90.000650938926924
 30
0.0
  0
VERTEX
  5
1DF
  8
0
 10
-98.498880694054435
 20
88.942956170013133
 30
0.0
  0
VERTEX
  5
1E0
  8
0
 10
-100.0087599545297934
 20
87.6453428675511077
 30
0.0
  0
VERTEX
  5
1E1
  8
0
 10
-101.3043743469307003
 20
86.1337832037057041
 30
0.0
  0
VERTEX
  5
1E2
  8
0
 10
-102.3597957812768016
 20
84.4336815676366541
 30
0.0
  0
VERTEX
  5
1E3
  8
0
 10
-103.1478826830346947
 20
82.5711223251615252
 30
0.0
  0
VERTEX
  5
1E4
  8
0
 10
-103.640650951497193
 20
80.5743598083325452
 30
0.0
  0
VERTEX
  5
1E5
  8
0
 10
-103.8070950131323968
 20
78.5179784152815188
 30
0.0
  0
VERTEX
  5
1E6
  8
0
 10
-103.7653110803038032
 20
77.4459598528275706
 30
0.0
  0
VERTEX
  5
1E7
  8
0
 10
-103.6456481592219063
 20
76.4297261429277199
 30
0.0
  0
VERTEX
  5
1E8
  8
0
 10
-103.4477203568985004
 20
75.4315846594904542
 30
0.0
  0
VERTEX
  5
1E9
  8
0
 10
-103.1729184916499946
 20
74.4557350925528567
 30
0.0
  0
VERTEX
  5
1EA
  8
0
 10
-102.8227774389689984
 20
73.5063463049324639
 30
0.0
  0
VERTEX
  5
1EB
  8
0
 10
-102.3989478878023931
 20
72.5874881996149384
 30
0.0
  0
VERTEX
  5
1EC
  8
0
 10
-101.9031513257562978
 20
71.7032224228057231
 30
0.0
  0
VERTEX
  5
1ED
  8
0
 10
-101.337282266132604
 20
70.8575416994272871
 30
0.0
  0
VERTEX
  5
1EE
  8
0
 10
-100.7032717956183063
 20
70.0543692771733788
 30
0.0
  0
VERTEX
  5
1EF
  8
0
 10
-100.187687001085493
 20
69.4970038914490544
 30
0.0
  0
VERTEX
  5
1F0
  8
0
 10
-97.7360959725990455
 20
67.5795832374328427
 30
0.0
  0
VERTEX
  5
1F1
  8
0
 10
-92.1006752124271486
 20
65.5656310253645103
 30
0.0
  0
VERTEX
  5
1F2
  8
0
 10
-91.8867921883751535
 20
65.5399839259742407
 30
0.0
  0
VERTEX
  5
1F3
  8
0
 10
-90.9592939460007983
 20
65.5016153689135052
 30
0.0
  0
VERTEX
  5
1F4
  8
0
 10
-90.9573131150105638
 20
65.5015074501777121
 30
0.0
  0
VERTEX
  5
1F5
  8
0
 10
-90.9474387582660739
 20
65.500974631117117
 30
0.0
  0
VERTEX
  5
1F6
  8
0
 10
-90.933701495481003
 20
65.5003006528563958
 30
0.0
  0
VERTEX
  5
1F7
  8
0
 10
-90.9207354731562276
 20
65.4997256218235009
 30
0.0
  0
VERTEX
  5
1F8
  8
0
 10
-90.902169627459287
 20
65.4989774459516809
 30
0.0
  0
VERTEX
  5
1F9
  8
0
 10
-90.8881926846427461
 20
65.4985609145436172
 30
0.0
  0
VERTEX
  5
1FA
  8
0
 10
5.242680951746852
 20
61.7574503832393518
 30
0.0
  0
VERTEX
  5
1FB
  8
0
 10
5.4394301327845076
 20
61.7415273849866608
 30
0.0
  0
VERTEX
  5
1FC
  8
0
 10
5.507694496384933
 20
61.7246780512456468
 30
0.0
  0
VERTEX
  5
1FD
  8
0
 10
5.5718818683734108
 20
61.6975087409259899
 30
0.0
  0
VERTEX
  5
1FE
  8
0
 10
5.6323865288105601
 20
61.6599233221195604
 30
0.0
  0
VERTEX
  5
1FF
  8
0
 10
5.687486672146135
 20
61.6126467453237225
 30
0.0
  0
VERTEX
  5
200
  8
0
 10
5.734774820612766
 20
61.557542541875172
 30
0.0
  0
VERTEX
  5
201
  8
0
 10
5.7723580721944669
 20
61.4970535953667792
 30
0.0
  0
VERTEX
  5
202
  8
0
 10
5.7995179141162536
 20
61.4328987458277993
 30
0.0
  0
VERTEX
  5
203
  8
0
 10
5.816369668956022
 20
61.3646314479550909
 30
0.0
  0
VERTEX
  5
204
  8
0
 10
5.8226246864115794
 20
61.2873514233137513
 30
0.0
  0
VERTEX
  5
205
  8
0
 10
5.8163576083706392
 20
61.2099000918845277
 30
0.0
  0
VERTEX
  5
206
  8
0
 10
5.7994513565485919
 20
61.1413885130664809
 30
0.0
  0
VERTEX
  5
207
  8
0
 10
5.7722064087472003
 20
61.0770069650217025
 30
0.0
  0
VERTEX
  5
208
  8
0
 10
5.7345268720750111
 20
61.0163369098949815
 30
0.0
  0
VERTEX
  5
209
  8
0
 10
5.6871452008941592
 20
60.9610981344855318
 30
0.0
  0
VERTEX
  5
20A
  8
0
 10
5.6319832969671602
 20
60.9137441624966698
 30
0.0
  0
VERTEX
  5
20B
  8
0
 10
5.5714828933895246
 20
60.8761409786470509
 30
0.0
  0
VERTEX
  5
20C
  8
0
 10
5.5073565620116396
 20
60.8489821337773691
 30
0.0
  0
VERTEX
  5
20D
  8
0
 10
5.4392350283873991
 20
60.8321571725170713
 30
0.0
  0
VERTEX
  5
20E
  8
0
 10
5.2809718212373014
 20
60.8193416627786831
 30
0.0
  0
VERTEX
  5
20F
  8
0
 10
-74.8912881667546344
 20
60.783006680299458
 30
0.0
  0
VERTEX
  5
210
  8
0
 10
-76.9108259306674569
 20
60.619512954732599
 30
0.0
  0
VERTEX
  5
211
  8
0
 10
-78.9097395067426248
 20
60.1260109741673006
 30
0.0
  0
VERTEX
  5
212
  8
0
 10
-80.7740221989199938
 20
59.3367049356556393
 30
0.0
  0
VERTEX
  5
213
  8
0
 10
-82.4753439088471225
 20
58.2796206939605383
 30
0.0
  0
VERTEX
  5
214
  8
0
 10
-83.9875718326106266
 20
56.9819217542529373
 30
0.0
  0
VERTEX
  5
215
  8
0
 10
-85.2852066564343829
 20
55.4696231384100287
 30
0.0
  0
VERTEX
  5
216
  8
0
 10
-86.3422499478627685
 20
53.7682138186005716
 30
0.0
  0
VERTEX
  5
217
  8
0
 10
-87.1315215321925649
 20
51.9038254938891015
 30
0.0
  0
VERTEX
  5
218
  8
0
 10
-87.6250021429134733
 20
49.9047793977901506
 30
0.0
  0
VERTEX
  5
219
  8
0
 10
-87.7950731098818551
 20
47.8038564625497671
 30
0.0
  0
VERTEX
  5
21A
  8
0
 10
-87.6250309153789146
 20
45.7029605429889614
 30
0.0
  0
VERTEX
  5
21B
  8
0
 10
-87.1316050702531868
 20
43.7039756135820596
 30
0.0
  0
VERTEX
  5
21C
  8
0
 10
-86.3423937791278462
 20
41.8396535629367889
 30
0.0
  0
VERTEX
  5
21D
  8
0
 10
-85.2854073287395096
 20
40.1383084130653174
 30
0.0
  0
VERTEX
  5
21E
  8
0
 10
-83.9877983305030114
 20
38.6260972164544469
 30
0.0
  0
VERTEX
  5
21F
  8
0
 10
-82.475585484738815
 20
37.3284898729876602
 30
0.0
  0
VERTEX
  5
220
  8
0
 10
-80.774243122338234
 20
36.2715029298382419
 30
0.0
  0
VERTEX
  5
221
  8
0
 10
-78.9099203851605893
 20
35.4822949326759769
 30
0.0
  0
VERTEX
  5
222
  8
0
 10
-76.9109399740879383
 20
34.9888693178032568
 30
0.0
  0
VERTEX
  5
223
  8
0
 10
-74.8977751857614749
 20
34.8259281780001118
 30
0.0
  0
VERTEX
  5
224
  8
0
 10
15.2440789229996199
 20
34.1973362790051567
 30
0.0
  0
VERTEX
  5
225
  8
0
 10
15.3311608071312797
 20
34.193963431575618
 30
0.0
  0
VERTEX
  5
226
  8
0
 10
15.3686924407781795
 20
34.1895583558026033
 30
0.0
  0
VERTEX
  5
227
  8
0
 10
15.4030526690801892
 20
34.1827529831008192
 30
0.0
  0
VERTEX
  5
228
  8
0
 10
15.4350369009749304
 20
34.1737422602779333
 30
0.0
  0
VERTEX
  5
229
  8
0
 10
15.4654274170448094
 20
34.1625155572354373
 30
0.0
  0
VERTEX
  5
22A
  8
0
 10
15.4949303723991196
 20
34.1488738871718311
 30
0.0
  0
VERTEX
  5
22B
  8
0
 10
15.5241560578565299
 20
34.1324441949783974
 30
0.0
  0
VERTEX
  5
22C
  8
0
 10
15.5535591626607506
 20
34.1127238656094178
 30
0.0
  0
VERTEX
  5
22D
  8
0
 10
15.5834993575456906
 20
34.0890569112390196
 30
0.0
  0
VERTEX
  5
22E
  8
0
 10
15.6127479015099997
 20
34.0620107055673031
 30
0.0
  0
VERTEX
  5
22F
  8
0
 10
15.6406784743084994
 20
34.0317881442081216
 30
0.0
  0
VERTEX
  5
230
  8
0
 10
15.6651719268355691
 20
34.0007605521416423
 30
0.0
  0
VERTEX
  5
231
  8
0
 10
15.6859549315877906
 20
33.9697289376485827
 30
0.0
  0
VERTEX
  5
232
  8
0
 10
15.7034585616183406
 20
33.9385611726667875
 30
0.0
  0
VERTEX
  5
233
  8
0
 10
15.7180612016032093
 20
33.9069730408588299
 30
0.0
  0
VERTEX
  5
234
  8
0
 10
15.7300131472008307
 20
33.8746555750760265
 30
0.0
  0
VERTEX
  5
235
  8
0
 10
15.7394514082623793
 20
33.8412468888072127
 30
0.0
  0
VERTEX
  5
236
  8
0
 10
15.7464064183291903
 20
33.8063027213838296
 30
0.0
  0
VERTEX
  5
237
  8
0
 10
15.7506238129459692
 20
33.7706288566798634
 30
0.0
  0
VERTEX
  5
238
  8
0
 10
15.7410603755925909
 20
33.6524665189623207
 30
0.0
  0
VERTEX
  5
239
  8
0
 10
15.7241795655494201
 20
33.5840711409216581
 30
0.0
  0
VERTEX
  5
23A
  8
0
 10
15.6969577475029496
 20
33.519755584321409
 30
0.0
  0
VERTEX
  5
23B
  8
0
 10
15.6592860876101501
 20
33.4591061663841032
 30
0.0
  0
VERTEX
  5
23C
  8
0
 10
15.6119154195203205
 20
33.4038856945898388
 30
0.0
  0
VERTEX
  5
23D
  8
0
 10
15.5567463444318506
 20
33.3565309212700427
 30
0.0
  0
VERTEX
  5
23E
  8
0
 10
15.4962156165084792
 20
33.3189110704624269
 30
0.0
  0
VERTEX
  5
23F
  8
0
 10
15.43208748410642
 20
33.291752560844678
 30
0.0
  0
VERTEX
  5
240
  8
0
 10
15.3639543737989595
 20
33.274926339227342
 30
0.0
  0
VERTEX
  5
241
  8
0
 10
15.2130946350827099
 20
33.2627103553514729
 30
0.0
  0
VERTEX
  5
242
  8
0
 10
-46.828897228335137
 20
33.6962747505795974
 30
0.0
  0
VERTEX
  5
243
  8
0
 10
-48.8573306184266372
 20
33.5319806417342576
 30
0.0
  0
VERTEX
  5
244
  8
0
 10
-50.8569663251991599
 20
33.0383353213763797
 30
0.0
  0
VERTEX
  5
245
  8
0
 10
-52.7215156383603585
 20
32.2488567439266731
 30
0.0
  0
VERTEX
  5
246
  8
0
 10
-54.4226778501598432
 20
31.1915391642833484
 30
0.0
  0
VERTEX
  5
247
  8
0
 10
-55.9343501012238704
 20
29.8936042307665808
 30
0.0
  0
VERTEX
  5
248
  8
0
 10
-57.2311585843782922
 20
28.3811285250909791
 30
0.0
  0
VERTEX
  5
249
  8
0
 10
-58.2871816568355996
 20
26.6796692956169288
 30
0.0
  0
VERTEX
  5
24A
  8
0
 10
-59.0754629899762023
 20
24.8154558823087612
 30
0.0
  0
VERTEX
  5
24B
  8
0
 10
-59.5681760263675528
 20
22.8168300570660101
 30
0.0
  0
VERTEX
  5
24C
  8
0
 10
-59.737945746343641
 20
20.7164116460126415
 30
0.0
  0
VERTEX
  5
24D
  8
0
 10
-59.5679135485882227
 20
18.6156392377141309
 30
0.0
  0
VERTEX
  5
24E
  8
0
 10
-59.0744885726728981
 20
16.6166578296842999
 30
0.0
  0
VERTEX
  5
24F
  8
0
 10
-58.2852831913024616
 20
14.7523310116418909
 30
0.0
  0
VERTEX
  5
250
  8
0
 10
-57.2282876634504305
 20
13.0509827774211402
 30
0.0
  0
VERTEX
  5
251
  8
0
 10
-55.9306818255552329
 20
11.5387770526121205
 30
0.0
  0
VERTEX
  5
252
  8
0
 10
-54.4184758798248325
 20
10.2411703845999806
 30
0.0
  0
VERTEX
  5
253
  8
0
 10
-52.7171315699946135
 20
9.1841822315780774
 30
0.0
  0
VERTEX
  5
254
  8
0
 10
-50.8528057752764866
 20
8.3949735613790466
 30
0.0
  0
VERTEX
  5
255
  8
0
 10
-48.8538223333840378
 20
7.9015471870477318
 30
0.0
  0
VERTEX
  5
256
  8
0
 10
-46.8337031958433272
 20
7.7380437588882236
 30
0.0
  0
VERTEX
  5
257
  8
0
 10
204.1011303448487126
 20
7.7380437588882236
 30
0.0
  0
VERTEX
  5
258
  8
0
 10
204.1011303448487126
 20
235.7392854037917118
 30
0.0
  0
SEQEND
  5
110
  8
0
  0
ENDSEC
  0
EOF
