  0
SECTION
  2
HEADER
  9
$ACADVER
  1
AC1009
  9
$INSBASE
 10
0.0
 20
0.0
 30
0.0
  9
$EXTMIN
 10
0.344222187995911
 20
5.5439305305480993
 30
0.0
  9
$EXTMAX
 10
7.927386760711669
 20
11.2863397598266992
 30
0.0
  9
$LIMMIN
 10
0.0
 20
0.0
  9
$LIMMAX
 10
12.0
 20
9.0
  9
$ORTHOMODE
 70
     0
  9
$REGENMODE
 70
     1
  9
$FILLMODE
 70
     1
  9
$QTEXTMODE
 70
     0
  9
$MIRRTEXT
 70
     0
  9
$DRAGMODE
 70
     2
  9
$LTSCALE
 40
1.0
  9
$OSMODE
 70
    37
  9
$ATTMODE
 70
     1
  9
$TEXTSIZE
 40
0.2
  9
$TRACEWID
 40
0.05
  9
$TEXTSTYLE
  7
STANDARD
  9
$CLAYER
  8
0
  9
$CELTYPE
  6
BYLAYER
  9
$CECOLOR
 62
   256
  9
$DIMSCALE
 40
1.0
  9
$DIMASZ
 40
0.18
  9
$DIMEXO
 40
0.0625
  9
$DIMDLI
 40
0.38
  9
$DIMRND
 40
0.0
  9
$DIMDLE
 40
0.0
  9
$DIMEXE
 40
0.18
  9
$DIMTP
 40
0.0
  9
$DIMTM
 40
0.0
  9
$DIMTXT
 40
0.18
  9
$DIMCEN
 40
0.09
  9
$DIMTSZ
 40
0.0
  9
$DIMTOL
 70
     0
  9
$DIMLIM
 70
     0
  9
$DIMTIH
 70
     1
  9
$DIMTOH
 70
     1
  9
$DIMSE1
 70
     0
  9
$DIMSE2
 70
     0
  9
$DIMTAD
 70
     0
  9
$DIMZIN
 70
     0
  9
$DIMBLK
  1

  9
$DIMASO
 70
     1
  9
$DIMSHO
 70
     1
  9
$DIMPOST
  1

  9
$DIMAPOST
  1

  9
$DIMALT
 70
     0
  9
$DIMALTD
 70
     2
  9
$DIMALTF
 40
25.3999999999999986
  9
$DIMLFAC
 40
1.0
  9
$DIMTOFL
 70
     0
  9
$DIMTVP
 40
0.0
  9
$DIMTIX
 70
     0
  9
$DIMSOXD
 70
     0
  9
$DIMSAH
 70
     0
  9
$DIMBLK1
  1

  9
$DIMBLK2
  1

  9
$DIMSTYLE
  2
STANDARD
  9
$DIMCLRD
 70
     0
  9
$DIMCLRE
 70
     0
  9
$DIMCLRT
 70
     0
  9
$DIMTFAC
 40
1.0
  9
$DIMGAP
 40
0.09
  9
$LUNITS
 70
     2
  9
$LUPREC
 70
     4
  9
$SKETCHINC
 40
0.1
  9
$FILLETRAD
 40
0.0
  9
$AUNITS
 70
     0
  9
$AUPREC
 70
     0
  9
$MENU
  1
.
  9
$ELEVATION
 40
0.0
  9
$PELEVATION
 40
0.0
  9
$THICKNESS
 40
0.0
  9
$LIMCHECK
 70
     0
  9
$BLIPMODE
 70
     0
  9
$CHAMFERA
 40
0.0
  9
$CHAMFERB
 40
0.0
  9
$SKPOLY
 70
     0
  9
$TDCREATE
 40
2459555.9995138891972601
  9
$TDUPDATE
 40
2459556.9837615741416812
  9
$TDINDWG
 40
0.0011574074
  9
$TDUSRTIMER
 40
0.0011574074
  9
$USRTIMER
 70
     1
  9
$ANGBASE
 50
0.0
  9
$ANGDIR
 70
     0
  9
$PDMODE
 70
     0
  9
$PDSIZE
 40
0.0
  9
$PLINEWID
 40
0.0
  9
$COORDS
 70
     1
  9
$SPLFRAME
 70
     0
  9
$SPLINETYPE
 70
     6
  9
$SPLINESEGS
 70
     8
  9
$ATTDIA
 70
     1
  9
$ATTREQ
 70
     1
  9
$HANDLING
 70
     1
  9
$HANDSEED
  5
E3F
  9
$SURFTAB1
 70
     6
  9
$SURFTAB2
 70
     6
  9
$SURFTYPE
 70
     6
  9
$SURFU
 70
     6
  9
$SURFV
 70
     6
  9
$UCSNAME
  2

  9
$UCSORG
 10
0.0
 20
0.0
 30
0.0
  9
$UCSXDIR
 10
1.0
 20
0.0
 30
0.0
  9
$UCSYDIR
 10
0.0
 20
1.0
 30
0.0
  9
$PUCSNAME
  2

  9
$PUCSORG
 10
0.0
 20
0.0
 30
0.0
  9
$PUCSXDIR
 10
1.0
 20
0.0
 30
0.0
  9
$PUCSYDIR
 10
0.0
 20
1.0
 30
0.0
  9
$USERI1
 70
     0
  9
$USERI2
 70
     0
  9
$USERI3
 70
     0
  9
$USERI4
 70
     0
  9
$USERI5
 70
     0
  9
$USERR1
 40
0.0
  9
$USERR2
 40
0.0
  9
$USERR3
 40
0.0
  9
$USERR4
 40
0.0
  9
$USERR5
 40
0.0
  9
$WORLDVIEW
 70
     1
  9
$SHADEDGE
 70
     3
  9
$SHADEDIF
 70
    70
  9
$TILEMODE
 70
     1
  9
$MAXACTVP
 70
    64
  9
$PLIMCHECK
 70
     0
  9
$PEXTMIN
 10
1.0000000000000000E+20
 20
1.0000000000000000E+20
 30
1.0000000000000000E+20
  9
$PEXTMAX
 10
-1.0000000000000000E+20
 20
-1.0000000000000000E+20
 30
-1.0000000000000000E+20
  9
$PLIMMIN
 10
0.0
 20
0.0
  9
$PLIMMAX
 10
12.0
 20
9.0
  9
$UNITMODE
 70
     0
  9
$VISRETAIN
 70
     1
  9
$PLINEGEN
 70
     0
  9
$PSLTSCALE
 70
     1
  0
ENDSEC
  0
SECTION
  2
TABLES
  0
TABLE
  2
VPORT
 70
     1
  0
VPORT
  2
*ACTIVE
 70
     0
 10
0.0
 20
0.0
 11
1.0
 21
1.0
 12
14.7879057257703206
 22
8.1796729904434269
 13
0.0
 23
0.0
 14
1.0
 24
1.0
 15
0.0
 25
0.0
 16
0.0
 26
0.0
 36
1.0
 17
0.0
 27
0.0
 37
0.0
 40
19.9974280333752006
 41
2.1475869809203139
 42
50.0
 43
0.0
 44
0.0
 50
0.0
 51
0.0
 71
     0
 72
   100
 73
     1
 74
     1
 75
     0
 76
     0
 77
     0
 78
     0
  0
ENDTAB
  0
TABLE
  2
LTYPE
 70
     2
  0
LTYPE
  2
CONTINUOUS
 70
     0
  3
Solid line
 72
    65
 73
     0
 40
0.0
  0
LTYPE
  2
AUSGEZOGEN
 70
     0
  3
Ausgezogenen Linie
 72
    65
 73
     0
 40
0.0
  0
ENDTAB
  0
TABLE
  2
LAYER
 70
   256
  0
LAYER
  2
0
 70
     0
 62
     7
  6
AUSGEZOGEN
  0
LAYER
  2
1
 70
     0
 62
     1
  6
AUSGEZOGEN
  0
LAYER
  2
2
 70
     0
 62
     2
  6
AUSGEZOGEN
  0
LAYER
  2
3
 70
     0
 62
     3
  6
AUSGEZOGEN
  0
LAYER
  2
4
 70
     0
 62
     4
  6
AUSGEZOGEN
  0
LAYER
  2
5
 70
     0
 62
     5
  6
AUSGEZOGEN
  0
LAYER
  2
6
 70
     0
 62
     6
  6
AUSGEZOGEN
  0
LAYER
  2
7
 70
     0
 62
     7
  6
AUSGEZOGEN
  0
LAYER
  2
8
 70
     0
 62
     8
  6
AUSGEZOGEN
  0
LAYER
  2
9
 70
     0
 62
     9
  6
AUSGEZOGEN
  0
LAYER
  2
10
 70
     0
 62
    10
  6
AUSGEZOGEN
  0
LAYER
  2
11
 70
     0
 62
    11
  6
AUSGEZOGEN
  0
LAYER
  2
12
 70
     0
 62
    12
  6
AUSGEZOGEN
  0
LAYER
  2
13
 70
     0
 62
    13
  6
AUSGEZOGEN
  0
LAYER
  2
14
 70
     0
 62
    14
  6
AUSGEZOGEN
  0
LAYER
  2
15
 70
     0
 62
    15
  6
AUSGEZOGEN
  0
LAYER
  2
16
 70
     0
 62
    16
  6
AUSGEZOGEN
  0
LAYER
  2
17
 70
     0
 62
    17
  6
AUSGEZOGEN
  0
LAYER
  2
18
 70
     0
 62
    18
  6
AUSGEZOGEN
  0
LAYER
  2
19
 70
     0
 62
    19
  6
AUSGEZOGEN
  0
LAYER
  2
20
 70
     0
 62
    20
  6
AUSGEZOGEN
  0
LAYER
  2
21
 70
     0
 62
    21
  6
AUSGEZOGEN
  0
LAYER
  2
22
 70
     0
 62
    22
  6
AUSGEZOGEN
  0
LAYER
  2
23
 70
     0
 62
    23
  6
AUSGEZOGEN
  0
LAYER
  2
24
 70
     0
 62
    24
  6
AUSGEZOGEN
  0
LAYER
  2
25
 70
     0
 62
    25
  6
AUSGEZOGEN
  0
LAYER
  2
26
 70
     0
 62
    26
  6
AUSGEZOGEN
  0
LAYER
  2
27
 70
     0
 62
    27
  6
AUSGEZOGEN
  0
LAYER
  2
28
 70
     0
 62
    28
  6
AUSGEZOGEN
  0
LAYER
  2
29
 70
     0
 62
    29
  6
AUSGEZOGEN
  0
LAYER
  2
30
 70
     0
 62
    30
  6
AUSGEZOGEN
  0
LAYER
  2
31
 70
     0
 62
    31
  6
AUSGEZOGEN
  0
LAYER
  2
32
 70
     0
 62
    32
  6
AUSGEZOGEN
  0
LAYER
  2
33
 70
     0
 62
    33
  6
AUSGEZOGEN
  0
LAYER
  2
34
 70
     0
 62
    34
  6
AUSGEZOGEN
  0
LAYER
  2
35
 70
     0
 62
    35
  6
AUSGEZOGEN
  0
LAYER
  2
36
 70
     0
 62
    36
  6
AUSGEZOGEN
  0
LAYER
  2
37
 70
     0
 62
    37
  6
AUSGEZOGEN
  0
LAYER
  2
38
 70
     0
 62
    38
  6
AUSGEZOGEN
  0
LAYER
  2
39
 70
     0
 62
    39
  6
AUSGEZOGEN
  0
LAYER
  2
40
 70
     0
 62
    40
  6
AUSGEZOGEN
  0
LAYER
  2
41
 70
     0
 62
    41
  6
AUSGEZOGEN
  0
LAYER
  2
42
 70
     0
 62
    42
  6
AUSGEZOGEN
  0
LAYER
  2
43
 70
     0
 62
    43
  6
AUSGEZOGEN
  0
LAYER
  2
44
 70
     0
 62
    44
  6
AUSGEZOGEN
  0
LAYER
  2
45
 70
     0
 62
    45
  6
AUSGEZOGEN
  0
LAYER
  2
46
 70
     0
 62
    46
  6
AUSGEZOGEN
  0
LAYER
  2
47
 70
     0
 62
    47
  6
AUSGEZOGEN
  0
LAYER
  2
48
 70
     0
 62
    48
  6
AUSGEZOGEN
  0
LAYER
  2
49
 70
     0
 62
    49
  6
AUSGEZOGEN
  0
LAYER
  2
50
 70
     0
 62
    50
  6
AUSGEZOGEN
  0
LAYER
  2
51
 70
     0
 62
    51
  6
AUSGEZOGEN
  0
LAYER
  2
52
 70
     0
 62
    52
  6
AUSGEZOGEN
  0
LAYER
  2
53
 70
     0
 62
    53
  6
AUSGEZOGEN
  0
LAYER
  2
54
 70
     0
 62
    54
  6
AUSGEZOGEN
  0
LAYER
  2
55
 70
     0
 62
    55
  6
AUSGEZOGEN
  0
LAYER
  2
56
 70
     0
 62
    56
  6
AUSGEZOGEN
  0
LAYER
  2
57
 70
     0
 62
    57
  6
AUSGEZOGEN
  0
LAYER
  2
58
 70
     0
 62
    58
  6
AUSGEZOGEN
  0
LAYER
  2
59
 70
     0
 62
    59
  6
AUSGEZOGEN
  0
LAYER
  2
60
 70
     0
 62
    60
  6
AUSGEZOGEN
  0
LAYER
  2
61
 70
     0
 62
    61
  6
AUSGEZOGEN
  0
LAYER
  2
62
 70
     0
 62
    62
  6
AUSGEZOGEN
  0
LAYER
  2
63
 70
     0
 62
    63
  6
AUSGEZOGEN
  0
LAYER
  2
64
 70
     0
 62
    64
  6
AUSGEZOGEN
  0
LAYER
  2
65
 70
     0
 62
    65
  6
AUSGEZOGEN
  0
LAYER
  2
66
 70
     0
 62
    66
  6
AUSGEZOGEN
  0
LAYER
  2
67
 70
     0
 62
    67
  6
AUSGEZOGEN
  0
LAYER
  2
68
 70
     0
 62
    68
  6
AUSGEZOGEN
  0
LAYER
  2
69
 70
     0
 62
    69
  6
AUSGEZOGEN
  0
LAYER
  2
70
 70
     0
 62
    70
  6
AUSGEZOGEN
  0
LAYER
  2
71
 70
     0
 62
    71
  6
AUSGEZOGEN
  0
LAYER
  2
72
 70
     0
 62
    72
  6
AUSGEZOGEN
  0
LAYER
  2
73
 70
     0
 62
    73
  6
AUSGEZOGEN
  0
LAYER
  2
74
 70
     0
 62
    74
  6
AUSGEZOGEN
  0
LAYER
  2
75
 70
     0
 62
    75
  6
AUSGEZOGEN
  0
LAYER
  2
76
 70
     0
 62
    76
  6
AUSGEZOGEN
  0
LAYER
  2
77
 70
     0
 62
    77
  6
AUSGEZOGEN
  0
LAYER
  2
78
 70
     0
 62
    78
  6
AUSGEZOGEN
  0
LAYER
  2
79
 70
     0
 62
    79
  6
AUSGEZOGEN
  0
LAYER
  2
80
 70
     0
 62
    80
  6
AUSGEZOGEN
  0
LAYER
  2
81
 70
     0
 62
    81
  6
AUSGEZOGEN
  0
LAYER
  2
82
 70
     0
 62
    82
  6
AUSGEZOGEN
  0
LAYER
  2
83
 70
     0
 62
    83
  6
AUSGEZOGEN
  0
LAYER
  2
84
 70
     0
 62
    84
  6
AUSGEZOGEN
  0
LAYER
  2
85
 70
     0
 62
    85
  6
AUSGEZOGEN
  0
LAYER
  2
86
 70
     0
 62
    86
  6
AUSGEZOGEN
  0
LAYER
  2
87
 70
     0
 62
    87
  6
AUSGEZOGEN
  0
LAYER
  2
88
 70
     0
 62
    88
  6
AUSGEZOGEN
  0
LAYER
  2
89
 70
     0
 62
    89
  6
AUSGEZOGEN
  0
LAYER
  2
90
 70
     0
 62
    90
  6
AUSGEZOGEN
  0
LAYER
  2
91
 70
     0
 62
    91
  6
AUSGEZOGEN
  0
LAYER
  2
92
 70
     0
 62
    92
  6
AUSGEZOGEN
  0
LAYER
  2
93
 70
     0
 62
    93
  6
AUSGEZOGEN
  0
LAYER
  2
94
 70
     0
 62
    94
  6
AUSGEZOGEN
  0
LAYER
  2
95
 70
     0
 62
    95
  6
AUSGEZOGEN
  0
LAYER
  2
96
 70
     0
 62
    96
  6
AUSGEZOGEN
  0
LAYER
  2
97
 70
     0
 62
    97
  6
AUSGEZOGEN
  0
LAYER
  2
98
 70
     0
 62
    98
  6
AUSGEZOGEN
  0
LAYER
  2
99
 70
     0
 62
    99
  6
AUSGEZOGEN
  0
LAYER
  2
100
 70
     0
 62
   100
  6
AUSGEZOGEN
  0
LAYER
  2
101
 70
     0
 62
   101
  6
AUSGEZOGEN
  0
LAYER
  2
102
 70
     0
 62
   102
  6
AUSGEZOGEN
  0
LAYER
  2
103
 70
     0
 62
   103
  6
AUSGEZOGEN
  0
LAYER
  2
104
 70
     0
 62
   104
  6
AUSGEZOGEN
  0
LAYER
  2
105
 70
     0
 62
   105
  6
AUSGEZOGEN
  0
LAYER
  2
106
 70
     0
 62
   106
  6
AUSGEZOGEN
  0
LAYER
  2
107
 70
     0
 62
   107
  6
AUSGEZOGEN
  0
LAYER
  2
108
 70
     0
 62
   108
  6
AUSGEZOGEN
  0
LAYER
  2
109
 70
     0
 62
   109
  6
AUSGEZOGEN
  0
LAYER
  2
110
 70
     0
 62
   110
  6
AUSGEZOGEN
  0
LAYER
  2
111
 70
     0
 62
   111
  6
AUSGEZOGEN
  0
LAYER
  2
112
 70
     0
 62
   112
  6
AUSGEZOGEN
  0
LAYER
  2
113
 70
     0
 62
   113
  6
AUSGEZOGEN
  0
LAYER
  2
114
 70
     0
 62
   114
  6
AUSGEZOGEN
  0
LAYER
  2
115
 70
     0
 62
   115
  6
AUSGEZOGEN
  0
LAYER
  2
116
 70
     0
 62
   116
  6
AUSGEZOGEN
  0
LAYER
  2
117
 70
     0
 62
   117
  6
AUSGEZOGEN
  0
LAYER
  2
118
 70
     0
 62
   118
  6
AUSGEZOGEN
  0
LAYER
  2
119
 70
     0
 62
   119
  6
AUSGEZOGEN
  0
LAYER
  2
120
 70
     0
 62
   120
  6
AUSGEZOGEN
  0
LAYER
  2
121
 70
     0
 62
   121
  6
AUSGEZOGEN
  0
LAYER
  2
122
 70
     0
 62
   122
  6
AUSGEZOGEN
  0
LAYER
  2
123
 70
     0
 62
   123
  6
AUSGEZOGEN
  0
LAYER
  2
124
 70
     0
 62
   124
  6
AUSGEZOGEN
  0
LAYER
  2
125
 70
     0
 62
   125
  6
AUSGEZOGEN
  0
LAYER
  2
126
 70
     0
 62
   126
  6
AUSGEZOGEN
  0
LAYER
  2
127
 70
     0
 62
   127
  6
AUSGEZOGEN
  0
LAYER
  2
128
 70
     0
 62
   128
  6
AUSGEZOGEN
  0
LAYER
  2
129
 70
     0
 62
   129
  6
AUSGEZOGEN
  0
LAYER
  2
130
 70
     0
 62
   130
  6
AUSGEZOGEN
  0
LAYER
  2
131
 70
     0
 62
   131
  6
AUSGEZOGEN
  0
LAYER
  2
132
 70
     0
 62
   132
  6
AUSGEZOGEN
  0
LAYER
  2
133
 70
     0
 62
   133
  6
AUSGEZOGEN
  0
LAYER
  2
134
 70
     0
 62
   134
  6
AUSGEZOGEN
  0
LAYER
  2
135
 70
     0
 62
   135
  6
AUSGEZOGEN
  0
LAYER
  2
136
 70
     0
 62
   136
  6
AUSGEZOGEN
  0
LAYER
  2
137
 70
     0
 62
   137
  6
AUSGEZOGEN
  0
LAYER
  2
138
 70
     0
 62
   138
  6
AUSGEZOGEN
  0
LAYER
  2
139
 70
     0
 62
   139
  6
AUSGEZOGEN
  0
LAYER
  2
140
 70
     0
 62
   140
  6
AUSGEZOGEN
  0
LAYER
  2
141
 70
     0
 62
   141
  6
AUSGEZOGEN
  0
LAYER
  2
142
 70
     0
 62
   142
  6
AUSGEZOGEN
  0
LAYER
  2
143
 70
     0
 62
   143
  6
AUSGEZOGEN
  0
LAYER
  2
144
 70
     0
 62
   144
  6
AUSGEZOGEN
  0
LAYER
  2
145
 70
     0
 62
   145
  6
AUSGEZOGEN
  0
LAYER
  2
146
 70
     0
 62
   146
  6
AUSGEZOGEN
  0
LAYER
  2
147
 70
     0
 62
   147
  6
AUSGEZOGEN
  0
LAYER
  2
148
 70
     0
 62
   148
  6
AUSGEZOGEN
  0
LAYER
  2
149
 70
     0
 62
   149
  6
AUSGEZOGEN
  0
LAYER
  2
150
 70
     0
 62
   150
  6
AUSGEZOGEN
  0
LAYER
  2
151
 70
     0
 62
   151
  6
AUSGEZOGEN
  0
LAYER
  2
152
 70
     0
 62
   152
  6
AUSGEZOGEN
  0
LAYER
  2
153
 70
     0
 62
   153
  6
AUSGEZOGEN
  0
LAYER
  2
154
 70
     0
 62
   154
  6
AUSGEZOGEN
  0
LAYER
  2
155
 70
     0
 62
   155
  6
AUSGEZOGEN
  0
LAYER
  2
156
 70
     0
 62
   156
  6
AUSGEZOGEN
  0
LAYER
  2
157
 70
     0
 62
   157
  6
AUSGEZOGEN
  0
LAYER
  2
158
 70
     0
 62
   158
  6
AUSGEZOGEN
  0
LAYER
  2
159
 70
     0
 62
   159
  6
AUSGEZOGEN
  0
LAYER
  2
160
 70
     0
 62
   160
  6
AUSGEZOGEN
  0
LAYER
  2
161
 70
     0
 62
   161
  6
AUSGEZOGEN
  0
LAYER
  2
162
 70
     0
 62
   162
  6
AUSGEZOGEN
  0
LAYER
  2
163
 70
     0
 62
   163
  6
AUSGEZOGEN
  0
LAYER
  2
164
 70
     0
 62
   164
  6
AUSGEZOGEN
  0
LAYER
  2
165
 70
     0
 62
   165
  6
AUSGEZOGEN
  0
LAYER
  2
166
 70
     0
 62
   166
  6
AUSGEZOGEN
  0
LAYER
  2
167
 70
     0
 62
   167
  6
AUSGEZOGEN
  0
LAYER
  2
168
 70
     0
 62
   168
  6
AUSGEZOGEN
  0
LAYER
  2
169
 70
     0
 62
   169
  6
AUSGEZOGEN
  0
LAYER
  2
170
 70
     0
 62
   170
  6
AUSGEZOGEN
  0
LAYER
  2
171
 70
     0
 62
   171
  6
AUSGEZOGEN
  0
LAYER
  2
172
 70
     0
 62
   172
  6
AUSGEZOGEN
  0
LAYER
  2
173
 70
     0
 62
   173
  6
AUSGEZOGEN
  0
LAYER
  2
174
 70
     0
 62
   174
  6
AUSGEZOGEN
  0
LAYER
  2
175
 70
     0
 62
   175
  6
AUSGEZOGEN
  0
LAYER
  2
176
 70
     0
 62
   176
  6
AUSGEZOGEN
  0
LAYER
  2
177
 70
     0
 62
   177
  6
AUSGEZOGEN
  0
LAYER
  2
178
 70
     0
 62
   178
  6
AUSGEZOGEN
  0
LAYER
  2
179
 70
     0
 62
   179
  6
AUSGEZOGEN
  0
LAYER
  2
180
 70
     0
 62
   180
  6
AUSGEZOGEN
  0
LAYER
  2
181
 70
     0
 62
   181
  6
AUSGEZOGEN
  0
LAYER
  2
182
 70
     0
 62
   182
  6
AUSGEZOGEN
  0
LAYER
  2
183
 70
     0
 62
   183
  6
AUSGEZOGEN
  0
LAYER
  2
184
 70
     0
 62
   184
  6
AUSGEZOGEN
  0
LAYER
  2
185
 70
     0
 62
   185
  6
AUSGEZOGEN
  0
LAYER
  2
186
 70
     0
 62
   186
  6
AUSGEZOGEN
  0
LAYER
  2
187
 70
     0
 62
   187
  6
AUSGEZOGEN
  0
LAYER
  2
188
 70
     0
 62
   188
  6
AUSGEZOGEN
  0
LAYER
  2
189
 70
     0
 62
   189
  6
AUSGEZOGEN
  0
LAYER
  2
190
 70
     0
 62
   190
  6
AUSGEZOGEN
  0
LAYER
  2
191
 70
     0
 62
   191
  6
AUSGEZOGEN
  0
LAYER
  2
192
 70
     0
 62
   192
  6
AUSGEZOGEN
  0
LAYER
  2
193
 70
     0
 62
   193
  6
AUSGEZOGEN
  0
LAYER
  2
194
 70
     0
 62
   194
  6
AUSGEZOGEN
  0
LAYER
  2
195
 70
     0
 62
   195
  6
AUSGEZOGEN
  0
LAYER
  2
196
 70
     0
 62
   196
  6
AUSGEZOGEN
  0
LAYER
  2
197
 70
     0
 62
   197
  6
AUSGEZOGEN
  0
LAYER
  2
198
 70
     0
 62
   198
  6
AUSGEZOGEN
  0
LAYER
  2
199
 70
     0
 62
   199
  6
AUSGEZOGEN
  0
LAYER
  2
200
 70
     0
 62
   200
  6
AUSGEZOGEN
  0
LAYER
  2
201
 70
     0
 62
   201
  6
AUSGEZOGEN
  0
LAYER
  2
202
 70
     0
 62
   202
  6
AUSGEZOGEN
  0
LAYER
  2
203
 70
     0
 62
   203
  6
AUSGEZOGEN
  0
LAYER
  2
204
 70
     0
 62
   204
  6
AUSGEZOGEN
  0
LAYER
  2
205
 70
     0
 62
   205
  6
AUSGEZOGEN
  0
LAYER
  2
206
 70
     0
 62
   206
  6
AUSGEZOGEN
  0
LAYER
  2
207
 70
     0
 62
   207
  6
AUSGEZOGEN
  0
LAYER
  2
208
 70
     0
 62
   208
  6
AUSGEZOGEN
  0
LAYER
  2
209
 70
     0
 62
   209
  6
AUSGEZOGEN
  0
LAYER
  2
210
 70
     0
 62
   210
  6
AUSGEZOGEN
  0
LAYER
  2
211
 70
     0
 62
   211
  6
AUSGEZOGEN
  0
LAYER
  2
212
 70
     0
 62
   212
  6
AUSGEZOGEN
  0
LAYER
  2
213
 70
     0
 62
   213
  6
AUSGEZOGEN
  0
LAYER
  2
214
 70
     0
 62
   214
  6
AUSGEZOGEN
  0
LAYER
  2
215
 70
     0
 62
   215
  6
AUSGEZOGEN
  0
LAYER
  2
216
 70
     0
 62
   216
  6
AUSGEZOGEN
  0
LAYER
  2
217
 70
     0
 62
   217
  6
AUSGEZOGEN
  0
LAYER
  2
218
 70
     0
 62
   218
  6
AUSGEZOGEN
  0
LAYER
  2
219
 70
     0
 62
   219
  6
AUSGEZOGEN
  0
LAYER
  2
220
 70
     0
 62
   220
  6
AUSGEZOGEN
  0
LAYER
  2
221
 70
     0
 62
   221
  6
AUSGEZOGEN
  0
LAYER
  2
222
 70
     0
 62
   222
  6
AUSGEZOGEN
  0
LAYER
  2
223
 70
     0
 62
   223
  6
AUSGEZOGEN
  0
LAYER
  2
224
 70
     0
 62
   224
  6
AUSGEZOGEN
  0
LAYER
  2
225
 70
     0
 62
   225
  6
AUSGEZOGEN
  0
LAYER
  2
226
 70
     0
 62
   226
  6
AUSGEZOGEN
  0
LAYER
  2
227
 70
     0
 62
   227
  6
AUSGEZOGEN
  0
LAYER
  2
228
 70
     0
 62
   228
  6
AUSGEZOGEN
  0
LAYER
  2
229
 70
     0
 62
   229
  6
AUSGEZOGEN
  0
LAYER
  2
230
 70
     0
 62
   230
  6
AUSGEZOGEN
  0
LAYER
  2
231
 70
     0
 62
   231
  6
AUSGEZOGEN
  0
LAYER
  2
232
 70
     0
 62
   232
  6
AUSGEZOGEN
  0
LAYER
  2
233
 70
     0
 62
   233
  6
AUSGEZOGEN
  0
LAYER
  2
234
 70
     0
 62
   234
  6
AUSGEZOGEN
  0
LAYER
  2
235
 70
     0
 62
   235
  6
AUSGEZOGEN
  0
LAYER
  2
236
 70
     0
 62
   236
  6
AUSGEZOGEN
  0
LAYER
  2
237
 70
     0
 62
   237
  6
AUSGEZOGEN
  0
LAYER
  2
238
 70
     0
 62
   238
  6
AUSGEZOGEN
  0
LAYER
  2
239
 70
     0
 62
   239
  6
AUSGEZOGEN
  0
LAYER
  2
240
 70
     0
 62
   240
  6
AUSGEZOGEN
  0
LAYER
  2
241
 70
     0
 62
   241
  6
AUSGEZOGEN
  0
LAYER
  2
242
 70
     0
 62
   242
  6
AUSGEZOGEN
  0
LAYER
  2
243
 70
     0
 62
   243
  6
AUSGEZOGEN
  0
LAYER
  2
244
 70
     0
 62
   244
  6
AUSGEZOGEN
  0
LAYER
  2
245
 70
     0
 62
   245
  6
AUSGEZOGEN
  0
LAYER
  2
246
 70
     0
 62
   246
  6
AUSGEZOGEN
  0
LAYER
  2
247
 70
     0
 62
   247
  6
AUSGEZOGEN
  0
LAYER
  2
248
 70
     0
 62
   248
  6
AUSGEZOGEN
  0
LAYER
  2
249
 70
     0
 62
   249
  6
AUSGEZOGEN
  0
LAYER
  2
250
 70
     0
 62
   250
  6
AUSGEZOGEN
  0
LAYER
  2
251
 70
     0
 62
   251
  6
AUSGEZOGEN
  0
LAYER
  2
252
 70
     0
 62
   252
  6
AUSGEZOGEN
  0
LAYER
  2
253
 70
     0
 62
   253
  6
AUSGEZOGEN
  0
LAYER
  2
254
 70
     0
 62
   254
  6
AUSGEZOGEN
  0
LAYER
  2
255
 70
     0
 62
   255
  6
AUSGEZOGEN
  0
ENDTAB
  0
TABLE
  2
STYLE
 70
     2
  0
STYLE
  2
STANDARD
 70
     0
 40
0.0
 41
1.0
 50
0.0
 71
     0
 42
0.2
  3
txt
  4

  0
STYLE
  2
ANNOTATIVE
 70
     0
 40
0.0
 41
1.0
 50
0.0
 71
     0
 42
0.2
  3
txt
  4

  0
ENDTAB
  0
TABLE
  2
VIEW
 70
     0
  0
ENDTAB
  0
TABLE
  2
UCS
 70
     0
  0
ENDTAB
  0
TABLE
  2
APPID
 70
     4
  0
APPID
  2
ACAD
 70
     0
  0
APPID
  2
ACADANNOTATIVE
 70
     0
  0
APPID
  2
ACAD_NAV_VCDISPLAY
 70
     0
  0
APPID
  2
ACAD_MLEADERVER
 70
     0
  0
ENDTAB
  0
TABLE
  2
DIMSTYLE
 70
     2
  0
DIMSTYLE
  2
STANDARD
 70
     0
  3

  4

  5

  6

  7

 40
1.0
 41
0.18
 42
0.0625
 43
0.38
 44
0.18
 45
0.0
 46
0.0
 47
0.0
 48
0.0
140
0.18
141
0.09
142
0.0
143
25.3999999999999986
144
1.0
145
0.0
146
1.0
147
0.09
 71
     0
 72
     0
 73
     1
 74
     1
 75
     0
 76
     0
 77
     0
 78
     0
170
     0
171
     2
172
     0
173
     0
174
     0
175
     0
176
     0
177
     0
178
     0
  0
DIMSTYLE
  2
ANNOTATIVE
 70
     0
  3

  4

  5

  6

  7

 40
1.0
 41
0.18
 42
0.0625
 43
0.38
 44
0.18
 45
0.0
 46
0.0
 47
0.0
 48
0.0
140
0.18
141
0.09
142
0.0
143
25.3999999999999986
144
1.0
145
0.0
146
1.0
147
0.09
 71
     0
 72
     0
 73
     1
 74
     1
 75
     0
 76
     0
 77
     0
 78
     0
170
     0
171
     2
172
     0
173
     0
174
     0
175
     0
176
     0
177
     0
178
     0
  0
ENDTAB
  0
ENDSEC
  0
SECTION
  2
BLOCKS
  0
BLOCK
  8
0
  2
$MODEL_SPACE
 70
     0
 10
0.0
 20
0.0
 30
0.0
  3
$MODEL_SPACE
  1

  0
ENDBLK
  5
71
  8
0
  0
BLOCK
 67
     1
  8
0
  2
$PAPER_SPACE
 70
     0
 10
0.0
 20
0.0
 30
0.0
  3
$PAPER_SPACE
  1

  0
ENDBLK
  5
6D
 67
     1
  8
0
  0
ENDSEC
  0
SECTION
  2
ENTITIES
  0
POLYLINE
  5
2B5
  8
0
 62
     0
 66
     1
 10
0.0
 20
0.0
 30
0.0
  0
VERTEX
  5
D80
  8
0
 62
     0
 10
3.50129175186157
 20
6.1619858741760289
 30
0.0
  0
VERTEX
  5
D81
  8
0
 62
     0
 10
3.50129175186157
 20
6.1619858741760289
 30
0.0
  0
VERTEX
  5
D82
  8
0
 62
     0
 10
3.5500113964080788
 20
6.280292034149169
 30
0.0
  0
VERTEX
  5
D83
  8
0
 62
     0
 10
3.59443926811218
 20
6.4030504226684588
 30
0.0
  0
VERTEX
  5
D84
  8
0
 62
     0
 10
3.6343777179717991
 20
6.529334068298339
 30
0.0
  0
VERTEX
  5
D85
  8
0
 62
     0
 10
3.6696302890777601
 20
6.6582164764404288
 30
0.0
  0
VERTEX
  5
D86
  8
0
 62
     0
 10
3.6999998092651398
 20
6.7887706756591788
 30
0.0
  0
VERTEX
  5
D87
  8
0
 62
     0
 10
3.7252895832061799
 20
6.9200701713562003
 30
0.0
  0
VERTEX
  5
D88
  8
0
 62
     0
 10
3.7453024387359601
 20
7.0511875152587891
 30
0.0
  0
VERTEX
  5
D89
  8
0
 62
     0
 10
3.7598409652710001
 20
7.1811962127685502
 30
0.0
  0
VERTEX
  5
D8A
  8
0
 62
     0
 10
3.7687084674835201
 20
7.3091692924499503
 30
0.0
  0
VERTEX
  5
D8B
  8
0
 62
     0
 10
3.771708250045779
 20
7.434180259704589
 30
0.0
  0
VERTEX
  5
D8C
  8
0
 62
     0
 10
3.771708250045779
 20
7.434180259704589
 30
0.0
  0
VERTEX
  5
D8D
  8
0
 62
     0
 10
3.771708250045779
 20
7.434180259704589
 30
0.0
  0
VERTEX
  5
D8E
  8
0
 62
     0
 10
3.7779781818389901
 20
7.5780715942382804
 30
0.0
  0
VERTEX
  5
D8F
  8
0
 62
     0
 10
3.7962570190429701
 20
7.7163510322570801
 30
0.0
  0
VERTEX
  5
D90
  8
0
 62
     0
 10
3.8257479667663592
 20
7.8474502563476589
 30
0.0
  0
VERTEX
  5
D91
  8
0
 62
     0
 10
3.8656535148620601
 20
7.9698028564453089
 30
0.0
  0
VERTEX
  5
D92
  8
0
 62
     0
 10
3.9151768684387198
 20
8.0818424224853498
 30
0.0
  0
VERTEX
  5
D93
  8
0
 62
     0
 10
3.97352123260498
 20
8.1819992065429705
 30
0.0
  0
VERTEX
  5
D94
  8
0
 62
     0
 10
4.0398893356323189
 20
8.2687082290649396
 30
0.0
  0
VERTEX
  5
D95
  8
0
 62
     0
 10
4.1134843826293901
 20
8.3404016494750994
 30
0.0
  0
VERTEX
  5
D96
  8
0
 62
     0
 10
4.1935091018676802
 20
8.3955116271972692
 30
0.0
  0
VERTEX
  5
D97
  8
0
 62
     0
 10
4.2791666984558088
 20
8.4324722290039098
 30
0.0
  0
VERTEX
  5
D98
  8
0
 62
     0
 10
4.2791666984558088
 20
8.4324722290039098
 30
0.0
  0
VERTEX
  5
D99
  8
0
 62
     0
 10
4.3374862670898393
 20
8.4505558013915998
 30
0.0
  0
VERTEX
  5
D9A
  8
0
 62
     0
 10
4.3332777023315403
 20
8.5362501144409197
 30
0.0
  0
VERTEX
  5
D9B
  8
0
 62
     0
 10
4.3332777023315403
 20
8.5362501144409197
 30
0.0
  0
VERTEX
  5
D9C
  8
0
 62
     0
 10
4.3131246566772496
 20
8.7630119323730487
 30
0.0
  0
VERTEX
  5
D9D
  8
0
 62
     0
 10
4.2826318740844691
 20
8.9854965209960902
 30
0.0
  0
VERTEX
  5
D9E
  8
0
 62
     0
 10
4.2420482635498002
 20
9.2029314041137695
 30
0.0
  0
VERTEX
  5
D9F
  8
0
 62
     0
 10
4.1916241645812988
 20
9.4145479202270508
 30
0.0
  0
VERTEX
  5
DA0
  8
0
 62
     0
 10
4.1316080093383789
 20
9.6195764541625994
 30
0.0
  0
VERTEX
  5
DA1
  8
0
 62
     0
 10
4.0622487068176287
 20
9.8172464370727504
 30
0.0
  0
VERTEX
  5
DA2
  8
0
 62
     0
 10
3.98379683494568
 20
10.0067873001099006
 30
0.0
  0
VERTEX
  5
DA3
  8
0
 62
     0
 10
3.8965008258819589
 20
10.1874313354491992
 30
0.0
  0
VERTEX
  5
DA4
  8
0
 62
     0
 10
3.8006105422973588
 20
10.3584070205687997
 30
0.0
  0
VERTEX
  5
DA5
  8
0
 62
     0
 10
3.6963751316070592
 20
10.5189447402953995
 30
0.0
  0
VERTEX
  5
DA6
  8
0
 62
     0
 10
3.6963751316070592
 20
10.5189447402953995
 30
0.0
  0
VERTEX
  5
DA7
  8
0
 62
     0
 10
3.6963751316070592
 20
10.5189447402953995
 30
0.0
  0
VERTEX
  5
DA8
  8
0
 62
     0
 10
3.5828950405120801
 20
10.6692714691162003
 30
0.0
  0
VERTEX
  5
DA9
  8
0
 62
     0
 10
3.4635541439056401
 20
10.8040361404418999
 30
0.0
  0
VERTEX
  5
DAA
  8
0
 62
     0
 10
3.3388767242431601
 20
10.9229373931884997
 30
0.0
  0
VERTEX
  5
DAB
  8
0
 62
     0
 10
3.2093870639800999
 20
11.0256729125977007
 30
0.0
  0
VERTEX
  5
DAC
  8
0
 62
     0
 10
3.075609445571899
 20
11.1119422912597994
 30
0.0
  0
VERTEX
  5
DAD
  8
0
 62
     0
 10
2.938067913055419
 20
11.1814460754394993
 30
0.0
  0
VERTEX
  5
DAE
  8
0
 62
     0
 10
2.7972872257232702
 20
11.2338800430297994
 30
0.0
  0
VERTEX
  5
DAF
  8
0
 62
     0
 10
2.6537909507751491
 20
11.2689447402953995
 30
0.0
  0
VERTEX
  5
DB0
  8
0
 62
     0
 10
2.508103847503659
 20
11.2863397598266992
 30
0.0
  0
VERTEX
  5
DB1
  8
0
 62
     0
 10
2.36074995994568
 20
11.2857627868652006
 30
0.0
  0
VERTEX
  5
DB2
  8
0
 62
     0
 10
2.36074995994568
 20
11.2857627868652006
 30
0.0
  0
VERTEX
  5
DB3
  8
0
 62
     0
 10
2.36074995994568
 20
11.2857627868652006
 30
0.0
  0
VERTEX
  5
DB4
  8
0
 62
     0
 10
2.3524999618530291
 20
11.2851839065552007
 30
0.0
  0
VERTEX
  5
DB5
  8
0
 62
     0
 10
2.3441290855407702
 20
11.2844886779784996
 30
0.0
  0
VERTEX
  5
DB6
  8
0
 62
     0
 10
2.33564281463623
 20
11.2836799621581907
 30
0.0
  0
VERTEX
  5
DB7
  8
0
 62
     0
 10
2.3270463943481401
 20
11.2827558517456001
 30
0.0
  0
VERTEX
  5
DB8
  8
0
 62
     0
 10
2.318345308303829
 20
11.2817192077637003
 30
0.0
  0
VERTEX
  5
DB9
  8
0
 62
     0
 10
2.3095459938049299
 20
11.2805681228637997
 30
0.0
  0
VERTEX
  5
DBA
  8
0
 62
     0
 10
2.3006534576415998
 20
11.2793073654175
 30
0.0
  0
VERTEX
  5
DBB
  8
0
 62
     0
 10
2.291672945022579
 20
11.2779350280762003
 30
0.0
  0
VERTEX
  5
DBC
  8
0
 62
     0
 10
2.2826108932495091
 20
11.2764530181884997
 30
0.0
  0
VERTEX
  5
DBD
  8
0
 62
     0
 10
2.2734723091125488
 20
11.2748613357543999
 30
0.0
  0
VERTEX
  5
DBE
  8
0
 62
     0
 10
2.2734723091125488
 20
11.2748613357543999
 30
0.0
  0
VERTEX
  5
DBF
  8
0
 62
     0
 10
2.2734723091125488
 20
11.2748613357543999
 30
0.0
  0
VERTEX
  5
DC0
  8
0
 62
     0
 10
2.165858030319209
 20
11.2480888366699006
 30
0.0
  0
VERTEX
  5
DC1
  8
0
 62
     0
 10
2.0562562942504901
 20
11.2063550949096999
 30
0.0
  0
VERTEX
  5
DC2
  8
0
 62
     0
 10
1.9451045989990201
 20
11.1500129699706907
 30
0.0
  0
VERTEX
  5
DC3
  8
0
 62
     0
 10
1.8328393697738601
 20
11.0794153213500994
 30
0.0
  0
VERTEX
  5
DC4
  8
0
 62
     0
 10
1.7198976278305089
 20
10.9949150085449006
 30
0.0
  0
VERTEX
  5
DC5
  8
0
 62
     0
 10
1.6067162752151489
 20
10.8968639373778995
 30
0.0
  0
VERTEX
  5
DC6
  8
0
 62
     0
 10
1.493732213973999
 20
10.7856159210205007
 30
0.0
  0
VERTEX
  5
DC7
  8
0
 62
     0
 10
1.3813824653625491
 20
10.6615219116211009
 30
0.0
  0
VERTEX
  5
DC8
  8
0
 62
     0
 10
1.2701039314269991
 20
10.5249357223511009
 30
0.0
  0
VERTEX
  5
DC9
  8
0
 62
     0
 10
1.16033339500427
 20
10.3762092590331996
 30
0.0
  0
VERTEX
  5
DCA
  8
0
 62
     0
 10
1.16033339500427
 20
10.3762092590331996
 30
0.0
  0
VERTEX
  5
DCB
  8
0
 62
     0
 10
1.16033339500427
 20
10.3762092590331996
 30
0.0
  0
VERTEX
  5
DCC
  8
0
 62
     0
 10
1.0559803247451791
 20
10.2211055755615003
 30
0.0
  0
VERTEX
  5
DCD
  8
0
 62
     0
 10
0.9561972022056578
 20
10.0589818954468004
 30
0.0
  0
VERTEX
  5
DCE
  8
0
 62
     0
 10
0.8612983226776119
 20
9.8905363082885707
 30
0.0
  0
VERTEX
  5
DCF
  8
0
 62
     0
 10
0.7715977430343629
 20
9.7164697647094709
 30
0.0
  0
VERTEX
  5
DD0
  8
0
 62
     0
 10
0.687409698963165
 20
9.5374803543090803
 30
0.0
  0
VERTEX
  5
DD1
  8
0
 62
     0
 10
0.609048306941986
 20
9.3542709350585902
 30
0.0
  0
VERTEX
  5
DD2
  8
0
 62
     0
 10
0.5368278026580811
 20
9.16754055023193
 30
0.0
  0
VERTEX
  5
DD3
  8
0
 62
     0
 10
0.4710621833801271
 20
8.9779882431030291
 30
0.0
  0
VERTEX
  5
DD4
  8
0
 62
     0
 10
0.412065863609314
 20
8.78631591796875
 30
0.0
  0
VERTEX
  5
DD5
  8
0
 62
     0
 10
0.360152781009674
 20
8.5932216644287092
 30
0.0
  0
VERTEX
  5
DD6
  8
0
 62
     0
 10
0.360152781009674
 20
8.5932216644287092
 30
0.0
  0
VERTEX
  5
DD7
  8
0
 62
     0
 10
0.344222187995911
 20
8.5293617248535192
 30
0.0
  0
VERTEX
  5
DD8
  8
0
 62
     0
 10
0.404222279787064
 20
8.5023469924926793
 30
0.0
  0
VERTEX
  5
DD9
  8
0
 62
     0
 10
0.404222279787064
 20
8.5023469924926793
 30
0.0
  0
VERTEX
  5
DDA
  8
0
 62
     0
 10
0.46824699640274
 20
8.4690742492675781
 30
0.0
  0
VERTEX
  5
DDB
  8
0
 62
     0
 10
0.53294825553894
 20
8.4250783920288104
 30
0.0
  0
VERTEX
  5
DDC
  8
0
 62
     0
 10
0.5965794324874879
 20
8.3688879013061506
 30
0.0
  0
VERTEX
  5
DDD
  8
0
 62
     0
 10
0.6573936343193051
 20
8.2990360260009801
 30
0.0
  0
VERTEX
  5
DDE
  8
0
 62
     0
 10
0.7136441469192502
 20
8.21405029296875
 30
0.0
  0
VERTEX
  5
DDF
  8
0
 62
     0
 10
0.763584315776825
 20
8.1124639511108398
 30
0.0
  0
VERTEX
  5
DE0
  8
0
 62
     0
 10
0.805467247962952
 20
7.9928078651428187
 30
0.0
  0
VERTEX
  5
DE1
  8
0
 62
     0
 10
0.8375462293624879
 20
7.8536114692687988
 30
0.0
  0
VERTEX
  5
DE2
  8
0
 62
     0
 10
0.8580746054649349
 20
7.6934061050415004
 30
0.0
  0
VERTEX
  5
DE3
  8
0
 62
     0
 10
0.8653056025505069
 20
7.510721683502199
 30
0.0
  0
VERTEX
  5
DE4
  8
0
 62
     0
 10
0.8653056025505069
 20
7.510721683502199
 30
0.0
  0
VERTEX
  5
DE5
  8
0
 62
     0
 10
0.8653056025505069
 20
7.510721683502199
 30
0.0
  0
VERTEX
  5
DE6
  8
0
 62
     0
 10
0.8681752681732181
 20
7.3855829238891602
 30
0.0
  0
VERTEX
  5
DE7
  8
0
 62
     0
 10
0.876632988452911
 20
7.2562670707702601
 30
0.0
  0
VERTEX
  5
DE8
  8
0
 62
     0
 10
0.890451967716217
 20
7.123941898345949
 30
0.0
  0
VERTEX
  5
DE9
  8
0
 62
     0
 10
0.9094051718711849
 20
6.9897732734680202
 30
0.0
  0
VERTEX
  5
DEA
  8
0
 62
     0
 10
0.9332656860351558
 20
6.8549270629882804
 30
0.0
  0
VERTEX
  5
DEB
  8
0
 62
     0
 10
0.9618065953254699
 20
6.7205700874328604
 30
0.0
  0
VERTEX
  5
DEC
  8
0
 62
     0
 10
0.9948009848594669
 20
6.5878691673278791
 30
0.0
  0
VERTEX
  5
DED
  8
0
 62
     0
 10
1.0320219993591291
 20
6.4579892158508301
 30
0.0
  0
VERTEX
  5
DEE
  8
0
 62
     0
 10
1.0732426643371591
 20
6.3320980072021511
 30
0.0
  0
VERTEX
  5
DEF
  8
0
 62
     0
 10
1.1182360649108889
 20
6.2113609313964799
 30
0.0
  0
VERTEX
  5
DF0
  8
0
 62
     0
 10
1.1182360649108889
 20
6.2113609313964799
 30
0.0
  0
VERTEX
  5
DF1
  8
0
 62
     0
 10
1.1182360649108889
 20
6.2113609313964799
 30
0.0
  0
VERTEX
  5
DF2
  8
0
 62
     0
 10
1.167927145957949
 20
6.0944604873657191
 30
0.0
  0
VERTEX
  5
DF3
  8
0
 62
     0
 10
1.21982538700104
 20
5.9878563880920401
 30
0.0
  0
VERTEX
  5
DF4
  8
0
 62
     0
 10
1.2735320329666091
 20
5.892023086547848
 30
0.0
  0
VERTEX
  5
DF5
  8
0
 62
     0
 10
1.3286473751068091
 20
5.8074326515197789
 30
0.0
  0
VERTEX
  5
DF6
  8
0
 62
     0
 10
1.3847726583480799
 20
5.7345590591430691
 30
0.0
  0
VERTEX
  5
DF7
  8
0
 62
     0
 10
1.441508054733279
 20
5.6738739013671902
 30
0.0
  0
VERTEX
  5
DF8
  8
0
 62
     0
 10
1.4984548091888401
 20
5.625851154327389
 30
0.0
  0
VERTEX
  5
DF9
  8
0
 62
     0
 10
1.5552134513855
 20
5.59096336364746
 30
0.0
  0
VERTEX
  5
DFA
  8
0
 62
     0
 10
1.6113847494125391
 20
5.56968450546265
 30
0.0
  0
VERTEX
  5
DFB
  8
0
 62
     0
 10
1.66656935214996
 20
5.5624861717224086
 30
0.0
  0
VERTEX
  5
DFC
  8
0
 62
     0
 10
1.66656935214996
 20
5.5624861717224086
 30
0.0
  0
VERTEX
  5
DFD
  8
0
 62
     0
 10
1.66656935214996
 20
5.5624861717224086
 30
0.0
  0
VERTEX
  5
DFE
  8
0
 62
     0
 10
1.7266288995742789
 20
5.566892623901369
 30
0.0
  0
VERTEX
  5
DFF
  8
0
 62
     0
 10
1.78593277931213
 20
5.5800037384033203
 30
0.0
  0
VERTEX
  5
E00
  8
0
 62
     0
 10
1.844267725944519
 20
5.6016559600830096
 30
0.0
  0
VERTEX
  5
E01
  8
0
 62
     0
 10
1.9014219045639
 20
5.6316871643066388
 30
0.0
  0
VERTEX
  5
E02
  8
0
 62
     0
 10
1.9571824073791491
 20
5.6699337959289586
 30
0.0
  0
VERTEX
  5
E03
  8
0
 62
     0
 10
2.0113363265991202
 20
5.7162332534790004
 30
0.0
  0
VERTEX
  5
E04
  8
0
 62
     0
 10
2.0636718273162802
 20
5.770421981811519
 30
0.0
  0
VERTEX
  5
E05
  8
0
 62
     0
 10
2.1139757633209189
 20
5.83233690261841
 30
0.0
  0
VERTEX
  5
E06
  8
0
 62
     0
 10
2.1620357036590589
 20
5.90181541442871
 30
0.0
  0
VERTEX
  5
E07
  8
0
 62
     0
 10
2.207638978958129
 20
5.9786944389343288
 30
0.0
  0
VERTEX
  5
E08
  8
0
 62
     0
 10
2.207638978958129
 20
5.9786944389343288
 30
0.0
  0
VERTEX
  5
E09
  8
0
 62
     0
 10
2.207638978958129
 20
5.9786944389343288
 30
0.0
  0
VERTEX
  5
E0A
  8
0
 62
     0
 10
2.2088899612426798
 20
5.9810848236084011
 30
0.0
  0
VERTEX
  5
E0B
  8
0
 62
     0
 10
2.2124643325805691
 20
5.9879159927368191
 30
0.0
  0
VERTEX
  5
E0C
  8
0
 62
     0
 10
2.2180948257446289
 20
5.9986777305603001
 30
0.0
  0
VERTEX
  5
E0D
  8
0
 62
     0
 10
2.2255141735076891
 20
6.0128593444824192
 30
0.0
  0
VERTEX
  5
E0E
  8
0
 62
     0
 10
2.234454870223999
 20
6.0299510955810502
 30
0.0
  0
VERTEX
  5
E0F
  8
0
 62
     0
 10
2.24464988708496
 20
6.0494432449340794
 30
0.0
  0
VERTEX
  5
E10
  8
0
 62
     0
 10
2.2558317184448189
 20
6.0708255767822301
 30
0.0
  0
VERTEX
  5
E11
  8
0
 62
     0
 10
2.267733335495
 20
6.0935869216918901
 30
0.0
  0
VERTEX
  5
E12
  8
0
 62
     0
 10
2.2800867557525599
 20
6.1172175407409686
 30
0.0
  0
VERTEX
  5
E13
  8
0
 62
     0
 10
2.2926249504089391
 20
6.1412081718444789
 30
0.0
  0
VERTEX
  5
E14
  8
0
 62
     0
 10
2.2926249504089391
 20
6.1412081718444789
 30
0.0
  0
VERTEX
  5
E15
  8
0
 62
     0
 10
2.2926249504089391
 20
6.1412081718444789
 30
0.0
  0
VERTEX
  5
E16
  8
0
 62
     0
 10
2.300771951675419
 20
6.1248335838317889
 30
0.0
  0
VERTEX
  5
E17
  8
0
 62
     0
 10
2.3087894916534402
 20
6.1087217330932591
 30
0.0
  0
VERTEX
  5
E18
  8
0
 62
     0
 10
2.3165066242217991
 20
6.0932178497314489
 30
0.0
  0
VERTEX
  5
E19
  8
0
 62
     0
 10
2.32375144958496
 20
6.0786643028259304
 30
0.0
  0
VERTEX
  5
E1A
  8
0
 62
     0
 10
2.330352306365969
 20
6.0654063224792498
 30
0.0
  0
VERTEX
  5
E1B
  8
0
 62
     0
 10
2.3361380100250191
 20
6.0537872314453089
 30
0.0
  0
VERTEX
  5
E1C
  8
0
 62
     0
 10
2.3409364223480198
 20
6.0441517829894993
 30
0.0
  0
VERTEX
  5
E1D
  8
0
 62
     0
 10
2.34457659721375
 20
6.03684282302856
 30
0.0
  0
VERTEX
  5
E1E
  8
0
 62
     0
 10
2.3468863964080802
 20
6.0322055816650391
 30
0.0
  0
VERTEX
  5
E1F
  8
0
 62
     0
 10
2.3476943969726598
 20
6.0305833816528294
 30
0.0
  0
VERTEX
  5
E20
  8
0
 62
     0
 10
2.3476943969726598
 20
6.0305833816528294
 30
0.0
  0
VERTEX
  5
E21
  8
0
 62
     0
 10
2.3476943969726598
 20
6.0305833816528294
 30
0.0
  0
VERTEX
  5
E22
  8
0
 62
     0
 10
2.39470767974854
 20
5.9418497085571289
 30
0.0
  0
VERTEX
  5
E23
  8
0
 62
     0
 10
2.44507884979248
 20
5.8612833023071289
 30
0.0
  0
VERTEX
  5
E24
  8
0
 62
     0
 10
2.4984805583953902
 20
5.7891602516174281
 30
0.0
  0
VERTEX
  5
E25
  8
0
 62
     0
 10
2.554584264755249
 20
5.7257575988769496
 30
0.0
  0
VERTEX
  5
E26
  8
0
 62
     0
 10
2.613062620162959
 20
5.6713504791259801
 30
0.0
  0
VERTEX
  5
E27
  8
0
 62
     0
 10
2.6735875606536892
 20
5.6262164115905788
 30
0.0
  0
VERTEX
  5
E28
  8
0
 62
     0
 10
2.7358312606811501
 20
5.5906310081481898
 30
0.0
  0
VERTEX
  5
E29
  8
0
 62
     0
 10
2.7994661331176789
 20
5.5648703575134304
 30
0.0
  0
VERTEX
  5
E2A
  8
0
 62
     0
 10
2.86416387557983
 20
5.5492115020751989
 30
0.0
  0
VERTEX
  5
E2B
  8
0
 62
     0
 10
2.9295971393585201
 20
5.5439305305480993
 30
0.0
  0
VERTEX
  5
E2C
  8
0
 62
     0
 10
2.9295971393585201
 20
5.5439305305480993
 30
0.0
  0
VERTEX
  5
E2D
  8
0
 62
     0
 10
2.9295971393585201
 20
5.5439305305480993
 30
0.0
  0
VERTEX
  5
E2E
  8
0
 62
     0
 10
2.9873571395874001
 20
5.5506310462951687
 30
0.0
  0
VERTEX
  5
E2F
  8
0
 62
     0
 10
3.0458402633667001
 20
5.5705027580261204
 30
0.0
  0
VERTEX
  5
E30
  8
0
 62
     0
 10
3.1047258377075191
 20
5.6031980514526394
 30
0.0
  0
VERTEX
  5
E31
  8
0
 62
     0
 10
3.163693666458129
 20
5.6483702659606898
 30
0.0
  0
VERTEX
  5
E32
  8
0
 62
     0
 10
3.2224235534667991
 20
5.7056717872619602
 30
0.0
  0
VERTEX
  5
E33
  8
0
 62
     0
 10
3.2805950641632089
 20
5.774756431579589
 30
0.0
  0
VERTEX
  5
E34
  8
0
 62
     0
 10
3.337888002395629
 20
5.8552770614623988
 30
0.0
  0
VERTEX
  5
E35
  8
0
 62
     0
 10
3.39398217201233
 20
5.9468870162963894
 30
0.0
  0
VERTEX
  5
E36
  8
0
 62
     0
 10
3.4485566616058301
 20
6.0492386817932102
 30
0.0
  0
VERTEX
  5
E37
  8
0
 62
     0
 10
3.50129175186157
 20
6.1619858741760289
 30
0.0
  0
VERTEX
  5
E38
  8
0
 62
     0
 10
3.50129175186157
 20
6.1619858741760289
 30
0.0
  0
VERTEX
  5
E39
  8
0
 62
     0
 10
3.50129175186157
 20
6.1619858741760289
 30
0.0
  0
SEQEND
  5
E3A
  8
0
 62
     0
  0
POLYLINE
  5
55A
  8
0
 62
     0
 66
     1
 10
0.0
 20
0.0
 30
0.0
  0
VERTEX
  5
E3B
  8
0
 62
     0
 10
7.927386760711669
 20
6.7581424713134801
 30
0.0
  0
VERTEX
  5
E3C
  8
0
 62
     0
 10
7.927386760711669
 20
6.7581424713134801
 30
0.0
  0
VERTEX
  5
E3D
  8
0
 62
     0
 10
7.927386760711669
 20
6.7581424713134801
 30
0.0
  0
SEQEND
  5
E3E
  8
0
 62
     0
  0
ENDSEC
  0
EOF
