  0
SECTION
  2
HEADER
  9
$ACADVER
  1
AC1009
  9
$INSBASE
 10
0.0
 20
0.0
 30
0.0
  9
$EXTMIN
 10
-4.0080695152282697
 20
0.383347392082214
 30
0.0
  9
$EXTMAX
 10
7.9567775726318386
 20
9.2024030685424805
 30
0.0
  9
$LIMMIN
 10
0.0
 20
0.0
  9
$LIMMAX
 10
12.0
 20
9.0
  9
$ORTHOMODE
 70
     0
  9
$REGENMODE
 70
     1
  9
$FILLMODE
 70
     1
  9
$QTEXTMODE
 70
     0
  9
$MIRRTEXT
 70
     0
  9
$DRAGMODE
 70
     2
  9
$LTSCALE
 40
1.0
  9
$OSMODE
 70
    37
  9
$ATTMODE
 70
     1
  9
$TEXTSIZE
 40
0.2
  9
$TRACEWID
 40
0.05
  9
$TEXTSTYLE
  7
STANDARD
  9
$CLAYER
  8
0
  9
$CELTYPE
  6
BYLAYER
  9
$CECOLOR
 62
   256
  9
$DIMSCALE
 40
1.0
  9
$DIMASZ
 40
0.18
  9
$DIMEXO
 40
0.0625
  9
$DIMDLI
 40
0.38
  9
$DIMRND
 40
0.0
  9
$DIMDLE
 40
0.0
  9
$DIMEXE
 40
0.18
  9
$DIMTP
 40
0.0
  9
$DIMTM
 40
0.0
  9
$DIMTXT
 40
0.18
  9
$DIMCEN
 40
0.09
  9
$DIMTSZ
 40
0.0
  9
$DIMTOL
 70
     0
  9
$DIMLIM
 70
     0
  9
$DIMTIH
 70
     1
  9
$DIMTOH
 70
     1
  9
$DIMSE1
 70
     0
  9
$DIMSE2
 70
     0
  9
$DIMTAD
 70
     0
  9
$DIMZIN
 70
     0
  9
$DIMBLK
  1

  9
$DIMASO
 70
     1
  9
$DIMSHO
 70
     1
  9
$DIMPOST
  1

  9
$DIMAPOST
  1

  9
$DIMALT
 70
     0
  9
$DIMALTD
 70
     2
  9
$DIMALTF
 40
25.3999999999999986
  9
$DIMLFAC
 40
1.0
  9
$DIMTOFL
 70
     0
  9
$DIMTVP
 40
0.0
  9
$DIMTIX
 70
     0
  9
$DIMSOXD
 70
     0
  9
$DIMSAH
 70
     0
  9
$DIMBLK1
  1

  9
$DIMBLK2
  1

  9
$DIMSTYLE
  2
STANDARD
  9
$DIMCLRD
 70
     0
  9
$DIMCLRE
 70
     0
  9
$DIMCLRT
 70
     0
  9
$DIMTFAC
 40
1.0
  9
$DIMGAP
 40
0.09
  9
$LUNITS
 70
     2
  9
$LUPREC
 70
     4
  9
$SKETCHINC
 40
0.1
  9
$FILLETRAD
 40
0.0
  9
$AUNITS
 70
     0
  9
$AUPREC
 70
     0
  9
$MENU
  1
.
  9
$ELEVATION
 40
0.0
  9
$PELEVATION
 40
0.0
  9
$THICKNESS
 40
0.0
  9
$LIMCHECK
 70
     0
  9
$BLIPMODE
 70
     0
  9
$CHAMFERA
 40
0.0
  9
$CHAMFERB
 40
0.0
  9
$SKPOLY
 70
     0
  9
$TDCREATE
 40
2459555.9939120369963348
  9
$TDUPDATE
 40
2459556.9833333329297602
  9
$TDINDWG
 40
0.0055208333
  9
$TDUSRTIMER
 40
0.0055208333
  9
$USRTIMER
 70
     1
  9
$ANGBASE
 50
0.0
  9
$ANGDIR
 70
     0
  9
$PDMODE
 70
     0
  9
$PDSIZE
 40
0.0
  9
$PLINEWID
 40
0.0
  9
$COORDS
 70
     1
  9
$SPLFRAME
 70
     0
  9
$SPLINETYPE
 70
     6
  9
$SPLINESEGS
 70
     8
  9
$ATTDIA
 70
     1
  9
$ATTREQ
 70
     1
  9
$HANDLING
 70
     1
  9
$HANDSEED
  5
FD3
  9
$SURFTAB1
 70
     6
  9
$SURFTAB2
 70
     6
  9
$SURFTYPE
 70
     6
  9
$SURFU
 70
     6
  9
$SURFV
 70
     6
  9
$UCSNAME
  2

  9
$UCSORG
 10
0.0
 20
0.0
 30
0.0
  9
$UCSXDIR
 10
1.0
 20
0.0
 30
0.0
  9
$UCSYDIR
 10
0.0
 20
1.0
 30
0.0
  9
$PUCSNAME
  2

  9
$PUCSORG
 10
0.0
 20
0.0
 30
0.0
  9
$PUCSXDIR
 10
1.0
 20
0.0
 30
0.0
  9
$PUCSYDIR
 10
0.0
 20
1.0
 30
0.0
  9
$USERI1
 70
     0
  9
$USERI2
 70
     0
  9
$USERI3
 70
     0
  9
$USERI4
 70
     0
  9
$USERI5
 70
     0
  9
$USERR1
 40
0.0
  9
$USERR2
 40
0.0
  9
$USERR3
 40
0.0
  9
$USERR4
 40
0.0
  9
$USERR5
 40
0.0
  9
$WORLDVIEW
 70
     1
  9
$SHADEDGE
 70
     3
  9
$SHADEDIF
 70
    70
  9
$TILEMODE
 70
     1
  9
$MAXACTVP
 70
    64
  9
$PLIMCHECK
 70
     0
  9
$PEXTMIN
 10
1.0000000000000000E+20
 20
1.0000000000000000E+20
 30
1.0000000000000000E+20
  9
$PEXTMAX
 10
-1.0000000000000000E+20
 20
-1.0000000000000000E+20
 30
-1.0000000000000000E+20
  9
$PLIMMIN
 10
0.0
 20
0.0
  9
$PLIMMAX
 10
12.0
 20
9.0
  9
$UNITMODE
 70
     0
  9
$VISRETAIN
 70
     1
  9
$PLINEGEN
 70
     0
  9
$PSLTSCALE
 70
     1
  0
ENDSEC
  0
SECTION
  2
TABLES
  0
TABLE
  2
VPORT
 70
     1
  0
VPORT
  2
*ACTIVE
 70
     0
 10
0.0
 20
0.0
 11
1.0
 21
1.0
 12
7.3989129166110379
 22
6.9960774521510478
 13
0.0
 23
0.0
 14
1.0
 24
1.0
 15
0.0
 25
0.0
 16
0.0
 26
0.0
 36
1.0
 17
0.0
 27
0.0
 37
0.0
 40
12.8704762983521803
 41
2.1475869809203139
 42
50.0
 43
0.0
 44
0.0
 50
0.0
 51
0.0
 71
     0
 72
   100
 73
     1
 74
     1
 75
     0
 76
     0
 77
     0
 78
     0
  0
ENDTAB
  0
TABLE
  2
LTYPE
 70
     2
  0
LTYPE
  2
CONTINUOUS
 70
     0
  3
Solid line
 72
    65
 73
     0
 40
0.0
  0
LTYPE
  2
AUSGEZOGEN
 70
     0
  3
Ausgezogenen Linie
 72
    65
 73
     0
 40
0.0
  0
ENDTAB
  0
TABLE
  2
LAYER
 70
   256
  0
LAYER
  2
0
 70
     0
 62
     7
  6
AUSGEZOGEN
  0
LAYER
  2
1
 70
     0
 62
     1
  6
AUSGEZOGEN
  0
LAYER
  2
2
 70
     0
 62
     2
  6
AUSGEZOGEN
  0
LAYER
  2
3
 70
     0
 62
     3
  6
AUSGEZOGEN
  0
LAYER
  2
4
 70
     0
 62
     4
  6
AUSGEZOGEN
  0
LAYER
  2
5
 70
     0
 62
     5
  6
AUSGEZOGEN
  0
LAYER
  2
6
 70
     0
 62
     6
  6
AUSGEZOGEN
  0
LAYER
  2
7
 70
     0
 62
     7
  6
AUSGEZOGEN
  0
LAYER
  2
8
 70
     0
 62
     8
  6
AUSGEZOGEN
  0
LAYER
  2
9
 70
     0
 62
     9
  6
AUSGEZOGEN
  0
LAYER
  2
10
 70
     0
 62
    10
  6
AUSGEZOGEN
  0
LAYER
  2
11
 70
     0
 62
    11
  6
AUSGEZOGEN
  0
LAYER
  2
12
 70
     0
 62
    12
  6
AUSGEZOGEN
  0
LAYER
  2
13
 70
     0
 62
    13
  6
AUSGEZOGEN
  0
LAYER
  2
14
 70
     0
 62
    14
  6
AUSGEZOGEN
  0
LAYER
  2
15
 70
     0
 62
    15
  6
AUSGEZOGEN
  0
LAYER
  2
16
 70
     0
 62
    16
  6
AUSGEZOGEN
  0
LAYER
  2
17
 70
     0
 62
    17
  6
AUSGEZOGEN
  0
LAYER
  2
18
 70
     0
 62
    18
  6
AUSGEZOGEN
  0
LAYER
  2
19
 70
     0
 62
    19
  6
AUSGEZOGEN
  0
LAYER
  2
20
 70
     0
 62
    20
  6
AUSGEZOGEN
  0
LAYER
  2
21
 70
     0
 62
    21
  6
AUSGEZOGEN
  0
LAYER
  2
22
 70
     0
 62
    22
  6
AUSGEZOGEN
  0
LAYER
  2
23
 70
     0
 62
    23
  6
AUSGEZOGEN
  0
LAYER
  2
24
 70
     0
 62
    24
  6
AUSGEZOGEN
  0
LAYER
  2
25
 70
     0
 62
    25
  6
AUSGEZOGEN
  0
LAYER
  2
26
 70
     0
 62
    26
  6
AUSGEZOGEN
  0
LAYER
  2
27
 70
     0
 62
    27
  6
AUSGEZOGEN
  0
LAYER
  2
28
 70
     0
 62
    28
  6
AUSGEZOGEN
  0
LAYER
  2
29
 70
     0
 62
    29
  6
AUSGEZOGEN
  0
LAYER
  2
30
 70
     0
 62
    30
  6
AUSGEZOGEN
  0
LAYER
  2
31
 70
     0
 62
    31
  6
AUSGEZOGEN
  0
LAYER
  2
32
 70
     0
 62
    32
  6
AUSGEZOGEN
  0
LAYER
  2
33
 70
     0
 62
    33
  6
AUSGEZOGEN
  0
LAYER
  2
34
 70
     0
 62
    34
  6
AUSGEZOGEN
  0
LAYER
  2
35
 70
     0
 62
    35
  6
AUSGEZOGEN
  0
LAYER
  2
36
 70
     0
 62
    36
  6
AUSGEZOGEN
  0
LAYER
  2
37
 70
     0
 62
    37
  6
AUSGEZOGEN
  0
LAYER
  2
38
 70
     0
 62
    38
  6
AUSGEZOGEN
  0
LAYER
  2
39
 70
     0
 62
    39
  6
AUSGEZOGEN
  0
LAYER
  2
40
 70
     0
 62
    40
  6
AUSGEZOGEN
  0
LAYER
  2
41
 70
     0
 62
    41
  6
AUSGEZOGEN
  0
LAYER
  2
42
 70
     0
 62
    42
  6
AUSGEZOGEN
  0
LAYER
  2
43
 70
     0
 62
    43
  6
AUSGEZOGEN
  0
LAYER
  2
44
 70
     0
 62
    44
  6
AUSGEZOGEN
  0
LAYER
  2
45
 70
     0
 62
    45
  6
AUSGEZOGEN
  0
LAYER
  2
46
 70
     0
 62
    46
  6
AUSGEZOGEN
  0
LAYER
  2
47
 70
     0
 62
    47
  6
AUSGEZOGEN
  0
LAYER
  2
48
 70
     0
 62
    48
  6
AUSGEZOGEN
  0
LAYER
  2
49
 70
     0
 62
    49
  6
AUSGEZOGEN
  0
LAYER
  2
50
 70
     0
 62
    50
  6
AUSGEZOGEN
  0
LAYER
  2
51
 70
     0
 62
    51
  6
AUSGEZOGEN
  0
LAYER
  2
52
 70
     0
 62
    52
  6
AUSGEZOGEN
  0
LAYER
  2
53
 70
     0
 62
    53
  6
AUSGEZOGEN
  0
LAYER
  2
54
 70
     0
 62
    54
  6
AUSGEZOGEN
  0
LAYER
  2
55
 70
     0
 62
    55
  6
AUSGEZOGEN
  0
LAYER
  2
56
 70
     0
 62
    56
  6
AUSGEZOGEN
  0
LAYER
  2
57
 70
     0
 62
    57
  6
AUSGEZOGEN
  0
LAYER
  2
58
 70
     0
 62
    58
  6
AUSGEZOGEN
  0
LAYER
  2
59
 70
     0
 62
    59
  6
AUSGEZOGEN
  0
LAYER
  2
60
 70
     0
 62
    60
  6
AUSGEZOGEN
  0
LAYER
  2
61
 70
     0
 62
    61
  6
AUSGEZOGEN
  0
LAYER
  2
62
 70
     0
 62
    62
  6
AUSGEZOGEN
  0
LAYER
  2
63
 70
     0
 62
    63
  6
AUSGEZOGEN
  0
LAYER
  2
64
 70
     0
 62
    64
  6
AUSGEZOGEN
  0
LAYER
  2
65
 70
     0
 62
    65
  6
AUSGEZOGEN
  0
LAYER
  2
66
 70
     0
 62
    66
  6
AUSGEZOGEN
  0
LAYER
  2
67
 70
     0
 62
    67
  6
AUSGEZOGEN
  0
LAYER
  2
68
 70
     0
 62
    68
  6
AUSGEZOGEN
  0
LAYER
  2
69
 70
     0
 62
    69
  6
AUSGEZOGEN
  0
LAYER
  2
70
 70
     0
 62
    70
  6
AUSGEZOGEN
  0
LAYER
  2
71
 70
     0
 62
    71
  6
AUSGEZOGEN
  0
LAYER
  2
72
 70
     0
 62
    72
  6
AUSGEZOGEN
  0
LAYER
  2
73
 70
     0
 62
    73
  6
AUSGEZOGEN
  0
LAYER
  2
74
 70
     0
 62
    74
  6
AUSGEZOGEN
  0
LAYER
  2
75
 70
     0
 62
    75
  6
AUSGEZOGEN
  0
LAYER
  2
76
 70
     0
 62
    76
  6
AUSGEZOGEN
  0
LAYER
  2
77
 70
     0
 62
    77
  6
AUSGEZOGEN
  0
LAYER
  2
78
 70
     0
 62
    78
  6
AUSGEZOGEN
  0
LAYER
  2
79
 70
     0
 62
    79
  6
AUSGEZOGEN
  0
LAYER
  2
80
 70
     0
 62
    80
  6
AUSGEZOGEN
  0
LAYER
  2
81
 70
     0
 62
    81
  6
AUSGEZOGEN
  0
LAYER
  2
82
 70
     0
 62
    82
  6
AUSGEZOGEN
  0
LAYER
  2
83
 70
     0
 62
    83
  6
AUSGEZOGEN
  0
LAYER
  2
84
 70
     0
 62
    84
  6
AUSGEZOGEN
  0
LAYER
  2
85
 70
     0
 62
    85
  6
AUSGEZOGEN
  0
LAYER
  2
86
 70
     0
 62
    86
  6
AUSGEZOGEN
  0
LAYER
  2
87
 70
     0
 62
    87
  6
AUSGEZOGEN
  0
LAYER
  2
88
 70
     0
 62
    88
  6
AUSGEZOGEN
  0
LAYER
  2
89
 70
     0
 62
    89
  6
AUSGEZOGEN
  0
LAYER
  2
90
 70
     0
 62
    90
  6
AUSGEZOGEN
  0
LAYER
  2
91
 70
     0
 62
    91
  6
AUSGEZOGEN
  0
LAYER
  2
92
 70
     0
 62
    92
  6
AUSGEZOGEN
  0
LAYER
  2
93
 70
     0
 62
    93
  6
AUSGEZOGEN
  0
LAYER
  2
94
 70
     0
 62
    94
  6
AUSGEZOGEN
  0
LAYER
  2
95
 70
     0
 62
    95
  6
AUSGEZOGEN
  0
LAYER
  2
96
 70
     0
 62
    96
  6
AUSGEZOGEN
  0
LAYER
  2
97
 70
     0
 62
    97
  6
AUSGEZOGEN
  0
LAYER
  2
98
 70
     0
 62
    98
  6
AUSGEZOGEN
  0
LAYER
  2
99
 70
     0
 62
    99
  6
AUSGEZOGEN
  0
LAYER
  2
100
 70
     0
 62
   100
  6
AUSGEZOGEN
  0
LAYER
  2
101
 70
     0
 62
   101
  6
AUSGEZOGEN
  0
LAYER
  2
102
 70
     0
 62
   102
  6
AUSGEZOGEN
  0
LAYER
  2
103
 70
     0
 62
   103
  6
AUSGEZOGEN
  0
LAYER
  2
104
 70
     0
 62
   104
  6
AUSGEZOGEN
  0
LAYER
  2
105
 70
     0
 62
   105
  6
AUSGEZOGEN
  0
LAYER
  2
106
 70
     0
 62
   106
  6
AUSGEZOGEN
  0
LAYER
  2
107
 70
     0
 62
   107
  6
AUSGEZOGEN
  0
LAYER
  2
108
 70
     0
 62
   108
  6
AUSGEZOGEN
  0
LAYER
  2
109
 70
     0
 62
   109
  6
AUSGEZOGEN
  0
LAYER
  2
110
 70
     0
 62
   110
  6
AUSGEZOGEN
  0
LAYER
  2
111
 70
     0
 62
   111
  6
AUSGEZOGEN
  0
LAYER
  2
112
 70
     0
 62
   112
  6
AUSGEZOGEN
  0
LAYER
  2
113
 70
     0
 62
   113
  6
AUSGEZOGEN
  0
LAYER
  2
114
 70
     0
 62
   114
  6
AUSGEZOGEN
  0
LAYER
  2
115
 70
     0
 62
   115
  6
AUSGEZOGEN
  0
LAYER
  2
116
 70
     0
 62
   116
  6
AUSGEZOGEN
  0
LAYER
  2
117
 70
     0
 62
   117
  6
AUSGEZOGEN
  0
LAYER
  2
118
 70
     0
 62
   118
  6
AUSGEZOGEN
  0
LAYER
  2
119
 70
     0
 62
   119
  6
AUSGEZOGEN
  0
LAYER
  2
120
 70
     0
 62
   120
  6
AUSGEZOGEN
  0
LAYER
  2
121
 70
     0
 62
   121
  6
AUSGEZOGEN
  0
LAYER
  2
122
 70
     0
 62
   122
  6
AUSGEZOGEN
  0
LAYER
  2
123
 70
     0
 62
   123
  6
AUSGEZOGEN
  0
LAYER
  2
124
 70
     0
 62
   124
  6
AUSGEZOGEN
  0
LAYER
  2
125
 70
     0
 62
   125
  6
AUSGEZOGEN
  0
LAYER
  2
126
 70
     0
 62
   126
  6
AUSGEZOGEN
  0
LAYER
  2
127
 70
     0
 62
   127
  6
AUSGEZOGEN
  0
LAYER
  2
128
 70
     0
 62
   128
  6
AUSGEZOGEN
  0
LAYER
  2
129
 70
     0
 62
   129
  6
AUSGEZOGEN
  0
LAYER
  2
130
 70
     0
 62
   130
  6
AUSGEZOGEN
  0
LAYER
  2
131
 70
     0
 62
   131
  6
AUSGEZOGEN
  0
LAYER
  2
132
 70
     0
 62
   132
  6
AUSGEZOGEN
  0
LAYER
  2
133
 70
     0
 62
   133
  6
AUSGEZOGEN
  0
LAYER
  2
134
 70
     0
 62
   134
  6
AUSGEZOGEN
  0
LAYER
  2
135
 70
     0
 62
   135
  6
AUSGEZOGEN
  0
LAYER
  2
136
 70
     0
 62
   136
  6
AUSGEZOGEN
  0
LAYER
  2
137
 70
     0
 62
   137
  6
AUSGEZOGEN
  0
LAYER
  2
138
 70
     0
 62
   138
  6
AUSGEZOGEN
  0
LAYER
  2
139
 70
     0
 62
   139
  6
AUSGEZOGEN
  0
LAYER
  2
140
 70
     0
 62
   140
  6
AUSGEZOGEN
  0
LAYER
  2
141
 70
     0
 62
   141
  6
AUSGEZOGEN
  0
LAYER
  2
142
 70
     0
 62
   142
  6
AUSGEZOGEN
  0
LAYER
  2
143
 70
     0
 62
   143
  6
AUSGEZOGEN
  0
LAYER
  2
144
 70
     0
 62
   144
  6
AUSGEZOGEN
  0
LAYER
  2
145
 70
     0
 62
   145
  6
AUSGEZOGEN
  0
LAYER
  2
146
 70
     0
 62
   146
  6
AUSGEZOGEN
  0
LAYER
  2
147
 70
     0
 62
   147
  6
AUSGEZOGEN
  0
LAYER
  2
148
 70
     0
 62
   148
  6
AUSGEZOGEN
  0
LAYER
  2
149
 70
     0
 62
   149
  6
AUSGEZOGEN
  0
LAYER
  2
150
 70
     0
 62
   150
  6
AUSGEZOGEN
  0
LAYER
  2
151
 70
     0
 62
   151
  6
AUSGEZOGEN
  0
LAYER
  2
152
 70
     0
 62
   152
  6
AUSGEZOGEN
  0
LAYER
  2
153
 70
     0
 62
   153
  6
AUSGEZOGEN
  0
LAYER
  2
154
 70
     0
 62
   154
  6
AUSGEZOGEN
  0
LAYER
  2
155
 70
     0
 62
   155
  6
AUSGEZOGEN
  0
LAYER
  2
156
 70
     0
 62
   156
  6
AUSGEZOGEN
  0
LAYER
  2
157
 70
     0
 62
   157
  6
AUSGEZOGEN
  0
LAYER
  2
158
 70
     0
 62
   158
  6
AUSGEZOGEN
  0
LAYER
  2
159
 70
     0
 62
   159
  6
AUSGEZOGEN
  0
LAYER
  2
160
 70
     0
 62
   160
  6
AUSGEZOGEN
  0
LAYER
  2
161
 70
     0
 62
   161
  6
AUSGEZOGEN
  0
LAYER
  2
162
 70
     0
 62
   162
  6
AUSGEZOGEN
  0
LAYER
  2
163
 70
     0
 62
   163
  6
AUSGEZOGEN
  0
LAYER
  2
164
 70
     0
 62
   164
  6
AUSGEZOGEN
  0
LAYER
  2
165
 70
     0
 62
   165
  6
AUSGEZOGEN
  0
LAYER
  2
166
 70
     0
 62
   166
  6
AUSGEZOGEN
  0
LAYER
  2
167
 70
     0
 62
   167
  6
AUSGEZOGEN
  0
LAYER
  2
168
 70
     0
 62
   168
  6
AUSGEZOGEN
  0
LAYER
  2
169
 70
     0
 62
   169
  6
AUSGEZOGEN
  0
LAYER
  2
170
 70
     0
 62
   170
  6
AUSGEZOGEN
  0
LAYER
  2
171
 70
     0
 62
   171
  6
AUSGEZOGEN
  0
LAYER
  2
172
 70
     0
 62
   172
  6
AUSGEZOGEN
  0
LAYER
  2
173
 70
     0
 62
   173
  6
AUSGEZOGEN
  0
LAYER
  2
174
 70
     0
 62
   174
  6
AUSGEZOGEN
  0
LAYER
  2
175
 70
     0
 62
   175
  6
AUSGEZOGEN
  0
LAYER
  2
176
 70
     0
 62
   176
  6
AUSGEZOGEN
  0
LAYER
  2
177
 70
     0
 62
   177
  6
AUSGEZOGEN
  0
LAYER
  2
178
 70
     0
 62
   178
  6
AUSGEZOGEN
  0
LAYER
  2
179
 70
     0
 62
   179
  6
AUSGEZOGEN
  0
LAYER
  2
180
 70
     0
 62
   180
  6
AUSGEZOGEN
  0
LAYER
  2
181
 70
     0
 62
   181
  6
AUSGEZOGEN
  0
LAYER
  2
182
 70
     0
 62
   182
  6
AUSGEZOGEN
  0
LAYER
  2
183
 70
     0
 62
   183
  6
AUSGEZOGEN
  0
LAYER
  2
184
 70
     0
 62
   184
  6
AUSGEZOGEN
  0
LAYER
  2
185
 70
     0
 62
   185
  6
AUSGEZOGEN
  0
LAYER
  2
186
 70
     0
 62
   186
  6
AUSGEZOGEN
  0
LAYER
  2
187
 70
     0
 62
   187
  6
AUSGEZOGEN
  0
LAYER
  2
188
 70
     0
 62
   188
  6
AUSGEZOGEN
  0
LAYER
  2
189
 70
     0
 62
   189
  6
AUSGEZOGEN
  0
LAYER
  2
190
 70
     0
 62
   190
  6
AUSGEZOGEN
  0
LAYER
  2
191
 70
     0
 62
   191
  6
AUSGEZOGEN
  0
LAYER
  2
192
 70
     0
 62
   192
  6
AUSGEZOGEN
  0
LAYER
  2
193
 70
     0
 62
   193
  6
AUSGEZOGEN
  0
LAYER
  2
194
 70
     0
 62
   194
  6
AUSGEZOGEN
  0
LAYER
  2
195
 70
     0
 62
   195
  6
AUSGEZOGEN
  0
LAYER
  2
196
 70
     0
 62
   196
  6
AUSGEZOGEN
  0
LAYER
  2
197
 70
     0
 62
   197
  6
AUSGEZOGEN
  0
LAYER
  2
198
 70
     0
 62
   198
  6
AUSGEZOGEN
  0
LAYER
  2
199
 70
     0
 62
   199
  6
AUSGEZOGEN
  0
LAYER
  2
200
 70
     0
 62
   200
  6
AUSGEZOGEN
  0
LAYER
  2
201
 70
     0
 62
   201
  6
AUSGEZOGEN
  0
LAYER
  2
202
 70
     0
 62
   202
  6
AUSGEZOGEN
  0
LAYER
  2
203
 70
     0
 62
   203
  6
AUSGEZOGEN
  0
LAYER
  2
204
 70
     0
 62
   204
  6
AUSGEZOGEN
  0
LAYER
  2
205
 70
     0
 62
   205
  6
AUSGEZOGEN
  0
LAYER
  2
206
 70
     0
 62
   206
  6
AUSGEZOGEN
  0
LAYER
  2
207
 70
     0
 62
   207
  6
AUSGEZOGEN
  0
LAYER
  2
208
 70
     0
 62
   208
  6
AUSGEZOGEN
  0
LAYER
  2
209
 70
     0
 62
   209
  6
AUSGEZOGEN
  0
LAYER
  2
210
 70
     0
 62
   210
  6
AUSGEZOGEN
  0
LAYER
  2
211
 70
     0
 62
   211
  6
AUSGEZOGEN
  0
LAYER
  2
212
 70
     0
 62
   212
  6
AUSGEZOGEN
  0
LAYER
  2
213
 70
     0
 62
   213
  6
AUSGEZOGEN
  0
LAYER
  2
214
 70
     0
 62
   214
  6
AUSGEZOGEN
  0
LAYER
  2
215
 70
     0
 62
   215
  6
AUSGEZOGEN
  0
LAYER
  2
216
 70
     0
 62
   216
  6
AUSGEZOGEN
  0
LAYER
  2
217
 70
     0
 62
   217
  6
AUSGEZOGEN
  0
LAYER
  2
218
 70
     0
 62
   218
  6
AUSGEZOGEN
  0
LAYER
  2
219
 70
     0
 62
   219
  6
AUSGEZOGEN
  0
LAYER
  2
220
 70
     0
 62
   220
  6
AUSGEZOGEN
  0
LAYER
  2
221
 70
     0
 62
   221
  6
AUSGEZOGEN
  0
LAYER
  2
222
 70
     0
 62
   222
  6
AUSGEZOGEN
  0
LAYER
  2
223
 70
     0
 62
   223
  6
AUSGEZOGEN
  0
LAYER
  2
224
 70
     0
 62
   224
  6
AUSGEZOGEN
  0
LAYER
  2
225
 70
     0
 62
   225
  6
AUSGEZOGEN
  0
LAYER
  2
226
 70
     0
 62
   226
  6
AUSGEZOGEN
  0
LAYER
  2
227
 70
     0
 62
   227
  6
AUSGEZOGEN
  0
LAYER
  2
228
 70
     0
 62
   228
  6
AUSGEZOGEN
  0
LAYER
  2
229
 70
     0
 62
   229
  6
AUSGEZOGEN
  0
LAYER
  2
230
 70
     0
 62
   230
  6
AUSGEZOGEN
  0
LAYER
  2
231
 70
     0
 62
   231
  6
AUSGEZOGEN
  0
LAYER
  2
232
 70
     0
 62
   232
  6
AUSGEZOGEN
  0
LAYER
  2
233
 70
     0
 62
   233
  6
AUSGEZOGEN
  0
LAYER
  2
234
 70
     0
 62
   234
  6
AUSGEZOGEN
  0
LAYER
  2
235
 70
     0
 62
   235
  6
AUSGEZOGEN
  0
LAYER
  2
236
 70
     0
 62
   236
  6
AUSGEZOGEN
  0
LAYER
  2
237
 70
     0
 62
   237
  6
AUSGEZOGEN
  0
LAYER
  2
238
 70
     0
 62
   238
  6
AUSGEZOGEN
  0
LAYER
  2
239
 70
     0
 62
   239
  6
AUSGEZOGEN
  0
LAYER
  2
240
 70
     0
 62
   240
  6
AUSGEZOGEN
  0
LAYER
  2
241
 70
     0
 62
   241
  6
AUSGEZOGEN
  0
LAYER
  2
242
 70
     0
 62
   242
  6
AUSGEZOGEN
  0
LAYER
  2
243
 70
     0
 62
   243
  6
AUSGEZOGEN
  0
LAYER
  2
244
 70
     0
 62
   244
  6
AUSGEZOGEN
  0
LAYER
  2
245
 70
     0
 62
   245
  6
AUSGEZOGEN
  0
LAYER
  2
246
 70
     0
 62
   246
  6
AUSGEZOGEN
  0
LAYER
  2
247
 70
     0
 62
   247
  6
AUSGEZOGEN
  0
LAYER
  2
248
 70
     0
 62
   248
  6
AUSGEZOGEN
  0
LAYER
  2
249
 70
     0
 62
   249
  6
AUSGEZOGEN
  0
LAYER
  2
250
 70
     0
 62
   250
  6
AUSGEZOGEN
  0
LAYER
  2
251
 70
     0
 62
   251
  6
AUSGEZOGEN
  0
LAYER
  2
252
 70
     0
 62
   252
  6
AUSGEZOGEN
  0
LAYER
  2
253
 70
     0
 62
   253
  6
AUSGEZOGEN
  0
LAYER
  2
254
 70
     0
 62
   254
  6
AUSGEZOGEN
  0
LAYER
  2
255
 70
     0
 62
   255
  6
AUSGEZOGEN
  0
ENDTAB
  0
TABLE
  2
STYLE
 70
     2
  0
STYLE
  2
STANDARD
 70
     0
 40
0.0
 41
1.0
 50
0.0
 71
     0
 42
0.2
  3
txt
  4

  0
STYLE
  2
ANNOTATIVE
 70
     0
 40
0.0
 41
1.0
 50
0.0
 71
     0
 42
0.2
  3
txt
  4

  0
ENDTAB
  0
TABLE
  2
VIEW
 70
     0
  0
ENDTAB
  0
TABLE
  2
UCS
 70
     0
  0
ENDTAB
  0
TABLE
  2
APPID
 70
     5
  0
APPID
  2
ACAD
 70
     0
  0
APPID
  2
ACADANNOTATIVE
 70
     0
  0
APPID
  2
ACAD_NAV_VCDISPLAY
 70
     0
  0
APPID
  2
ACAD_EXEMPT_FROM_CAD_STANDARDS
 70
     0
  0
APPID
  2
ACAD_MLEADERVER
 70
     0
  0
ENDTAB
  0
TABLE
  2
DIMSTYLE
 70
     2
  0
DIMSTYLE
  2
STANDARD
 70
     0
  3

  4

  5

  6

  7

 40
1.0
 41
0.18
 42
0.0625
 43
0.38
 44
0.18
 45
0.0
 46
0.0
 47
0.0
 48
0.0
140
0.18
141
0.09
142
0.0
143
25.3999999999999986
144
1.0
145
0.0
146
1.0
147
0.09
 71
     0
 72
     0
 73
     1
 74
     1
 75
     0
 76
     0
 77
     0
 78
     0
170
     0
171
     2
172
     0
173
     0
174
     0
175
     0
176
     0
177
     0
178
     0
  0
DIMSTYLE
  2
ANNOTATIVE
 70
     0
  3

  4

  5

  6

  7

 40
1.0
 41
0.18
 42
0.0625
 43
0.38
 44
0.18
 45
0.0
 46
0.0
 47
0.0
 48
0.0
140
0.18
141
0.09
142
0.0
143
25.3999999999999986
144
1.0
145
0.0
146
1.0
147
0.09
 71
     0
 72
     0
 73
     1
 74
     1
 75
     0
 76
     0
 77
     0
 78
     0
170
     0
171
     2
172
     0
173
     0
174
     0
175
     0
176
     0
177
     0
178
     0
  0
ENDTAB
  0
ENDSEC
  0
SECTION
  2
BLOCKS
  0
BLOCK
  8
0
  2
$MODEL_SPACE
 70
     0
 10
0.0
 20
0.0
 30
0.0
  3
$MODEL_SPACE
  1

  0
ENDBLK
  5
71
  8
0
  0
BLOCK
 67
     1
  8
0
  2
$PAPER_SPACE
 70
     0
 10
0.0
 20
0.0
 30
0.0
  3
$PAPER_SPACE
  1

  0
ENDBLK
  5
6D
 67
     1
  8
0
  0
ENDSEC
  0
SECTION
  2
ENTITIES
  0
POLYLINE
  5
2C7
  8
0
 62
     0
 66
     1
 10
0.0
 20
0.0
 30
0.0
  0
VERTEX
  5
D8C
  8
0
 62
     0
 10
7.9567775726318386
 20
9.2023744583129901
 30
0.0
  0
VERTEX
  5
D8D
  8
0
 62
     0
 10
-1.8406668901443499
 20
9.2024030685424805
 30
0.0
  0
VERTEX
  5
D8E
  8
0
 62
     0
 10
-1.8406668901443499
 20
9.2024030685424805
 30
0.0
  0
VERTEX
  5
D8F
  8
0
 62
     0
 10
-1.9106919765472401
 20
9.1967344284057582
 30
0.0
  0
VERTEX
  5
D90
  8
0
 62
     0
 10
-1.977152943611149
 20
9.1803264617919904
 30
0.0
  0
VERTEX
  5
D91
  8
0
 62
     0
 10
-2.039153099060059
 20
9.1540784835815394
 30
0.0
  0
VERTEX
  5
D92
  8
0
 62
     0
 10
-2.0957956314086901
 20
9.1188840866088903
 30
0.0
  0
VERTEX
  5
D93
  8
0
 62
     0
 10
-2.1461839675903289
 20
9.0756416320800781
 30
0.0
  0
VERTEX
  5
D94
  8
0
 62
     0
 10
-2.189421653747559
 20
9.0252494812011701
 30
0.0
  0
VERTEX
  5
D95
  8
0
 62
     0
 10
-2.2246119976043701
 20
8.9686031341552699
 30
0.0
  0
VERTEX
  5
D96
  8
0
 62
     0
 10
-2.2508578300476092
 20
8.9065999984741193
 30
0.0
  0
VERTEX
  5
D97
  8
0
 62
     0
 10
-2.2672629356384291
 20
8.8401374816894496
 30
0.0
  0
VERTEX
  5
D98
  8
0
 62
     0
 10
-2.2729306221008301
 20
8.7701110839843803
 30
0.0
  0
VERTEX
  5
D99
  8
0
 62
     0
 10
-2.2729306221008301
 20
8.7701110839843803
 30
0.0
  0
VERTEX
  5
D9A
  8
0
 62
     0
 10
-2.2729306221008301
 20
8.7701110839843803
 30
0.0
  0
VERTEX
  5
D9B
  8
0
 62
     0
 10
-2.2672629356384291
 20
8.7000932693481392
 30
0.0
  0
VERTEX
  5
D9C
  8
0
 62
     0
 10
-2.2508578300476092
 20
8.6336383819580096
 30
0.0
  0
VERTEX
  5
D9D
  8
0
 62
     0
 10
-2.2246119976043701
 20
8.5716428756713885
 30
0.0
  0
VERTEX
  5
D9E
  8
0
 62
     0
 10
-2.189421653747559
 20
8.5150032043457013
 30
0.0
  0
VERTEX
  5
D9F
  8
0
 62
     0
 10
-2.1461839675903289
 20
8.4646177291870082
 30
0.0
  0
VERTEX
  5
DA0
  8
0
 62
     0
 10
-2.0957956314086901
 20
8.4213819503784197
 30
0.0
  0
VERTEX
  5
DA1
  8
0
 62
     0
 10
-2.039153099060059
 20
8.3861923217773402
 30
0.0
  0
VERTEX
  5
DA2
  8
0
 62
     0
 10
-1.977152943611149
 20
8.3599472045898402
 30
0.0
  0
VERTEX
  5
DA3
  8
0
 62
     0
 10
-1.9106919765472401
 20
8.3435420989990199
 30
0.0
  0
VERTEX
  5
DA4
  8
0
 62
     0
 10
-1.8406668901443499
 20
8.3378744125366193
 30
0.0
  0
VERTEX
  5
DA5
  8
0
 62
     0
 10
-1.8406668901443499
 20
8.3378744125366193
 30
0.0
  0
VERTEX
  5
DA6
  8
0
 62
     0
 10
0.6017363071441652
 20
8.3548889160156303
 30
0.0
  0
VERTEX
  5
DA7
  8
0
 62
     0
 10
0.6017363071441652
 20
8.3548889160156303
 30
0.0
  0
VERTEX
  5
DA8
  8
0
 62
     0
 10
0.6174243688583371
 20
8.3536157608032209
 30
0.0
  0
VERTEX
  5
DA9
  8
0
 62
     0
 10
0.632335007190704
 20
8.3499298095703107
 30
0.0
  0
VERTEX
  5
DAA
  8
0
 62
     0
 10
0.646262407302856
 20
8.3440332412719709
 30
0.0
  0
VERTEX
  5
DAB
  8
0
 62
     0
 10
0.65900057554245
 20
8.3361272811889595
 30
0.0
  0
VERTEX
  5
DAC
  8
0
 62
     0
 10
0.6703436970710749
 20
8.32641506195068
 30
0.0
  0
VERTEX
  5
DAD
  8
0
 62
     0
 10
0.680086076259613
 20
8.3150968551635707
 30
0.0
  0
VERTEX
  5
DAE
  8
0
 62
     0
 10
0.6880217790603642
 20
8.3023748397827095
 30
0.0
  0
VERTEX
  5
DAF
  8
0
 62
     0
 10
0.6939449906349179
 20
8.28845119476318
 30
0.0
  0
VERTEX
  5
DB0
  8
0
 62
     0
 10
0.6976498365402221
 20
8.2735280990600604
 30
0.0
  0
VERTEX
  5
DB1
  8
0
 62
     0
 10
0.6989305019378659
 20
8.2578058242797905
 30
0.0
  0
VERTEX
  5
DB2
  8
0
 62
     0
 10
0.6989305019378659
 20
8.2578058242797905
 30
0.0
  0
VERTEX
  5
DB3
  8
0
 62
     0
 10
0.6989305019378659
 20
8.2578058242797905
 30
0.0
  0
VERTEX
  5
DB4
  8
0
 62
     0
 10
0.697657406330109
 20
8.2420730590820295
 30
0.0
  0
VERTEX
  5
DB5
  8
0
 62
     0
 10
0.693972527980804
 20
8.2271423339843803
 30
0.0
  0
VERTEX
  5
DB6
  8
0
 62
     0
 10
0.6880772709846501
 20
8.2132148742675781
 30
0.0
  0
VERTEX
  5
DB7
  8
0
 62
     0
 10
0.6801732182502751
 20
8.2004909515380895
 30
0.0
  0
VERTEX
  5
DB8
  8
0
 62
     0
 10
0.6704618930816652
 20
8.1891736984252912
 30
0.0
  0
VERTEX
  5
DB9
  8
0
 62
     0
 10
0.6591446399688721
 20
8.1794624328613281
 30
0.0
  0
VERTEX
  5
DBA
  8
0
 62
     0
 10
0.646423101425171
 20
8.1715583801269513
 30
0.0
  0
VERTEX
  5
DBB
  8
0
 62
     0
 10
0.632498681545258
 20
8.1656646728515607
 30
0.0
  0
VERTEX
  5
DBC
  8
0
 62
     0
 10
0.6175729632377621
 20
8.1619806289672905
 30
0.0
  0
VERTEX
  5
DBD
  8
0
 62
     0
 10
0.6018473505973821
 20
8.1607084274291992
 30
0.0
  0
VERTEX
  5
DBE
  8
0
 62
     0
 10
0.6018473505973821
 20
8.1607084274291992
 30
0.0
  0
VERTEX
  5
DBF
  8
0
 62
     0
 10
-2.945166587829589
 20
8.1359720230102504
 30
0.0
  0
VERTEX
  5
DC0
  8
0
 62
     0
 10
-2.945166587829589
 20
8.1359720230102504
 30
0.0
  0
VERTEX
  5
DC1
  8
0
 62
     0
 10
-3.01514768600464
 20
8.1303033828735405
 30
0.0
  0
VERTEX
  5
DC2
  8
0
 62
     0
 10
-3.081589698791499
 20
8.1138963699340803
 30
0.0
  0
VERTEX
  5
DC3
  8
0
 62
     0
 10
-3.1435911655425999
 20
8.087648391723631
 30
0.0
  0
VERTEX
  5
DC4
  8
0
 62
     0
 10
-3.2002506256103498
 20
8.0524549484252912
 30
0.0
  0
VERTEX
  5
DC5
  8
0
 62
     0
 10
-3.2506666183471689
 20
8.0092144012451172
 30
0.0
  0
VERTEX
  5
DC6
  8
0
 62
     0
 10
-3.2939376831054701
 20
7.9588251113891602
 30
0.0
  0
VERTEX
  5
DC7
  8
0
 62
     0
 10
-3.3291618824005091
 20
7.90218162536621
 30
0.0
  0
VERTEX
  5
DC8
  8
0
 62
     0
 10
-3.3554384708404501
 20
7.8401837348937988
 30
0.0
  0
VERTEX
  5
DC9
  8
0
 62
     0
 10
-3.37186527252197
 20
7.7737264633178702
 30
0.0
  0
VERTEX
  5
DCA
  8
0
 62
     0
 10
-3.37754154205322
 20
7.7037081718444789
 30
0.0
  0
VERTEX
  5
DCB
  8
0
 62
     0
 10
-3.37754154205322
 20
7.7037081718444789
 30
0.0
  0
VERTEX
  5
DCC
  8
0
 62
     0
 10
-3.37754154205322
 20
7.7037081718444789
 30
0.0
  0
VERTEX
  5
DCD
  8
0
 62
     0
 10
-3.371873855590819
 20
7.6336822509765589
 30
0.0
  0
VERTEX
  5
DCE
  8
0
 62
     0
 10
-3.35546875
 20
7.567219257354739
 30
0.0
  0
VERTEX
  5
DCF
  8
0
 62
     0
 10
-3.32922267913818
 20
7.5052161216735804
 30
0.0
  0
VERTEX
  5
DD0
  8
0
 62
     0
 10
-3.294032573699949
 20
7.44856929779053
 30
0.0
  0
VERTEX
  5
DD1
  8
0
 62
     0
 10
-3.2507948875427202
 20
7.3981771469116202
 30
0.0
  0
VERTEX
  5
DD2
  8
0
 62
     0
 10
-3.2004063129424991
 20
7.3549356460571289
 30
0.0
  0
VERTEX
  5
DD3
  8
0
 62
     0
 10
-3.1437637805938698
 20
7.3197412490844691
 30
0.0
  0
VERTEX
  5
DD4
  8
0
 62
     0
 10
-3.0817637443542489
 20
7.2934927940368688
 30
0.0
  0
VERTEX
  5
DD5
  8
0
 62
     0
 10
-3.0153028964996289
 20
7.2770853042602504
 30
0.0
  0
VERTEX
  5
DD6
  8
0
 62
     0
 10
-2.945277690887449
 20
7.2714166641235387
 30
0.0
  0
VERTEX
  5
DD7
  8
0
 62
     0
 10
-2.945277690887449
 20
7.2714166641235387
 30
0.0
  0
VERTEX
  5
DD8
  8
0
 62
     0
 10
0.211083307862282
 20
7.2699718475341788
 30
0.0
  0
VERTEX
  5
DD9
  8
0
 62
     0
 10
0.211083307862282
 20
7.2699718475341788
 30
0.0
  0
VERTEX
  5
DDA
  8
0
 62
     0
 10
0.226823270320892
 20
7.26869869232178
 30
0.0
  0
VERTEX
  5
DDB
  8
0
 62
     0
 10
0.241759032011032
 20
7.26501369476318
 30
0.0
  0
VERTEX
  5
DDC
  8
0
 62
     0
 10
0.255689769983292
 20
7.2591171264648402
 30
0.0
  0
VERTEX
  5
DDD
  8
0
 62
     0
 10
0.268414616584778
 20
7.2512111663818386
 30
0.0
  0
VERTEX
  5
DDE
  8
0
 62
     0
 10
0.2797328233718869
 20
7.2414965629577601
 30
0.0
  0
VERTEX
  5
DDF
  8
0
 62
     0
 10
0.2894434630870819
 20
7.2301735877990687
 30
0.0
  0
VERTEX
  5
DE0
  8
0
 62
     0
 10
0.297345787286758
 20
7.2174453735351589
 30
0.0
  0
VERTEX
  5
DE1
  8
0
 62
     0
 10
0.303238958120346
 20
7.2035117149353001
 30
0.0
  0
VERTEX
  5
DE2
  8
0
 62
     0
 10
0.306922107934952
 20
7.188573837280269
 30
0.0
  0
VERTEX
  5
DE3
  8
0
 62
     0
 10
0.308194488286972
 20
7.1728329658508301
 30
0.0
  0
VERTEX
  5
DE4
  8
0
 62
     0
 10
0.308194488286972
 20
7.1728329658508301
 30
0.0
  0
VERTEX
  5
DE5
  8
0
 62
     0
 10
0.308194488286972
 20
7.1728329658508301
 30
0.0
  0
VERTEX
  5
DE6
  8
0
 62
     0
 10
0.306921392679214
 20
7.1571102142334011
 30
0.0
  0
VERTEX
  5
DE7
  8
0
 62
     0
 10
0.303236484527588
 20
7.142187118530269
 30
0.0
  0
VERTEX
  5
DE8
  8
0
 62
     0
 10
0.297341257333755
 20
7.1282634735107386
 30
0.0
  0
VERTEX
  5
DE9
  8
0
 62
     0
 10
0.28943720459938
 20
7.1155419349670401
 30
0.0
  0
VERTEX
  5
DEA
  8
0
 62
     0
 10
0.279725819826126
 20
7.1042237281799281
 30
0.0
  0
VERTEX
  5
DEB
  8
0
 62
     0
 10
0.268408596515656
 20
7.0945110321044886
 30
0.0
  0
VERTEX
  5
DEC
  8
0
 62
     0
 10
0.255687028169632
 20
7.086605548858639
 30
0.0
  0
VERTEX
  5
DED
  8
0
 62
     0
 10
0.241762608289719
 20
7.08070945739746
 30
0.0
  0
VERTEX
  5
DEE
  8
0
 62
     0
 10
0.226836860179901
 20
7.077023029327389
 30
0.0
  0
VERTEX
  5
DEF
  8
0
 62
     0
 10
0.211111277341843
 20
7.0757498741149902
 30
0.0
  0
VERTEX
  5
DF0
  8
0
 62
     0
 10
0.211111277341843
 20
7.0757498741149902
 30
0.0
  0
VERTEX
  5
DF1
  8
0
 62
     0
 10
-3.5758056640625
 20
6.928402423858639
 30
0.0
  0
VERTEX
  5
DF2
  8
0
 62
     0
 10
-3.5758056640625
 20
6.928402423858639
 30
0.0
  0
VERTEX
  5
DF3
  8
0
 62
     0
 10
-3.575924873352049
 20
6.9284005165100089
 30
0.0
  0
VERTEX
  5
DF4
  8
0
 62
     0
 10
-3.576068878173829
 20
6.9283962249755886
 30
0.0
  0
VERTEX
  5
DF5
  8
0
 62
     0
 10
-3.5762286186218302
 20
6.9283905029296902
 30
0.0
  0
VERTEX
  5
DF6
  8
0
 62
     0
 10
-3.5763952732086191
 20
6.9283828735351589
 30
0.0
  0
VERTEX
  5
DF7
  8
0
 62
     0
 10
-3.5765604972839391
 20
6.9283747673034686
 30
0.0
  0
VERTEX
  5
DF8
  8
0
 62
     0
 10
-3.5767152309417698
 20
6.92836666107178
 30
0.0
  0
VERTEX
  5
DF9
  8
0
 62
     0
 10
-3.576850891113279
 20
6.9283590316772488
 30
0.0
  0
VERTEX
  5
DFA
  8
0
 62
     0
 10
-3.57695865631104
 20
6.9283533096313503
 30
0.0
  0
VERTEX
  5
DFB
  8
0
 62
     0
 10
-3.5770297050476092
 20
6.9283490180969203
 30
0.0
  0
VERTEX
  5
DFC
  8
0
 62
     0
 10
-3.5770552158355691
 20
6.9283471107482901
 30
0.0
  0
VERTEX
  5
DFD
  8
0
 62
     0
 10
-3.5770552158355691
 20
6.9283471107482901
 30
0.0
  0
VERTEX
  5
DFE
  8
0
 62
     0
 10
-3.5770001411438002
 20
6.9283471107482901
 30
0.0
  0
VERTEX
  5
DFF
  8
0
 62
     0
 10
-3.5770001411438002
 20
6.9283471107482901
 30
0.0
  0
VERTEX
  5
E00
  8
0
 62
     0
 10
-3.6112759113311799
 20
6.9269194602966291
 30
0.0
  0
VERTEX
  5
E01
  8
0
 62
     0
 10
-3.645016908645629
 20
6.9228682518005389
 30
0.0
  0
VERTEX
  5
E02
  8
0
 62
     0
 10
-3.6781039237976092
 20
6.9162411689758301
 30
0.0
  0
VERTEX
  5
E03
  8
0
 62
     0
 10
-3.710418701171879
 20
6.90708684921265
 30
0.0
  0
VERTEX
  5
E04
  8
0
 62
     0
 10
-3.7418420314788801
 20
6.8954524993896511
 30
0.0
  0
VERTEX
  5
E05
  8
0
 62
     0
 10
-3.7722561359405491
 20
6.8813877105712891
 30
0.0
  0
VERTEX
  5
E06
  8
0
 62
     0
 10
-3.8015420436859091
 20
6.8649396896362296
 30
0.0
  0
VERTEX
  5
E07
  8
0
 62
     0
 10
-3.8295810222625688
 20
6.8461565971374503
 30
0.0
  0
VERTEX
  5
E08
  8
0
 62
     0
 10
-3.8562545776367201
 20
6.8250865936279288
 30
0.0
  0
VERTEX
  5
E09
  8
0
 62
     0
 10
-3.8814442157745401
 20
6.801777362823489
 30
0.0
  0
VERTEX
  5
E0A
  8
0
 62
     0
 10
-3.8814442157745401
 20
6.801777362823489
 30
0.0
  0
VERTEX
  5
E0B
  8
0
 62
     0
 10
-3.8814442157745401
 20
6.801777362823489
 30
0.0
  0
VERTEX
  5
E0C
  8
0
 62
     0
 10
-3.9048314094543488
 20
6.7765092849731401
 30
0.0
  0
VERTEX
  5
E0D
  8
0
 62
     0
 10
-3.9259681701660192
 20
6.7497425079345703
 30
0.0
  0
VERTEX
  5
E0E
  8
0
 62
     0
 10
-3.944804191589359
 20
6.7215991020202601
 30
0.0
  0
VERTEX
  5
E0F
  8
0
 62
     0
 10
-3.961290597915649
 20
6.6921982765197789
 30
0.0
  0
VERTEX
  5
E10
  8
0
 62
     0
 10
-3.9753766059875502
 20
6.6616611480712891
 30
0.0
  0
VERTEX
  5
E11
  8
0
 62
     0
 10
-3.9870135784149201
 20
6.6301074028015101
 30
0.0
  0
VERTEX
  5
E12
  8
0
 62
     0
 10
-3.9961509704589799
 20
6.5976581573486301
 30
0.0
  0
VERTEX
  5
E13
  8
0
 62
     0
 10
-4.0027389526367188
 20
6.564433097839359
 30
0.0
  0
VERTEX
  5
E14
  8
0
 62
     0
 10
-4.0067281723022496
 20
6.5305533409118688
 30
0.0
  0
VERTEX
  5
E15
  8
0
 62
     0
 10
-4.0080695152282697
 20
6.4961385726928702
 30
0.0
  0
VERTEX
  5
E16
  8
0
 62
     0
 10
-4.0080695152282697
 20
6.4961385726928702
 30
0.0
  0
VERTEX
  5
E17
  8
0
 62
     0
 10
-4.0080695152282697
 20
6.4961385726928702
 30
0.0
  0
VERTEX
  5
E18
  8
0
 62
     0
 10
-4.0024099349975586
 20
6.4262146949768093
 30
0.0
  0
VERTEX
  5
E19
  8
0
 62
     0
 10
-3.9860284328460689
 20
6.3598327636718794
 30
0.0
  0
VERTEX
  5
E1A
  8
0
 62
     0
 10
-3.9598202705383301
 20
6.2978892326354998
 30
0.0
  0
VERTEX
  5
E1B
  8
0
 62
     0
 10
-3.924680471420289
 20
6.2412815093994096
 30
0.0
  0
VERTEX
  5
E1C
  8
0
 62
     0
 10
-3.8815052509307901
 20
6.1909060478210396
 30
0.0
  0
VERTEX
  5
E1D
  8
0
 62
     0
 10
-3.8311893939971902
 20
6.1476597785949689
 30
0.0
  0
VERTEX
  5
E1E
  8
0
 62
     0
 10
-3.7746286392211901
 20
6.1124391555786097
 30
0.0
  0
VERTEX
  5
E1F
  8
0
 62
     0
 10
-3.71271848678589
 20
6.08614158630371
 30
0.0
  0
VERTEX
  5
E20
  8
0
 62
     0
 10
-3.6463537216186501
 20
6.0696640014648402
 30
0.0
  0
VERTEX
  5
E21
  8
0
 62
     0
 10
-3.5764303207397501
 20
6.0639023780822789
 30
0.0
  0
VERTEX
  5
E22
  8
0
 62
     0
 10
-3.5764303207397501
 20
6.0639023780822789
 30
0.0
  0
VERTEX
  5
E23
  8
0
 62
     0
 10
-3.574916362762449
 20
6.0639023780822789
 30
0.0
  0
VERTEX
  5
E24
  8
0
 62
     0
 10
0.227138936519623
 20
6.211847305297848
 30
0.0
  0
VERTEX
  5
E25
  8
0
 62
     0
 10
0.227138936519623
 20
6.211847305297848
 30
0.0
  0
VERTEX
  5
E26
  8
0
 62
     0
 10
0.239964038133621
 20
6.2108082771301287
 30
0.0
  0
VERTEX
  5
E27
  8
0
 62
     0
 10
0.252137899398804
 20
6.2078018188476589
 30
0.0
  0
VERTEX
  5
E28
  8
0
 62
     0
 10
0.263495922088623
 20
6.2029919624328604
 30
0.0
  0
VERTEX
  5
E29
  8
0
 62
     0
 10
0.273873537778854
 20
6.1965432167053187
 30
0.0
  0
VERTEX
  5
E2A
  8
0
 62
     0
 10
0.283106178045273
 20
6.1886215209960902
 30
0.0
  0
VERTEX
  5
E2B
  8
0
 62
     0
 10
0.291029214859009
 20
6.1793899536132804
 30
0.0
  0
VERTEX
  5
E2C
  8
0
 62
     0
 10
0.297478079795837
 20
6.1690144538879403
 30
0.0
  0
VERTEX
  5
E2D
  8
0
 62
     0
 10
0.302288174629211
 20
6.1576585769653294
 30
0.0
  0
VERTEX
  5
E2E
  8
0
 62
     0
 10
0.305294930934906
 20
6.145487785339359
 30
0.0
  0
VERTEX
  5
E2F
  8
0
 62
     0
 10
0.3063337504863739
 20
6.132666587829589
 30
0.0
  0
VERTEX
  5
E30
  8
0
 62
     0
 10
0.3063337504863739
 20
6.132666587829589
 30
0.0
  0
VERTEX
  5
E31
  8
0
 62
     0
 10
0.3063337504863739
 20
6.132666587829589
 30
0.0
  0
VERTEX
  5
E32
  8
0
 62
     0
 10
0.305294930934906
 20
6.1198353767394993
 30
0.0
  0
VERTEX
  5
E33
  8
0
 62
     0
 10
0.302288174629211
 20
6.1076583862304688
 30
0.0
  0
VERTEX
  5
E34
  8
0
 62
     0
 10
0.297478079795837
 20
6.0963001251220703
 30
0.0
  0
VERTEX
  5
E35
  8
0
 62
     0
 10
0.291029185056686
 20
6.0859246253967312
 30
0.0
  0
VERTEX
  5
E36
  8
0
 62
     0
 10
0.283106178045273
 20
6.0766959190368688
 30
0.0
  0
VERTEX
  5
E37
  8
0
 62
     0
 10
0.273873537778854
 20
6.0687770843505886
 30
0.0
  0
VERTEX
  5
E38
  8
0
 62
     0
 10
0.263495922088623
 20
6.0623335838317889
 30
0.0
  0
VERTEX
  5
E39
  8
0
 62
     0
 10
0.252137899398804
 20
6.0575275421142596
 30
0.0
  0
VERTEX
  5
E3A
  8
0
 62
     0
 10
0.239964038133621
 20
6.0545234680175799
 30
0.0
  0
VERTEX
  5
E3B
  8
0
 62
     0
 10
0.227138936519623
 20
6.0534858703613299
 30
0.0
  0
VERTEX
  5
E3C
  8
0
 62
     0
 10
0.227138936519623
 20
6.0534858703613299
 30
0.0
  0
VERTEX
  5
E3D
  8
0
 62
     0
 10
0.227138936519623
 20
6.0534305572509801
 30
0.0
  0
VERTEX
  5
E3E
  8
0
 62
     0
 10
0.227138936519623
 20
6.0534305572509801
 30
0.0
  0
VERTEX
  5
E3F
  8
0
 62
     0
 10
0.147876262664795
 20
6.0475387573242188
 30
0.0
  0
VERTEX
  5
E40
  8
0
 62
     0
 10
-0.0661090835928917
 20
6.0316314697265589
 30
0.0
  0
VERTEX
  5
E41
  8
0
 62
     0
 10
-0.381163120269775
 20
6.0082106590270987
 30
0.0
  0
VERTEX
  5
E42
  8
0
 62
     0
 10
-0.7636317610740658
 20
5.979777336120609
 30
0.0
  0
VERTEX
  5
E43
  8
0
 62
     0
 10
-1.1798610687255899
 20
5.9488353729248002
 30
0.0
  0
VERTEX
  5
E44
  8
0
 62
     0
 10
-1.5961971282959
 20
5.9178843498229998
 30
0.0
  0
VERTEX
  5
E45
  8
0
 62
     0
 10
-1.978985667228699
 20
5.8894281387329102
 30
0.0
  0
VERTEX
  5
E46
  8
0
 62
     0
 10
-2.2945730686187691
 20
5.86596727371216
 30
0.0
  0
VERTEX
  5
E47
  8
0
 62
     0
 10
-2.5093050003051798
 20
5.8500046730041504
 30
0.0
  0
VERTEX
  5
E48
  8
0
 62
     0
 10
-2.5895276069641091
 20
5.8440418243408203
 30
0.0
  0
VERTEX
  5
E49
  8
0
 62
     0
 10
-2.5895276069641091
 20
5.8440418243408203
 30
0.0
  0
VERTEX
  5
E4A
  8
0
 62
     0
 10
-2.5900692939758301
 20
5.8440418243408203
 30
0.0
  0
VERTEX
  5
E4B
  8
0
 62
     0
 10
-2.5900692939758301
 20
5.8440418243408203
 30
0.0
  0
VERTEX
  5
E4C
  8
0
 62
     0
 10
-2.6757955551147501
 20
5.8371028900146511
 30
0.0
  0
VERTEX
  5
E4D
  8
0
 62
     0
 10
-2.75715899467468
 20
5.8170185089111301
 30
0.0
  0
VERTEX
  5
E4E
  8
0
 62
     0
 10
-2.8330614566802992
 20
5.7848868370056188
 30
0.0
  0
VERTEX
  5
E4F
  8
0
 62
     0
 10
-2.9024057388305691
 20
5.7418050765991202
 30
0.0
  0
VERTEX
  5
E50
  8
0
 62
     0
 10
-2.9640934467315692
 20
5.6888713836669886
 30
0.0
  0
VERTEX
  5
E51
  8
0
 62
     0
 10
-3.0170271396636998
 20
5.6271834373474086
 30
0.0
  0
VERTEX
  5
E52
  8
0
 62
     0
 10
-3.0601089000701891
 20
5.5578393936157191
 30
0.0
  0
VERTEX
  5
E53
  8
0
 62
     0
 10
-3.0922405719757089
 20
5.4819364547729501
 30
0.0
  0
VERTEX
  5
E54
  8
0
 62
     0
 10
-3.1123247146606401
 20
5.4005732536315891
 30
0.0
  0
VERTEX
  5
E55
  8
0
 62
     0
 10
-3.1192636489868191
 20
5.3148469924926802
 30
0.0
  0
VERTEX
  5
E56
  8
0
 62
     0
 10
-3.1192636489868191
 20
5.3148469924926802
 30
0.0
  0
VERTEX
  5
E57
  8
0
 62
     0
 10
-3.1192636489868191
 20
5.3148469924926802
 30
0.0
  0
VERTEX
  5
E58
  8
0
 62
     0
 10
-3.11467337608337
 20
5.2458171844482404
 30
0.0
  0
VERTEX
  5
E59
  8
0
 62
     0
 10
-3.10125756263733
 20
5.1789507865905797
 30
0.0
  0
VERTEX
  5
E5A
  8
0
 62
     0
 10
-3.079547166824339
 20
5.1149606704711896
 30
0.0
  0
VERTEX
  5
E5B
  8
0
 62
     0
 10
-3.050074577331539
 20
5.0545582771301287
 30
0.0
  0
VERTEX
  5
E5C
  8
0
 62
     0
 10
-3.0133714675903298
 20
4.9984545707702592
 30
0.0
  0
VERTEX
  5
E5D
  8
0
 62
     0
 10
-2.969968557357789
 20
4.9473619461059588
 30
0.0
  0
VERTEX
  5
E5E
  8
0
 62
     0
 10
-2.9203987121581991
 20
4.9019918441772496
 30
0.0
  0
VERTEX
  5
E5F
  8
0
 62
     0
 10
-2.8651928901672399
 20
4.863055706024169
 30
0.0
  0
VERTEX
  5
E60
  8
0
 62
     0
 10
-2.8048830032348588
 20
4.8312659263610787
 30
0.0
  0
VERTEX
  5
E61
  8
0
 62
     0
 10
-2.7400004863739
 20
4.80733299255371
 30
0.0
  0
VERTEX
  5
E62
  8
0
 62
     0
 10
-2.7400004863739
 20
4.80733299255371
 30
0.0
  0
VERTEX
  5
E63
  8
0
 62
     0
 10
-2.7400004863739
 20
4.80733299255371
 30
0.0
  0
VERTEX
  5
E64
  8
0
 62
     0
 10
-2.73898530006409
 20
4.8070330619812003
 30
0.0
  0
VERTEX
  5
E65
  8
0
 62
     0
 10
-2.73617362976074
 20
4.8062014579772896
 30
0.0
  0
VERTEX
  5
E66
  8
0
 62
     0
 10
-2.7319149971008301
 20
4.8049416542053196
 30
0.0
  0
VERTEX
  5
E67
  8
0
 62
     0
 10
-2.7265594005584699
 20
4.8033580780029288
 30
0.0
  0
VERTEX
  5
E68
  8
0
 62
     0
 10
-2.7204566001892099
 20
4.8015537261962891
 30
0.0
  0
VERTEX
  5
E69
  8
0
 62
     0
 10
-2.7139570713043191
 20
4.7996320724487296
 30
0.0
  0
VERTEX
  5
E6A
  8
0
 62
     0
 10
-2.7074100971221902
 20
4.7976970672607404
 30
0.0
  0
VERTEX
  5
E6B
  8
0
 62
     0
 10
-2.7011659145355198
 20
4.795852184295649
 30
0.0
  0
VERTEX
  5
E6C
  8
0
 62
     0
 10
-2.6955747604370091
 20
4.7942013740539586
 30
0.0
  0
VERTEX
  5
E6D
  8
0
 62
     0
 10
-2.6909856796264591
 20
4.7928471565246591
 30
0.0
  0
VERTEX
  5
E6E
  8
0
 62
     0
 10
-2.6909856796264591
 20
4.7928471565246591
 30
0.0
  0
VERTEX
  5
E6F
  8
0
 62
     0
 10
-2.6909856796264591
 20
4.7928471565246591
 30
0.0
  0
VERTEX
  5
E70
  8
0
 62
     0
 10
-2.6955747604370091
 20
4.791500568389889
 30
0.0
  0
VERTEX
  5
E71
  8
0
 62
     0
 10
-2.7011659145355198
 20
4.7898550033569292
 30
0.0
  0
VERTEX
  5
E72
  8
0
 62
     0
 10
-2.7074100971221902
 20
4.7880153656005904
 30
0.0
  0
VERTEX
  5
E73
  8
0
 62
     0
 10
-2.7139570713043191
 20
4.7860836982727086
 30
0.0
  0
VERTEX
  5
E74
  8
0
 62
     0
 10
-2.7204566001892099
 20
4.7841644287109402
 30
0.0
  0
VERTEX
  5
E75
  8
0
 62
     0
 10
-2.7265594005584699
 20
4.7823619842529288
 30
0.0
  0
VERTEX
  5
E76
  8
0
 62
     0
 10
-2.7319149971008301
 20
4.7807788848876989
 30
0.0
  0
VERTEX
  5
E77
  8
0
 62
     0
 10
-2.73617362976074
 20
4.7795200347900391
 30
0.0
  0
VERTEX
  5
E78
  8
0
 62
     0
 10
-2.73898530006409
 20
4.7786884307861301
 30
0.0
  0
VERTEX
  5
E79
  8
0
 62
     0
 10
-2.7400004863739
 20
4.7783885002136204
 30
0.0
  0
VERTEX
  5
E7A
  8
0
 62
     0
 10
-2.7400004863739
 20
4.7783885002136204
 30
0.0
  0
VERTEX
  5
E7B
  8
0
 62
     0
 10
-2.7400004863739
 20
4.7783885002136204
 30
0.0
  0
VERTEX
  5
E7C
  8
0
 62
     0
 10
-2.8048830032348588
 20
4.7544636726379403
 30
0.0
  0
VERTEX
  5
E7D
  8
0
 62
     0
 10
-2.8651928901672399
 20
4.722681045532231
 30
0.0
  0
VERTEX
  5
E7E
  8
0
 62
     0
 10
-2.9203987121581991
 20
4.6837506294250488
 30
0.0
  0
VERTEX
  5
E7F
  8
0
 62
     0
 10
-2.969968557357789
 20
4.638385295867919
 30
0.0
  0
VERTEX
  5
E80
  8
0
 62
     0
 10
-3.0133714675903298
 20
4.5872964859008789
 30
0.0
  0
VERTEX
  5
E81
  8
0
 62
     0
 10
-3.050074577331539
 20
4.5311951637268093
 30
0.0
  0
VERTEX
  5
E82
  8
0
 62
     0
 10
-3.079547166824339
 20
4.4707937240600586
 30
0.0
  0
VERTEX
  5
E83
  8
0
 62
     0
 10
-3.10125756263733
 20
4.4068036079406694
 30
0.0
  0
VERTEX
  5
E84
  8
0
 62
     0
 10
-3.11467337608337
 20
4.3399357795715288
 30
0.0
  0
VERTEX
  5
E85
  8
0
 62
     0
 10
-3.1192636489868191
 20
4.2709026336669904
 30
0.0
  0
VERTEX
  5
E86
  8
0
 62
     0
 10
-3.1192636489868191
 20
4.2709026336669904
 30
0.0
  0
VERTEX
  5
E87
  8
0
 62
     0
 10
-3.1192636489868191
 20
4.2709026336669904
 30
0.0
  0
VERTEX
  5
E88
  8
0
 62
     0
 10
-3.1176209449768102
 20
4.2288265228271493
 30
0.0
  0
VERTEX
  5
E89
  8
0
 62
     0
 10
-3.1127331256866491
 20
4.187396526336669
 30
0.0
  0
VERTEX
  5
E8A
  8
0
 62
     0
 10
-3.1046614646911599
 20
4.1467599868774396
 30
0.0
  0
VERTEX
  5
E8B
  8
0
 62
     0
 10
-3.0934667587280291
 20
4.1070628166198704
 30
0.0
  0
VERTEX
  5
E8C
  8
0
 62
     0
 10
-3.0792098045349099
 20
4.0684528350830087
 30
0.0
  0
VERTEX
  5
E8D
  8
0
 62
     0
 10
-3.0619516372680691
 20
4.0310764312744087
 30
0.0
  0
VERTEX
  5
E8E
  8
0
 62
     0
 10
-3.0417530536651589
 20
3.9950807094573988
 30
0.0
  0
VERTEX
  5
E8F
  8
0
 62
     0
 10
-3.0186753273010289
 20
3.9606127738952588
 30
0.0
  0
VERTEX
  5
E90
  8
0
 62
     0
 10
-2.9927790164947492
 20
3.9278192520141602
 30
0.0
  0
VERTEX
  5
E91
  8
0
 62
     0
 10
-2.9641249179840101
 20
3.8968472480773899
 30
0.0
  0
VERTEX
  5
E92
  8
0
 62
     0
 10
-2.9641249179840101
 20
3.8968472480773899
 30
0.0
  0
VERTEX
  5
E93
  8
0
 62
     0
 10
-2.9641249179840101
 20
3.8968472480773899
 30
0.0
  0
VERTEX
  5
E94
  8
0
 62
     0
 10
-2.9331459999084499
 20
3.868193387985229
 30
0.0
  0
VERTEX
  5
E95
  8
0
 62
     0
 10
-2.9003484249114999
 20
3.8422966003418
 30
0.0
  0
VERTEX
  5
E96
  8
0
 62
     0
 10
-2.8658785820007302
 20
3.8192188739776589
 30
0.0
  0
VERTEX
  5
E97
  8
0
 62
     0
 10
-2.8298830986022891
 20
3.7990200519561799
 30
0.0
  0
VERTEX
  5
E98
  8
0
 62
     0
 10
-2.7925083637237491
 20
3.7817621231079102
 30
0.0
  0
VERTEX
  5
E99
  8
0
 62
     0
 10
-2.7539007663726802
 20
3.76750516891479
 30
0.0
  0
VERTEX
  5
E9A
  8
0
 62
     0
 10
-2.7142066955566402
 20
3.7563104629516602
 30
0.0
  0
VERTEX
  5
E9B
  8
0
 62
     0
 10
-2.67357230186462
 20
3.748238563537599
 30
0.0
  0
VERTEX
  5
E9C
  8
0
 62
     0
 10
-2.6321444511413592
 20
3.7433509826660192
 30
0.0
  0
VERTEX
  5
E9D
  8
0
 62
     0
 10
-2.5900692939758301
 20
3.7417080402374299
 30
0.0
  0
VERTEX
  5
E9E
  8
0
 62
     0
 10
-2.5900692939758301
 20
3.7417080402374299
 30
0.0
  0
VERTEX
  5
E9F
  8
0
 62
     0
 10
-2.5895276069641091
 20
3.7417080402374299
 30
0.0
  0
VERTEX
  5
EA0
  8
0
 62
     0
 10
-2.5895276069641091
 20
3.7417080402374299
 30
0.0
  0
VERTEX
  5
EA1
  8
0
 62
     0
 10
-2.5093050003051798
 20
3.7357444763183589
 30
0.0
  0
VERTEX
  5
EA2
  8
0
 62
     0
 10
-2.2945730686187691
 20
3.7197794914245601
 30
0.0
  0
VERTEX
  5
EA3
  8
0
 62
     0
 10
-1.978985667228699
 20
3.6963157653808589
 30
0.0
  0
VERTEX
  5
EA4
  8
0
 62
     0
 10
-1.5961970090866091
 20
3.6678555011749299
 30
0.0
  0
VERTEX
  5
EA5
  8
0
 62
     0
 10
-1.1798610687255899
 20
3.6369006633758501
 30
0.0
  0
VERTEX
  5
EA6
  8
0
 62
     0
 10
-0.7636316418647771
 20
3.605954170227049
 30
0.0
  0
VERTEX
  5
EA7
  8
0
 62
     0
 10
-0.381163120269775
 20
3.5775175094604501
 30
0.0
  0
VERTEX
  5
EA8
  8
0
 62
     0
 10
-0.0661090314388275
 20
3.5540933609008798
 30
0.0
  0
VERTEX
  5
EA9
  8
0
 62
     0
 10
0.147876232862473
 20
3.538183927536009
 30
0.0
  0
VERTEX
  5
EAA
  8
0
 62
     0
 10
0.227138936519623
 20
3.5322914123535192
 30
0.0
  0
VERTEX
  5
EAB
  8
0
 62
     0
 10
0.227138936519623
 20
3.5322914123535192
 30
0.0
  0
VERTEX
  5
EAC
  8
0
 62
     0
 10
0.227138936519623
 20
3.5322358608245801
 30
0.0
  0
VERTEX
  5
EAD
  8
0
 62
     0
 10
0.227138936519623
 20
3.5322358608245801
 30
0.0
  0
VERTEX
  5
EAE
  8
0
 62
     0
 10
0.239964038133621
 20
3.5311982631683301
 30
0.0
  0
VERTEX
  5
EAF
  8
0
 62
     0
 10
0.252137899398804
 20
3.528194665908809
 30
0.0
  0
VERTEX
  5
EB0
  8
0
 62
     0
 10
0.263495922088623
 20
3.5233891010284402
 30
0.0
  0
VERTEX
  5
EB1
  8
0
 62
     0
 10
0.273873537778854
 20
3.5169460773467991
 30
0.0
  0
VERTEX
  5
EB2
  8
0
 62
     0
 10
0.283106178045273
 20
3.5090293884277299
 30
0.0
  0
VERTEX
  5
EB3
  8
0
 62
     0
 10
0.291029214859009
 20
3.499802827835079
 30
0.0
  0
VERTEX
  5
EB4
  8
0
 62
     0
 10
0.297478079795837
 20
3.4894309043884291
 30
0.0
  0
VERTEX
  5
EB5
  8
0
 62
     0
 10
0.302288174629211
 20
3.4780776500701891
 30
0.0
  0
VERTEX
  5
EB6
  8
0
 62
     0
 10
0.305294930934906
 20
3.465907096862789
 30
0.0
  0
VERTEX
  5
EB7
  8
0
 62
     0
 10
0.3063337504863739
 20
3.453083038330079
 30
0.0
  0
VERTEX
  5
EB8
  8
0
 62
     0
 10
0.3063337504863739
 20
3.453083038330079
 30
0.0
  0
VERTEX
  5
EB9
  8
0
 62
     0
 10
0.3063337504863739
 20
3.453083038330079
 30
0.0
  0
VERTEX
  5
EBA
  8
0
 62
     0
 10
0.305294930934906
 20
3.440255165100099
 30
0.0
  0
VERTEX
  5
EBB
  8
0
 62
     0
 10
0.302288174629211
 20
3.428080558776859
 30
0.0
  0
VERTEX
  5
EBC
  8
0
 62
     0
 10
0.297478079795837
 20
3.416723251342769
 30
0.0
  0
VERTEX
  5
EBD
  8
0
 62
     0
 10
0.291029185056686
 20
3.4063477516174299
 30
0.0
  0
VERTEX
  5
EBE
  8
0
 62
     0
 10
0.283106178045273
 20
3.3971180915832502
 30
0.0
  0
VERTEX
  5
EBF
  8
0
 62
     0
 10
0.273873537778854
 20
3.3891983032226598
 30
0.0
  0
VERTEX
  5
EC0
  8
0
 62
     0
 10
0.263495922088623
 20
3.3827526569366491
 30
0.0
  0
VERTEX
  5
EC1
  8
0
 62
     0
 10
0.252137899398804
 20
3.3779454231262198
 30
0.0
  0
VERTEX
  5
EC2
  8
0
 62
     0
 10
0.239964038133621
 20
3.3749406337737988
 30
0.0
  0
VERTEX
  5
EC3
  8
0
 62
     0
 10
0.227138936519623
 20
3.3739025592803991
 30
0.0
  0
VERTEX
  5
EC4
  8
0
 62
     0
 10
0.227138936519623
 20
3.3739025592803991
 30
0.0
  0
VERTEX
  5
EC5
  8
0
 62
     0
 10
-3.5748333930969189
 20
3.521819114685059
 30
0.0
  0
VERTEX
  5
EC6
  8
0
 62
     0
 10
-3.5764303207397501
 20
3.521819114685059
 30
0.0
  0
VERTEX
  5
EC7
  8
0
 62
     0
 10
-3.5764303207397501
 20
3.521819114685059
 30
0.0
  0
VERTEX
  5
EC8
  8
0
 62
     0
 10
-3.6463537216186501
 20
3.5160586833953889
 30
0.0
  0
VERTEX
  5
EC9
  8
0
 62
     0
 10
-3.71271848678589
 20
3.49958300590515
 30
0.0
  0
VERTEX
  5
ECA
  8
0
 62
     0
 10
-3.7746286392211901
 20
3.4732885360717791
 30
0.0
  0
VERTEX
  5
ECB
  8
0
 62
     0
 10
-3.8311893939971902
 20
3.4380719661712589
 30
0.0
  0
VERTEX
  5
ECC
  8
0
 62
     0
 10
-3.8815052509307901
 20
3.39482975006104
 30
0.0
  0
VERTEX
  5
ECD
  8
0
 62
     0
 10
-3.924680471420289
 20
3.344458341598509
 30
0.0
  0
VERTEX
  5
ECE
  8
0
 62
     0
 10
-3.9598202705383301
 20
3.2878541946411088
 30
0.0
  0
VERTEX
  5
ECF
  8
0
 62
     0
 10
-3.9860284328460689
 20
3.2259140014648389
 30
0.0
  0
VERTEX
  5
ED0
  8
0
 62
     0
 10
-4.0024099349975586
 20
3.15953397750854
 30
0.0
  0
VERTEX
  5
ED1
  8
0
 62
     0
 10
-4.0080695152282697
 20
3.0896110534667991
 30
0.0
  0
VERTEX
  5
ED2
  8
0
 62
     0
 10
-4.0080695152282697
 20
3.0896110534667991
 30
0.0
  0
VERTEX
  5
ED3
  8
0
 62
     0
 10
-4.0080695152282697
 20
3.0896110534667991
 30
0.0
  0
VERTEX
  5
ED4
  8
0
 62
     0
 10
-4.0067281723022496
 20
3.05519723892212
 30
0.0
  0
VERTEX
  5
ED5
  8
0
 62
     0
 10
-4.0027389526367188
 20
3.0213189125060991
 30
0.0
  0
VERTEX
  5
ED6
  8
0
 62
     0
 10
-3.9961509704589799
 20
2.988095998764039
 30
0.0
  0
VERTEX
  5
ED7
  8
0
 62
     0
 10
-3.9870135784149201
 20
2.9556481838226301
 30
0.0
  0
VERTEX
  5
ED8
  8
0
 62
     0
 10
-3.9753766059875502
 20
2.9240951538085889
 30
0.0
  0
VERTEX
  5
ED9
  8
0
 62
     0
 10
-3.961290597915649
 20
2.8935568332672101
 30
0.0
  0
VERTEX
  5
EDA
  8
0
 62
     0
 10
-3.944804191589359
 20
2.8641529083252002
 30
0.0
  0
VERTEX
  5
EDB
  8
0
 62
     0
 10
-3.9259681701660192
 20
2.8360028266906689
 30
0.0
  0
VERTEX
  5
EDC
  8
0
 62
     0
 10
-3.9048314094543488
 20
2.8092265129089391
 30
0.0
  0
VERTEX
  5
EDD
  8
0
 62
     0
 10
-3.8814442157745401
 20
2.783944129943849
 30
0.0
  0
VERTEX
  5
EDE
  8
0
 62
     0
 10
-3.8814442157745401
 20
2.783944129943849
 30
0.0
  0
VERTEX
  5
EDF
  8
0
 62
     0
 10
-3.8814442157745401
 20
2.783944129943849
 30
0.0
  0
VERTEX
  5
EE0
  8
0
 62
     0
 10
-3.8562536239624001
 20
2.76064133644104
 30
0.0
  0
VERTEX
  5
EE1
  8
0
 62
     0
 10
-3.8295783996581991
 20
2.7395744323730491
 30
0.0
  0
VERTEX
  5
EE2
  8
0
 62
     0
 10
-3.8015365600585889
 20
2.7207920551299991
 30
0.0
  0
VERTEX
  5
EE3
  8
0
 62
     0
 10
-3.7722482681274401
 20
2.7043433189392099
 30
0.0
  0
VERTEX
  5
EE4
  8
0
 62
     0
 10
-3.7418315410614
 20
2.6902775764465292
 30
0.0
  0
VERTEX
  5
EE5
  8
0
 62
     0
 10
-3.7104063034057591
 20
2.67864322662354
 30
0.0
  0
VERTEX
  5
EE6
  8
0
 62
     0
 10
-3.6780917644500688
 20
2.6694893836975089
 30
0.0
  0
VERTEX
  5
EE7
  8
0
 62
     0
 10
-3.645006418228149
 20
2.6628656387329102
 30
0.0
  0
VERTEX
  5
EE8
  8
0
 62
     0
 10
-3.6112692356109601
 20
2.6588201522827091
 30
0.0
  0
VERTEX
  5
EE9
  8
0
 62
     0
 10
-3.5770001411438002
 20
2.6574025154113801
 30
0.0
  0
VERTEX
  5
EEA
  8
0
 62
     0
 10
-3.5770001411438002
 20
2.6574025154113801
 30
0.0
  0
VERTEX
  5
EEB
  8
0
 62
     0
 10
-3.5770552158355691
 20
2.6574025154113801
 30
0.0
  0
VERTEX
  5
EEC
  8
0
 62
     0
 10
-3.5770552158355691
 20
2.6574025154113801
 30
0.0
  0
VERTEX
  5
EED
  8
0
 62
     0
 10
-3.5770297050476092
 20
2.6574010848999001
 30
0.0
  0
VERTEX
  5
EEE
  8
0
 62
     0
 10
-3.57695865631104
 20
2.657396793365479
 30
0.0
  0
VERTEX
  5
EEF
  8
0
 62
     0
 10
-3.576850891113279
 20
2.6573903560638392
 30
0.0
  0
VERTEX
  5
EF0
  8
0
 62
     0
 10
-3.5767152309417698
 20
2.6573829650878902
 30
0.0
  0
VERTEX
  5
EF1
  8
0
 62
     0
 10
-3.5765604972839391
 20
2.657374620437619
 30
0.0
  0
VERTEX
  5
EF2
  8
0
 62
     0
 10
-3.5763952732086191
 20
2.65736651420593
 30
0.0
  0
VERTEX
  5
EF3
  8
0
 62
     0
 10
-3.5762286186218302
 20
2.65735912322998
 30
0.0
  0
VERTEX
  5
EF4
  8
0
 62
     0
 10
-3.576068878173829
 20
2.657352685928339
 30
0.0
  0
VERTEX
  5
EF5
  8
0
 62
     0
 10
-3.575924873352049
 20
2.65734839439392
 30
0.0
  0
VERTEX
  5
EF6
  8
0
 62
     0
 10
-3.5758056640625
 20
2.6573469638824498
 30
0.0
  0
VERTEX
  5
EF7
  8
0
 62
     0
 10
-3.5758056640625
 20
2.6573469638824498
 30
0.0
  0
VERTEX
  5
EF8
  8
0
 62
     0
 10
0.211111277341843
 20
2.5099720954894988
 30
0.0
  0
VERTEX
  5
EF9
  8
0
 62
     0
 10
0.211111277341843
 20
2.5099720954894988
 30
0.0
  0
VERTEX
  5
EFA
  8
0
 62
     0
 10
0.226836860179901
 20
2.50869941711426
 30
0.0
  0
VERTEX
  5
EFB
  8
0
 62
     0
 10
0.241762608289719
 20
2.50501537322998
 30
0.0
  0
VERTEX
  5
EFC
  8
0
 62
     0
 10
0.255687028169632
 20
2.499121427536009
 30
0.0
  0
VERTEX
  5
EFD
  8
0
 62
     0
 10
0.268408596515656
 20
2.491218805313109
 30
0.0
  0
VERTEX
  5
EFE
  8
0
 62
     0
 10
0.279725819826126
 20
2.4815084934234588
 30
0.0
  0
VERTEX
  5
EFF
  8
0
 62
     0
 10
0.28943720459938
 20
2.4701919555664098
 30
0.0
  0
VERTEX
  5
F00
  8
0
 62
     0
 10
0.297341257333755
 20
2.4574706554412789
 30
0.0
  0
VERTEX
  5
F01
  8
0
 62
     0
 10
0.30323651432991
 20
2.4435453414917001
 30
0.0
  0
VERTEX
  5
F02
  8
0
 62
     0
 10
0.306921392679214
 20
2.4286177158355691
 30
0.0
  0
VERTEX
  5
F03
  8
0
 62
     0
 10
0.308194488286972
 20
2.412888765335079
 30
0.0
  0
VERTEX
  5
F04
  8
0
 62
     0
 10
0.308194488286972
 20
2.412888765335079
 30
0.0
  0
VERTEX
  5
F05
  8
0
 62
     0
 10
0.308194488286972
 20
2.412888765335079
 30
0.0
  0
VERTEX
  5
F06
  8
0
 62
     0
 10
0.306921392679214
 20
2.3971552848815891
 30
0.0
  0
VERTEX
  5
F07
  8
0
 62
     0
 10
0.303236484527588
 20
2.3822224140167201
 30
0.0
  0
VERTEX
  5
F08
  8
0
 62
     0
 10
0.297341257333755
 20
2.3682916164398189
 30
0.0
  0
VERTEX
  5
F09
  8
0
 62
     0
 10
0.28943720459938
 20
2.3555648326873802
 30
0.0
  0
VERTEX
  5
F0A
  8
0
 62
     0
 10
0.279725819826126
 20
2.3442430496215789
 30
0.0
  0
VERTEX
  5
F0B
  8
0
 62
     0
 10
0.268408596515656
 20
2.3345277309417698
 30
0.0
  0
VERTEX
  5
F0C
  8
0
 62
     0
 10
0.255687028169632
 20
2.32662081718445
 30
0.0
  0
VERTEX
  5
F0D
  8
0
 62
     0
 10
0.241762608289719
 20
2.3207235336303702
 30
0.0
  0
VERTEX
  5
F0E
  8
0
 62
     0
 10
0.226836860179901
 20
2.3170371055602992
 30
0.0
  0
VERTEX
  5
F0F
  8
0
 62
     0
 10
0.211111277341843
 20
2.3157637119293191
 30
0.0
  0
VERTEX
  5
F10
  8
0
 62
     0
 10
0.211111277341843
 20
2.3157637119293191
 30
0.0
  0
VERTEX
  5
F11
  8
0
 62
     0
 10
-2.945277690887449
 20
2.3143332004547088
 30
0.0
  0
VERTEX
  5
F12
  8
0
 62
     0
 10
-2.945277690887449
 20
2.3143332004547088
 30
0.0
  0
VERTEX
  5
F13
  8
0
 62
     0
 10
-3.015295982360839
 20
2.30866479873657
 30
0.0
  0
VERTEX
  5
F14
  8
0
 62
     0
 10
-3.0817530155181889
 20
2.29225754737854
 30
0.0
  0
VERTEX
  5
F15
  8
0
 62
     0
 10
-3.1437516212463388
 20
2.2660083770752002
 30
0.0
  0
VERTEX
  5
F16
  8
0
 62
     0
 10
-3.2003943920135489
 20
2.2308144569396999
 30
0.0
  0
VERTEX
  5
F17
  8
0
 62
     0
 10
-3.2507846355438188
 20
2.1875727176666291
 30
0.0
  0
VERTEX
  5
F18
  8
0
 62
     0
 10
-3.2940244674682591
 20
2.1371798515319802
 30
0.0
  0
VERTEX
  5
F19
  8
0
 62
     0
 10
-3.3292174339294389
 20
2.0805335044860791
 30
0.0
  0
VERTEX
  5
F1A
  8
0
 62
     0
 10
-3.355465888977049
 20
2.018530368804929
 30
0.0
  0
VERTEX
  5
F1B
  8
0
 62
     0
 10
-3.371872901916499
 20
1.9520670175552399
 30
0.0
  0
VERTEX
  5
F1C
  8
0
 62
     0
 10
-3.37754154205322
 20
1.88204109668732
 30
0.0
  0
VERTEX
  5
F1D
  8
0
 62
     0
 10
-3.37754154205322
 20
1.88204109668732
 30
0.0
  0
VERTEX
  5
F1E
  8
0
 62
     0
 10
-3.37754154205322
 20
1.88204109668732
 30
0.0
  0
VERTEX
  5
F1F
  8
0
 62
     0
 10
-3.371873855590819
 20
1.8120160102844201
 30
0.0
  0
VERTEX
  5
F20
  8
0
 62
     0
 10
-3.35546875
 20
1.74555504322052
 30
0.0
  0
VERTEX
  5
F21
  8
0
 62
     0
 10
-3.32922267913818
 20
1.6835550069808991
 30
0.0
  0
VERTEX
  5
F22
  8
0
 62
     0
 10
-3.294032573699949
 20
1.6269123554229701
 30
0.0
  0
VERTEX
  5
F23
  8
0
 62
     0
 10
-3.2507948875427202
 20
1.5765239000320399
 30
0.0
  0
VERTEX
  5
F24
  8
0
 62
     0
 10
-3.2004063129424991
 20
1.53328621387482
 30
0.0
  0
VERTEX
  5
F25
  8
0
 62
     0
 10
-3.1437637805938698
 20
1.49809610843658
 30
0.0
  0
VERTEX
  5
F26
  8
0
 62
     0
 10
-3.0817637443542489
 20
1.4718501567840601
 30
0.0
  0
VERTEX
  5
F27
  8
0
 62
     0
 10
-3.0153028964996289
 20
1.4554450511932391
 30
0.0
  0
VERTEX
  5
F28
  8
0
 62
     0
 10
-2.945277690887449
 20
1.4497773647308301
 30
0.0
  0
VERTEX
  5
F29
  8
0
 62
     0
 10
-2.945277690887449
 20
1.4497773647308301
 30
0.0
  0
VERTEX
  5
F2A
  8
0
 62
     0
 10
0.6019583940505981
 20
1.425041198730469
 30
0.0
  0
VERTEX
  5
F2B
  8
0
 62
     0
 10
0.6019583940505981
 20
1.425041198730469
 30
0.0
  0
VERTEX
  5
F2C
  8
0
 62
     0
 10
0.609708309173584
 20
1.424741029739379
 30
0.0
  0
VERTEX
  5
F2D
  8
0
 62
     0
 10
0.6173177361488341
 20
1.4238479137420701
 30
0.0
  0
VERTEX
  5
F2E
  8
0
 62
     0
 10
0.6247636675834661
 20
1.4223731756210301
 30
0.0
  0
VERTEX
  5
F2F
  8
0
 62
     0
 10
0.6320230960845949
 20
1.4203280210495
 30
0.0
  0
VERTEX
  5
F30
  8
0
 62
     0
 10
0.639073073863983
 20
1.41772365570068
 30
0.0
  0
VERTEX
  5
F31
  8
0
 62
     0
 10
0.645890474319458
 20
1.4145714044570901
 30
0.0
  0
VERTEX
  5
F32
  8
0
 62
     0
 10
0.65245246887207
 20
1.4108824729919389
 30
0.0
  0
VERTEX
  5
F33
  8
0
 62
     0
 10
0.658735990524292
 20
1.406668186187739
 30
0.0
  0
VERTEX
  5
F34
  8
0
 62
     0
 10
0.6647179126739501
 20
1.40193963050842
 30
0.0
  0
VERTEX
  5
F35
  8
0
 62
     0
 10
0.6703754067420961
 20
1.3967081308364899
 30
0.0
  0
VERTEX
  5
F36
  8
0
 62
     0
 10
0.6703754067420961
 20
1.3967081308364899
 30
0.0
  0
VERTEX
  5
F37
  8
0
 62
     0
 10
0.6703754067420961
 20
1.3967081308364899
 30
0.0
  0
VERTEX
  5
F38
  8
0
 62
     0
 10
0.675650179386139
 20
1.3910005092620801
 30
0.0
  0
VERTEX
  5
F39
  8
0
 62
     0
 10
0.6804170608520512
 20
1.384961962699889
 30
0.0
  0
VERTEX
  5
F3A
  8
0
 62
     0
 10
0.684664964675903
 20
1.3786193132400499
 30
0.0
  0
VERTEX
  5
F3B
  8
0
 62
     0
 10
0.688382744789124
 20
1.3719992637634291
 30
0.0
  0
VERTEX
  5
F3C
  8
0
 62
     0
 10
0.691559135913849
 20
1.36512815952301
 30
0.0
  0
VERTEX
  5
F3D
  8
0
 62
     0
 10
0.694183111190796
 20
1.35803306102753
 30
0.0
  0
VERTEX
  5
F3E
  8
0
 62
     0
 10
0.6962433457374571
 20
1.3507404327392589
 30
0.0
  0
VERTEX
  5
F3F
  8
0
 62
     0
 10
0.69772881269455
 20
1.3432769775390601
 30
0.0
  0
VERTEX
  5
F40
  8
0
 62
     0
 10
0.698628187179565
 20
1.3356693983078001
 30
0.0
  0
VERTEX
  5
F41
  8
0
 62
     0
 10
0.6989305019378659
 20
1.3279443979263299
 30
0.0
  0
VERTEX
  5
F42
  8
0
 62
     0
 10
0.6989305019378659
 20
1.3279443979263299
 30
0.0
  0
VERTEX
  5
F43
  8
0
 62
     0
 10
0.6989305019378659
 20
1.3279443979263299
 30
0.0
  0
VERTEX
  5
F44
  8
0
 62
     0
 10
0.697657406330109
 20
1.3122144937515301
 30
0.0
  0
VERTEX
  5
F45
  8
0
 62
     0
 10
0.693972527980804
 20
1.2972846031188989
 30
0.0
  0
VERTEX
  5
F46
  8
0
 62
     0
 10
0.6880772709846501
 20
1.2833561897277801
 30
0.0
  0
VERTEX
  5
F47
  8
0
 62
     0
 10
0.6801732182502751
 20
1.2706310749053991
 30
0.0
  0
VERTEX
  5
F48
  8
0
 62
     0
 10
0.6704618930816652
 20
1.2593104839325
 30
0.0
  0
VERTEX
  5
F49
  8
0
 62
     0
 10
0.6591446399688721
 20
1.2495962381362891
 30
0.0
  0
VERTEX
  5
F4A
  8
0
 62
     0
 10
0.646423101425171
 20
1.241689801216129
 30
0.0
  0
VERTEX
  5
F4B
  8
0
 62
     0
 10
0.632498681545258
 20
1.235792756080629
 30
0.0
  0
VERTEX
  5
F4C
  8
0
 62
     0
 10
0.6175729632377621
 20
1.2321066856384291
 30
0.0
  0
VERTEX
  5
F4D
  8
0
 62
     0
 10
0.6018473505973821
 20
1.2308332920074501
 30
0.0
  0
VERTEX
  5
F4E
  8
0
 62
     0
 10
0.6018473505973821
 20
1.2308332920074501
 30
0.0
  0
VERTEX
  5
F4F
  8
0
 62
     0
 10
-1.840749979019169
 20
1.2479027509689291
 30
0.0
  0
VERTEX
  5
F50
  8
0
 62
     0
 10
-1.840749979019169
 20
1.2479027509689291
 30
0.0
  0
VERTEX
  5
F51
  8
0
 62
     0
 10
-1.9108268022537189
 20
1.24222683906555
 30
0.0
  0
VERTEX
  5
F52
  8
0
 62
     0
 10
-1.9773126840591391
 20
1.2258136272430391
 30
0.0
  0
VERTEX
  5
F53
  8
0
 62
     0
 10
-2.0393161773681601
 20
1.1995604038238501
 30
0.0
  0
VERTEX
  5
F54
  8
0
 62
     0
 10
-2.0959453582763699
 20
1.1643638610839799
 30
0.0
  0
VERTEX
  5
F55
  8
0
 62
     0
 10
-2.146308898925779
 20
1.12112128734589
 30
0.0
  0
VERTEX
  5
F56
  8
0
 62
     0
 10
-2.1895151138305691
 20
1.0707296133041391
 30
0.0
  0
VERTEX
  5
F57
  8
0
 62
     0
 10
-2.2246716022491491
 20
1.0140856504440301
 30
0.0
  0
VERTEX
  5
F58
  8
0
 62
     0
 10
-2.2508878707885689
 20
0.9520865678787229
 30
0.0
  0
VERTEX
  5
F59
  8
0
 62
     0
 10
-2.2672712802886998
 20
0.8856294155120848
 30
0.0
  0
VERTEX
  5
F5A
  8
0
 62
     0
 10
-2.2729306221008301
 20
0.8156111240386958
 30
0.0
  0
VERTEX
  5
F5B
  8
0
 62
     0
 10
-2.2729306221008301
 20
0.8156111240386958
 30
0.0
  0
VERTEX
  5
F5C
  8
0
 62
     0
 10
-2.2729306221008301
 20
0.8156111240386958
 30
0.0
  0
VERTEX
  5
F5D
  8
0
 62
     0
 10
-2.2672629356384291
 20
0.7455860376358029
 30
0.0
  0
VERTEX
  5
F5E
  8
0
 62
     0
 10
-2.2508578300476092
 20
0.679125070571899
 30
0.0
  0
VERTEX
  5
F5F
  8
0
 62
     0
 10
-2.2246119976043701
 20
0.6171249747276309
 30
0.0
  0
VERTEX
  5
F60
  8
0
 62
     0
 10
-2.189421653747559
 20
0.5604823231697081
 30
0.0
  0
VERTEX
  5
F61
  8
0
 62
     0
 10
-2.1461839675903289
 20
0.510093927383423
 30
0.0
  0
VERTEX
  5
F62
  8
0
 62
     0
 10
-2.0957956314086901
 20
0.466856271028519
 30
0.0
  0
VERTEX
  5
F63
  8
0
 62
     0
 10
-2.039153099060059
 20
0.4316661655902861
 30
0.0
  0
VERTEX
  5
F64
  8
0
 62
     0
 10
-1.977152943611149
 20
0.4054201841354371
 30
0.0
  0
VERTEX
  5
F65
  8
0
 62
     0
 10
-1.9106919765472401
 20
0.389015048742294
 30
0.0
  0
VERTEX
  5
F66
  8
0
 62
     0
 10
-1.8406668901443499
 20
0.383347392082214
 30
0.0
  0
VERTEX
  5
F67
  8
0
 62
     0
 10
-1.8406668901443499
 20
0.383347392082214
 30
0.0
  0
VERTEX
  5
F68
  8
0
 62
     0
 10
7.9567775726318386
 20
0.383347392082214
 30
0.0
  0
VERTEX
  5
F69
  8
0
 62
     0
 10
7.9567775726318386
 20
9.2023744583129901
 30
0.0
  0
VERTEX
  5
F6A
  8
0
 62
     0
 10
7.9567775726318386
 20
9.2023744583129901
 30
0.0
  0
SEQEND
  5
F6B
  8
0
 62
     0
  0
POLYLINE
  5
4A8
  8
0
 62
     0
 66
     1
 10
0.0
 20
0.0
 30
0.0
  0
VERTEX
  5
F6C
  8
0
 62
     0
 10
0.210874766111374
 20
6.7581524848937988
 30
0.0
  0
VERTEX
  5
F6D
  8
0
 62
     0
 10
0.210874766111374
 20
6.7581524848937988
 30
0.0
  0
VERTEX
  5
F6E
  8
0
 62
     0
 10
0.210874766111374
 20
6.7581524848937988
 30
0.0
  0
SEQEND
  5
F6F
  8
0
 62
     0
  0
POLYLINE
  5
6B0
  8
0
 62
     0
 66
     1
 10
0.0
 20
0.0
 30
0.0
  0
VERTEX
  5
F70
  8
0
 62
     0
 10
2.196569204330439
 20
3.4547641277313188
 30
0.0
  0
VERTEX
  5
F71
  8
0
 62
     0
 10
2.196569204330439
 20
3.4547641277313188
 30
0.0
  0
VERTEX
  5
F72
  8
0
 62
     0
 10
2.2574615478515598
 20
3.372932434082029
 30
0.0
  0
VERTEX
  5
F73
  8
0
 62
     0
 10
2.330652713775629
 20
3.2943179607391389
 30
0.0
  0
VERTEX
  5
F74
  8
0
 62
     0
 10
2.4152014255523699
 20
3.2194659709930402
 30
0.0
  0
VERTEX
  5
F75
  8
0
 62
     0
 10
2.5101668834686302
 20
3.1489219665527299
 30
0.0
  0
VERTEX
  5
F76
  8
0
 62
     0
 10
2.6146075725555389
 20
3.0832312107086191
 30
0.0
  0
VERTEX
  5
F77
  8
0
 62
     0
 10
2.7275822162628192
 20
3.0229389667510991
 30
0.0
  0
VERTEX
  5
F78
  8
0
 62
     0
 10
2.8481500148773189
 20
2.9685912132263188
 30
0.0
  0
VERTEX
  5
F79
  8
0
 62
     0
 10
2.9753694534301789
 20
2.92073321342468
 30
0.0
  0
VERTEX
  5
F7A
  8
0
 62
     0
 10
3.1082999706268288
 20
2.8799097537994389
 30
0.0
  0
VERTEX
  5
F7B
  8
0
 62
     0
 10
3.2459995746612491
 20
2.8466670513153089
 30
0.0
  0
VERTEX
  5
F7C
  8
0
 62
     0
 10
3.2459995746612491
 20
2.8466670513153089
 30
0.0
  0
VERTEX
  5
F7D
  8
0
 62
     0
 10
3.2459995746612491
 20
2.8466670513153089
 30
0.0
  0
VERTEX
  5
F7E
  8
0
 62
     0
 10
3.3854606151580788
 20
2.8218729496002202
 30
0.0
  0
VERTEX
  5
F7F
  8
0
 62
     0
 10
3.5235972404479989
 20
2.805934429168699
 30
0.0
  0
VERTEX
  5
F80
  8
0
 62
     0
 10
3.659327983856199
 20
2.7987301349639901
 30
0.0
  0
VERTEX
  5
F81
  8
0
 62
     0
 10
3.7915709018707289
 20
2.8001382350921591
 30
0.0
  0
VERTEX
  5
F82
  8
0
 62
     0
 10
3.9192445278167698
 20
2.81003665924072
 30
0.0
  0
VERTEX
  5
F83
  8
0
 62
     0
 10
4.0412669181823704
 20
2.8283038139343302
 30
0.0
  0
VERTEX
  5
F84
  8
0
 62
     0
 10
4.1565561294555691
 20
2.8548181056976301
 30
0.0
  0
VERTEX
  5
F85
  8
0
 62
     0
 10
4.2640304565429688
 20
2.8894574642181401
 30
0.0
  0
VERTEX
  5
F86
  8
0
 62
     0
 10
4.3626084327697789
 20
2.93210053443909
 30
0.0
  0
VERTEX
  5
F87
  8
0
 62
     0
 10
4.4512081146240181
 20
2.9826252460479701
 30
0.0
  0
VERTEX
  5
F88
  8
0
 62
     0
 10
4.4512081146240181
 20
2.9826252460479701
 30
0.0
  0
VERTEX
  5
F89
  8
0
 62
     0
 10
4.4512081146240181
 20
2.9826252460479701
 30
0.0
  0
VERTEX
  5
F8A
  8
0
 62
     0
 10
4.4877595901489302
 20
3.0081245899200391
 30
0.0
  0
VERTEX
  5
F8B
  8
0
 62
     0
 10
4.5214624404907191
 20
3.0349519252777091
 30
0.0
  0
VERTEX
  5
F8C
  8
0
 62
     0
 10
4.552264690399169
 20
3.0630383491516091
 30
0.0
  0
VERTEX
  5
F8D
  8
0
 62
     0
 10
4.5801143646240181
 20
3.0923151969909699
 30
0.0
  0
VERTEX
  5
F8E
  8
0
 62
     0
 10
4.6049594879150391
 20
3.122713804245
 30
0.0
  0
VERTEX
  5
F8F
  8
0
 62
     0
 10
4.6267490386962891
 20
3.154165267944339
 30
0.0
  0
VERTEX
  5
F90
  8
0
 62
     0
 10
4.6454300880432102
 20
3.1866006851196298
 30
0.0
  0
VERTEX
  5
F91
  8
0
 62
     0
 10
4.6609511375427202
 20
3.2199518680572492
 30
0.0
  0
VERTEX
  5
F92
  8
0
 62
     0
 10
4.6732602119445801
 20
3.25414943695068
 30
0.0
  0
VERTEX
  5
F93
  8
0
 62
     0
 10
4.6823053359985387
 20
3.2891252040862988
 30
0.0
  0
VERTEX
  5
F94
  8
0
 62
     0
 10
4.6823053359985387
 20
3.2891252040862988
 30
0.0
  0
VERTEX
  5
F95
  8
0
 62
     0
 10
4.6823053359985387
 20
3.2891252040862988
 30
0.0
  0
VERTEX
  5
F96
  8
0
 62
     0
 10
4.6880517005920401
 20
3.3248038291931201
 30
0.0
  0
VERTEX
  5
F97
  8
0
 62
     0
 10
4.6904969215393093
 20
3.3610756397247301
 30
0.0
  0
VERTEX
  5
F98
  8
0
 62
     0
 10
4.689661026000981
 20
3.397857666015629
 30
0.0
  0
VERTEX
  5
F99
  8
0
 62
     0
 10
4.6855640411376989
 20
3.435066223144529
 30
0.0
  0
VERTEX
  5
F9A
  8
0
 62
     0
 10
4.6782250404357901
 20
3.4726183414459189
 30
0.0
  0
VERTEX
  5
F9B
  8
0
 62
     0
 10
4.6676659584045401
 20
3.51043033599854
 30
0.0
  0
VERTEX
  5
F9C
  8
0
 62
     0
 10
4.653906345367429
 20
3.5484189987182591
 30
0.0
  0
VERTEX
  5
F9D
  8
0
 62
     0
 10
4.6369657516479501
 20
3.5865008831024201
 30
0.0
  0
VERTEX
  5
F9E
  8
0
 62
     0
 10
4.6168651580810502
 20
3.6245927810668901
 30
0.0
  0
VERTEX
  5
F9F
  8
0
 62
     0
 10
4.593624591827389
 20
3.6626112461090101
 30
0.0
  0
VERTEX
  5
FA0
  8
0
 62
     0
 10
4.593624591827389
 20
3.6626112461090101
 30
0.0
  0
VERTEX
  5
FA1
  8
0
 62
     0
 10
4.593624591827389
 20
3.6626112461090101
 30
0.0
  0
VERTEX
  5
FA2
  8
0
 62
     0
 10
4.5327353477478001
 20
3.7444360256195091
 30
0.0
  0
VERTEX
  5
FA3
  8
0
 62
     0
 10
4.4595451354980487
 20
3.8230464458465589
 30
0.0
  0
VERTEX
  5
FA4
  8
0
 62
     0
 10
4.3749957084655797
 20
3.897896289825439
 30
0.0
  0
VERTEX
  5
FA5
  8
0
 62
     0
 10
4.28002834320068
 20
3.9684398174285902
 30
0.0
  0
VERTEX
  5
FA6
  8
0
 62
     0
 10
4.1755847930908194
 20
4.0341305732727086
 30
0.0
  0
VERTEX
  5
FA7
  8
0
 62
     0
 10
4.0626068115234402
 20
4.0944223403930691
 30
0.0
  0
VERTEX
  5
FA8
  8
0
 62
     0
 10
3.942035675048829
 20
4.1487693786621103
 30
0.0
  0
VERTEX
  5
FA9
  8
0
 62
     0
 10
3.8148128986358598
 20
4.1966257095336896
 30
0.0
  0
VERTEX
  5
FAA
  8
0
 62
     0
 10
3.6818809509277299
 20
4.2374444007873491
 30
0.0
  0
VERTEX
  5
FAB
  8
0
 62
     0
 10
3.544180154800419
 20
4.2706809043884304
 30
0.0
  0
VERTEX
  5
FAC
  8
0
 62
     0
 10
3.544180154800419
 20
4.2706809043884304
 30
0.0
  0
VERTEX
  5
FAD
  8
0
 62
     0
 10
3.544180154800419
 20
4.2706809043884304
 30
0.0
  0
VERTEX
  5
FAE
  8
0
 62
     0
 10
3.40471243858337
 20
4.2954783439636204
 30
0.0
  0
VERTEX
  5
FAF
  8
0
 62
     0
 10
3.2665719985961901
 20
4.311419963836669
 30
0.0
  0
VERTEX
  5
FB0
  8
0
 62
     0
 10
3.130839347839359
 20
4.3186268806457502
 30
0.0
  0
VERTEX
  5
FB1
  8
0
 62
     0
 10
2.9985959529876691
 20
4.31722068786621
 30
0.0
  0
VERTEX
  5
FB2
  8
0
 62
     0
 10
2.8709232807159402
 20
4.3073248863220197
 30
0.0
  0
VERTEX
  5
FB3
  8
0
 62
     0
 10
2.7489023208618191
 20
4.289059638977049
 30
0.0
  0
VERTEX
  5
FB4
  8
0
 62
     0
 10
2.633614063262939
 20
4.2625479698181188
 30
0.0
  0
VERTEX
  5
FB5
  8
0
 62
     0
 10
2.5261397361755402
 20
4.2279109954833993
 30
0.0
  0
VERTEX
  5
FB6
  8
0
 62
     0
 10
2.4275608062744101
 20
4.1852712631225586
 30
0.0
  0
VERTEX
  5
FB7
  8
0
 62
     0
 10
2.338957786560059
 20
4.1347503662109402
 30
0.0
  0
VERTEX
  5
FB8
  8
0
 62
     0
 10
2.338957786560059
 20
4.1347503662109402
 30
0.0
  0
VERTEX
  5
FB9
  8
0
 62
     0
 10
2.338957786560059
 20
4.1347503662109402
 30
0.0
  0
VERTEX
  5
FBA
  8
0
 62
     0
 10
2.30241775512695
 20
4.109251022338869
 30
0.0
  0
VERTEX
  5
FBB
  8
0
 62
     0
 10
2.2687242031097399
 20
4.0824236869812003
 30
0.0
  0
VERTEX
  5
FBC
  8
0
 62
     0
 10
2.2379291057586701
 20
4.0543370246887189
 30
0.0
  0
VERTEX
  5
FBD
  8
0
 62
     0
 10
2.2100844383239702
 20
4.025060653686519
 30
0.0
  0
VERTEX
  5
FBE
  8
0
 62
     0
 10
2.1852426528930691
 20
3.99466156959534
 30
0.0
  0
VERTEX
  5
FBF
  8
0
 62
     0
 10
2.1634559631347701
 20
3.9632101058960001
 30
0.0
  0
VERTEX
  5
FC0
  8
0
 62
     0
 10
2.1447763442993191
 20
3.9307746887206991
 30
0.0
  0
VERTEX
  5
FC1
  8
0
 62
     0
 10
2.1292562484741202
 20
3.8974237442016602
 30
0.0
  0
VERTEX
  5
FC2
  8
0
 62
     0
 10
2.1169476509094189
 20
3.8632256984710689
 30
0.0
  0
VERTEX
  5
FC3
  8
0
 62
     0
 10
2.1079025268554701
 20
3.8282499313354501
 30
0.0
  0
VERTEX
  5
FC4
  8
0
 62
     0
 10
2.1079025268554701
 20
3.8282499313354501
 30
0.0
  0
VERTEX
  5
FC5
  8
0
 62
     0
 10
2.1079025268554701
 20
3.8282499313354501
 30
0.0
  0
VERTEX
  5
FC6
  8
0
 62
     0
 10
2.1021511554717991
 20
3.792572021484379
 30
0.0
  0
VERTEX
  5
FC7
  8
0
 62
     0
 10
2.0997011661529501
 20
3.7563023567199698
 30
0.0
  0
VERTEX
  5
FC8
  8
0
 62
     0
 10
2.100532293319699
 20
3.7195227146148691
 30
0.0
  0
VERTEX
  5
FC9
  8
0
 62
     0
 10
2.10462498664856
 20
3.6823170185089089
 30
0.0
  0
VERTEX
  5
FCA
  8
0
 62
     0
 10
2.11195969581604
 20
3.6447672843933101
 30
0.0
  0
VERTEX
  5
FCB
  8
0
 62
     0
 10
2.122516393661499
 20
3.6069574356079102
 30
0.0
  0
VERTEX
  5
FCC
  8
0
 62
     0
 10
2.1362752914428702
 20
3.56896877288818
 30
0.0
  0
VERTEX
  5
FCD
  8
0
 62
     0
 10
2.153217077255249
 20
3.5308852195739702
 30
0.0
  0
VERTEX
  5
FCE
  8
0
 62
     0
 10
2.1733217239379901
 20
3.4927892684936501
 30
0.0
  0
VERTEX
  5
FCF
  8
0
 62
     0
 10
2.196569204330439
 20
3.4547641277313188
 30
0.0
  0
VERTEX
  5
FD0
  8
0
 62
     0
 10
2.196569204330439
 20
3.4547641277313188
 30
0.0
  0
VERTEX
  5
FD1
  8
0
 62
     0
 10
2.196569204330439
 20
3.4547641277313188
 30
0.0
  0
SEQEND
  5
FD2
  8
0
 62
     0
  0
ENDSEC
  0
EOF
